%TF.GenerationSoftware,KiCad,Pcbnew,8.0.6*%
%TF.CreationDate,2025-01-03T23:58:44+00:00*%
%TF.ProjectId,Mini_Ammete,4d696e69-5f41-46d6-9d65-74652e6b6963,rev?*%
%TF.SameCoordinates,Original*%
%TF.FileFunction,Legend,Bot*%
%TF.FilePolarity,Positive*%
%FSLAX46Y46*%
G04 Gerber Fmt 4.6, Leading zero omitted, Abs format (unit mm)*
G04 Created by KiCad (PCBNEW 8.0.6) date 2025-01-03 23:58:44*
%MOMM*%
%LPD*%
G01*
G04 APERTURE LIST*
%ADD10C,0.200000*%
%ADD11C,0.150000*%
%ADD12C,0.229605*%
%ADD13C,0.100000*%
%ADD14C,0.350000*%
%ADD15O,1.700000X0.600000*%
%ADD16O,1.200000X0.600000*%
G04 APERTURE END LIST*
D10*
X138957279Y-73974028D02*
X138957279Y-72474028D01*
X138957279Y-72474028D02*
X138457279Y-73545457D01*
X138457279Y-73545457D02*
X137957279Y-72474028D01*
X137957279Y-72474028D02*
X137957279Y-73974028D01*
X137242993Y-73974028D02*
X137242993Y-72974028D01*
X137242993Y-72474028D02*
X137314421Y-72545457D01*
X137314421Y-72545457D02*
X137242993Y-72616885D01*
X137242993Y-72616885D02*
X137171564Y-72545457D01*
X137171564Y-72545457D02*
X137242993Y-72474028D01*
X137242993Y-72474028D02*
X137242993Y-72616885D01*
X136528707Y-72974028D02*
X136528707Y-73974028D01*
X136528707Y-73116885D02*
X136457278Y-73045457D01*
X136457278Y-73045457D02*
X136314421Y-72974028D01*
X136314421Y-72974028D02*
X136100135Y-72974028D01*
X136100135Y-72974028D02*
X135957278Y-73045457D01*
X135957278Y-73045457D02*
X135885850Y-73188314D01*
X135885850Y-73188314D02*
X135885850Y-73974028D01*
X135171564Y-73974028D02*
X135171564Y-72974028D01*
X135171564Y-72474028D02*
X135242992Y-72545457D01*
X135242992Y-72545457D02*
X135171564Y-72616885D01*
X135171564Y-72616885D02*
X135100135Y-72545457D01*
X135100135Y-72545457D02*
X135171564Y-72474028D01*
X135171564Y-72474028D02*
X135171564Y-72616885D01*
X133385849Y-73545457D02*
X132671564Y-73545457D01*
X133528706Y-73974028D02*
X133028706Y-72474028D01*
X133028706Y-72474028D02*
X132528706Y-73974028D01*
X132028707Y-73974028D02*
X132028707Y-72974028D01*
X132028707Y-73116885D02*
X131957278Y-73045457D01*
X131957278Y-73045457D02*
X131814421Y-72974028D01*
X131814421Y-72974028D02*
X131600135Y-72974028D01*
X131600135Y-72974028D02*
X131457278Y-73045457D01*
X131457278Y-73045457D02*
X131385850Y-73188314D01*
X131385850Y-73188314D02*
X131385850Y-73974028D01*
X131385850Y-73188314D02*
X131314421Y-73045457D01*
X131314421Y-73045457D02*
X131171564Y-72974028D01*
X131171564Y-72974028D02*
X130957278Y-72974028D01*
X130957278Y-72974028D02*
X130814421Y-73045457D01*
X130814421Y-73045457D02*
X130742992Y-73188314D01*
X130742992Y-73188314D02*
X130742992Y-73974028D01*
X130028707Y-73974028D02*
X130028707Y-72974028D01*
X130028707Y-73116885D02*
X129957278Y-73045457D01*
X129957278Y-73045457D02*
X129814421Y-72974028D01*
X129814421Y-72974028D02*
X129600135Y-72974028D01*
X129600135Y-72974028D02*
X129457278Y-73045457D01*
X129457278Y-73045457D02*
X129385850Y-73188314D01*
X129385850Y-73188314D02*
X129385850Y-73974028D01*
X129385850Y-73188314D02*
X129314421Y-73045457D01*
X129314421Y-73045457D02*
X129171564Y-72974028D01*
X129171564Y-72974028D02*
X128957278Y-72974028D01*
X128957278Y-72974028D02*
X128814421Y-73045457D01*
X128814421Y-73045457D02*
X128742992Y-73188314D01*
X128742992Y-73188314D02*
X128742992Y-73974028D01*
X127457278Y-73902600D02*
X127600135Y-73974028D01*
X127600135Y-73974028D02*
X127885850Y-73974028D01*
X127885850Y-73974028D02*
X128028707Y-73902600D01*
X128028707Y-73902600D02*
X128100135Y-73759742D01*
X128100135Y-73759742D02*
X128100135Y-73188314D01*
X128100135Y-73188314D02*
X128028707Y-73045457D01*
X128028707Y-73045457D02*
X127885850Y-72974028D01*
X127885850Y-72974028D02*
X127600135Y-72974028D01*
X127600135Y-72974028D02*
X127457278Y-73045457D01*
X127457278Y-73045457D02*
X127385850Y-73188314D01*
X127385850Y-73188314D02*
X127385850Y-73331171D01*
X127385850Y-73331171D02*
X128100135Y-73474028D01*
X126957278Y-72974028D02*
X126385850Y-72974028D01*
X126742993Y-72474028D02*
X126742993Y-73759742D01*
X126742993Y-73759742D02*
X126671564Y-73902600D01*
X126671564Y-73902600D02*
X126528707Y-73974028D01*
X126528707Y-73974028D02*
X126385850Y-73974028D01*
X125314421Y-73902600D02*
X125457278Y-73974028D01*
X125457278Y-73974028D02*
X125742993Y-73974028D01*
X125742993Y-73974028D02*
X125885850Y-73902600D01*
X125885850Y-73902600D02*
X125957278Y-73759742D01*
X125957278Y-73759742D02*
X125957278Y-73188314D01*
X125957278Y-73188314D02*
X125885850Y-73045457D01*
X125885850Y-73045457D02*
X125742993Y-72974028D01*
X125742993Y-72974028D02*
X125457278Y-72974028D01*
X125457278Y-72974028D02*
X125314421Y-73045457D01*
X125314421Y-73045457D02*
X125242993Y-73188314D01*
X125242993Y-73188314D02*
X125242993Y-73331171D01*
X125242993Y-73331171D02*
X125957278Y-73474028D01*
X124600136Y-73974028D02*
X124600136Y-72974028D01*
X124600136Y-73259742D02*
X124528707Y-73116885D01*
X124528707Y-73116885D02*
X124457279Y-73045457D01*
X124457279Y-73045457D02*
X124314421Y-72974028D01*
X124314421Y-72974028D02*
X124171564Y-72974028D01*
X116649500Y-80137000D02*
X117157500Y-80137000D01*
X117157500Y-80772000D01*
X116649500Y-80772000D01*
X116649500Y-80137000D01*
G36*
X116649500Y-80137000D02*
G01*
X117157500Y-80137000D01*
X117157500Y-80772000D01*
X116649500Y-80772000D01*
X116649500Y-80137000D01*
G37*
X116459000Y-78740000D02*
X117348000Y-78740000D01*
X117348000Y-79375000D01*
X116459000Y-79375000D01*
X116459000Y-78740000D01*
X116459000Y-79756000D02*
X117348000Y-79756000D01*
X117348000Y-80391000D01*
X116459000Y-80391000D01*
X116459000Y-79756000D01*
G36*
X116459000Y-79756000D02*
G01*
X117348000Y-79756000D01*
X117348000Y-80391000D01*
X116459000Y-80391000D01*
X116459000Y-79756000D01*
G37*
X116459000Y-80772000D02*
X117348000Y-80772000D01*
X117348000Y-81407000D01*
X116459000Y-81407000D01*
X116459000Y-80772000D01*
G36*
X116459000Y-80772000D02*
G01*
X117348000Y-80772000D01*
X117348000Y-81407000D01*
X116459000Y-81407000D01*
X116459000Y-80772000D01*
G37*
D11*
X120632316Y-79724533D02*
X120565649Y-79724533D01*
X120565649Y-79724533D02*
X120498982Y-79757866D01*
X120498982Y-79757866D02*
X120465649Y-79791200D01*
X120465649Y-79791200D02*
X120432316Y-79857866D01*
X120432316Y-79857866D02*
X120398982Y-79991200D01*
X120398982Y-79991200D02*
X120398982Y-80157866D01*
X120398982Y-80157866D02*
X120432316Y-80291200D01*
X120432316Y-80291200D02*
X120465649Y-80357866D01*
X120465649Y-80357866D02*
X120498982Y-80391200D01*
X120498982Y-80391200D02*
X120565649Y-80424533D01*
X120565649Y-80424533D02*
X120632316Y-80424533D01*
X120632316Y-80424533D02*
X120698982Y-80391200D01*
X120698982Y-80391200D02*
X120732316Y-80357866D01*
X120732316Y-80357866D02*
X120765649Y-80291200D01*
X120765649Y-80291200D02*
X120798982Y-80157866D01*
X120798982Y-80157866D02*
X120798982Y-79991200D01*
X120798982Y-79991200D02*
X120765649Y-79857866D01*
X120765649Y-79857866D02*
X120732316Y-79791200D01*
X120732316Y-79791200D02*
X120698982Y-79757866D01*
X120698982Y-79757866D02*
X120632316Y-79724533D01*
X120098982Y-80157866D02*
X119565649Y-80157866D01*
X118898982Y-79724533D02*
X119232315Y-79724533D01*
X119232315Y-79724533D02*
X119265648Y-80057866D01*
X119265648Y-80057866D02*
X119232315Y-80024533D01*
X119232315Y-80024533D02*
X119165648Y-79991200D01*
X119165648Y-79991200D02*
X118998982Y-79991200D01*
X118998982Y-79991200D02*
X118932315Y-80024533D01*
X118932315Y-80024533D02*
X118898982Y-80057866D01*
X118898982Y-80057866D02*
X118865648Y-80124533D01*
X118865648Y-80124533D02*
X118865648Y-80291200D01*
X118865648Y-80291200D02*
X118898982Y-80357866D01*
X118898982Y-80357866D02*
X118932315Y-80391200D01*
X118932315Y-80391200D02*
X118998982Y-80424533D01*
X118998982Y-80424533D02*
X119165648Y-80424533D01*
X119165648Y-80424533D02*
X119232315Y-80391200D01*
X119232315Y-80391200D02*
X119265648Y-80357866D01*
X118598981Y-80224533D02*
X118265648Y-80224533D01*
X118665648Y-80424533D02*
X118432315Y-79724533D01*
X118432315Y-79724533D02*
X118198981Y-80424533D01*
D12*
X137454407Y-81534000D02*
G75*
G02*
X137224803Y-81534000I-114802J0D01*
G01*
X137224803Y-81534000D02*
G75*
G02*
X137454407Y-81534000I114802J0D01*
G01*
X143243802Y-81661000D02*
G75*
G02*
X143014198Y-81661000I-114802J0D01*
G01*
X143014198Y-81661000D02*
G75*
G02*
X143243802Y-81661000I114802J0D01*
G01*
X139687802Y-78232000D02*
G75*
G02*
X139458198Y-78232000I-114802J0D01*
G01*
X139458198Y-78232000D02*
G75*
G02*
X139687802Y-78232000I114802J0D01*
G01*
X132575802Y-78149381D02*
G75*
G02*
X132346198Y-78149381I-114802J0D01*
G01*
X132346198Y-78149381D02*
G75*
G02*
X132575802Y-78149381I114802J0D01*
G01*
D13*
X130429000Y-78143043D02*
X132461000Y-78149381D01*
X140843000Y-78232000D02*
X139573000Y-78232000D01*
X135324936Y-81534000D02*
X137414000Y-81534000D01*
X143129000Y-76581000D02*
X145415000Y-76581000D01*
X145415000Y-79883000D01*
X143129000Y-79883000D01*
X143129000Y-76581000D01*
X140843000Y-76581000D02*
X145415000Y-76581000D01*
X145415000Y-79883000D01*
X140843000Y-79883000D01*
X140843000Y-76581000D01*
D10*
X130295528Y-78460543D02*
X131311528Y-78460543D01*
X131311528Y-79095543D01*
X130295528Y-79095543D01*
X130295528Y-78460543D01*
G36*
X130295528Y-78460543D02*
G01*
X131311528Y-78460543D01*
X131311528Y-79095543D01*
X130295528Y-79095543D01*
X130295528Y-78460543D01*
G37*
X130175000Y-77781064D02*
X131438528Y-77781064D01*
X131438528Y-78505021D01*
X130175000Y-78505021D01*
X130175000Y-77781064D01*
G36*
X130175000Y-77781064D02*
G01*
X131438528Y-77781064D01*
X131438528Y-78505021D01*
X130175000Y-78505021D01*
X130175000Y-77781064D01*
G37*
X130175000Y-79032043D02*
X131438528Y-79032043D01*
X131438528Y-79756000D01*
X130175000Y-79756000D01*
X130175000Y-79032043D01*
G36*
X130175000Y-79032043D02*
G01*
X131438528Y-79032043D01*
X131438528Y-79756000D01*
X130175000Y-79756000D01*
X130175000Y-79032043D01*
G37*
D13*
X144272000Y-79883000D02*
X143129000Y-81661000D01*
D10*
X134137457Y-81019528D02*
X134772457Y-81019528D01*
X134772457Y-82035528D01*
X134137457Y-82035528D01*
X134137457Y-81019528D01*
G36*
X134137457Y-81019528D02*
G01*
X134772457Y-81019528D01*
X134772457Y-82035528D01*
X134137457Y-82035528D01*
X134137457Y-81019528D01*
G37*
X134727979Y-80899000D02*
X135451936Y-80899000D01*
X135451936Y-82162528D01*
X134727979Y-82162528D01*
X134727979Y-80899000D01*
G36*
X134727979Y-80899000D02*
G01*
X135451936Y-80899000D01*
X135451936Y-82162528D01*
X134727979Y-82162528D01*
X134727979Y-80899000D01*
G37*
X133477000Y-80899000D02*
X134200957Y-80899000D01*
X134200957Y-82162528D01*
X133477000Y-82162528D01*
X133477000Y-80899000D01*
G36*
X133477000Y-80899000D02*
G01*
X134200957Y-80899000D01*
X134200957Y-82162528D01*
X133477000Y-82162528D01*
X133477000Y-80899000D01*
G37*
X143764000Y-73850500D02*
X144780000Y-73850500D01*
X144780000Y-74485500D01*
X143764000Y-74485500D01*
X143764000Y-73850500D01*
G36*
X143764000Y-73850500D02*
G01*
X144780000Y-73850500D01*
X144780000Y-74485500D01*
X143764000Y-74485500D01*
X143764000Y-73850500D01*
G37*
X143643472Y-73171021D02*
X144907000Y-73171021D01*
X144907000Y-73894978D01*
X143643472Y-73894978D01*
X143643472Y-73171021D01*
G36*
X143643472Y-73171021D02*
G01*
X144907000Y-73171021D01*
X144907000Y-73894978D01*
X143643472Y-73894978D01*
X143643472Y-73171021D01*
G37*
X143643472Y-74422000D02*
X144907000Y-74422000D01*
X144907000Y-75145957D01*
X143643472Y-75145957D01*
X143643472Y-74422000D01*
G36*
X143643472Y-74422000D02*
G01*
X144907000Y-74422000D01*
X144907000Y-75145957D01*
X143643472Y-75145957D01*
X143643472Y-74422000D01*
G37*
D11*
X142463649Y-74582533D02*
X142696982Y-74249200D01*
X142863649Y-74582533D02*
X142863649Y-73882533D01*
X142863649Y-73882533D02*
X142596982Y-73882533D01*
X142596982Y-73882533D02*
X142530316Y-73915866D01*
X142530316Y-73915866D02*
X142496982Y-73949200D01*
X142496982Y-73949200D02*
X142463649Y-74015866D01*
X142463649Y-74015866D02*
X142463649Y-74115866D01*
X142463649Y-74115866D02*
X142496982Y-74182533D01*
X142496982Y-74182533D02*
X142530316Y-74215866D01*
X142530316Y-74215866D02*
X142596982Y-74249200D01*
X142596982Y-74249200D02*
X142863649Y-74249200D01*
X141896982Y-74549200D02*
X141963649Y-74582533D01*
X141963649Y-74582533D02*
X142096982Y-74582533D01*
X142096982Y-74582533D02*
X142163649Y-74549200D01*
X142163649Y-74549200D02*
X142196982Y-74482533D01*
X142196982Y-74482533D02*
X142196982Y-74215866D01*
X142196982Y-74215866D02*
X142163649Y-74149200D01*
X142163649Y-74149200D02*
X142096982Y-74115866D01*
X142096982Y-74115866D02*
X141963649Y-74115866D01*
X141963649Y-74115866D02*
X141896982Y-74149200D01*
X141896982Y-74149200D02*
X141863649Y-74215866D01*
X141863649Y-74215866D02*
X141863649Y-74282533D01*
X141863649Y-74282533D02*
X142196982Y-74349200D01*
X141596982Y-74549200D02*
X141530316Y-74582533D01*
X141530316Y-74582533D02*
X141396982Y-74582533D01*
X141396982Y-74582533D02*
X141330316Y-74549200D01*
X141330316Y-74549200D02*
X141296982Y-74482533D01*
X141296982Y-74482533D02*
X141296982Y-74449200D01*
X141296982Y-74449200D02*
X141330316Y-74382533D01*
X141330316Y-74382533D02*
X141396982Y-74349200D01*
X141396982Y-74349200D02*
X141496982Y-74349200D01*
X141496982Y-74349200D02*
X141563649Y-74315866D01*
X141563649Y-74315866D02*
X141596982Y-74249200D01*
X141596982Y-74249200D02*
X141596982Y-74215866D01*
X141596982Y-74215866D02*
X141563649Y-74149200D01*
X141563649Y-74149200D02*
X141496982Y-74115866D01*
X141496982Y-74115866D02*
X141396982Y-74115866D01*
X141396982Y-74115866D02*
X141330316Y-74149200D01*
X140730315Y-74549200D02*
X140796982Y-74582533D01*
X140796982Y-74582533D02*
X140930315Y-74582533D01*
X140930315Y-74582533D02*
X140996982Y-74549200D01*
X140996982Y-74549200D02*
X141030315Y-74482533D01*
X141030315Y-74482533D02*
X141030315Y-74215866D01*
X141030315Y-74215866D02*
X140996982Y-74149200D01*
X140996982Y-74149200D02*
X140930315Y-74115866D01*
X140930315Y-74115866D02*
X140796982Y-74115866D01*
X140796982Y-74115866D02*
X140730315Y-74149200D01*
X140730315Y-74149200D02*
X140696982Y-74215866D01*
X140696982Y-74215866D02*
X140696982Y-74282533D01*
X140696982Y-74282533D02*
X141030315Y-74349200D01*
X140496982Y-74115866D02*
X140230315Y-74115866D01*
X140396982Y-73882533D02*
X140396982Y-74482533D01*
X140396982Y-74482533D02*
X140363649Y-74549200D01*
X140363649Y-74549200D02*
X140296982Y-74582533D01*
X140296982Y-74582533D02*
X140230315Y-74582533D01*
D10*
X141481236Y-77216000D02*
X142744764Y-77216000D01*
X142744764Y-77939957D01*
X141481236Y-77939957D01*
X141481236Y-77216000D01*
G36*
X141481236Y-77216000D02*
G01*
X142744764Y-77216000D01*
X142744764Y-77939957D01*
X141481236Y-77939957D01*
X141481236Y-77216000D01*
G37*
X141481236Y-78466979D02*
X142744764Y-78466979D01*
X142744764Y-79190936D01*
X141481236Y-79190936D01*
X141481236Y-78466979D01*
G36*
X141481236Y-78466979D02*
G01*
X142744764Y-78466979D01*
X142744764Y-79190936D01*
X141481236Y-79190936D01*
X141481236Y-78466979D01*
G37*
D11*
X138926649Y-78252866D02*
X138393316Y-78252866D01*
X138659982Y-78519533D02*
X138659982Y-77986200D01*
X137559982Y-77786200D02*
X138159982Y-78686200D01*
X137326649Y-78252866D02*
X136793316Y-78252866D01*
X136493315Y-77886200D02*
X136459982Y-77852866D01*
X136459982Y-77852866D02*
X136393315Y-77819533D01*
X136393315Y-77819533D02*
X136226649Y-77819533D01*
X136226649Y-77819533D02*
X136159982Y-77852866D01*
X136159982Y-77852866D02*
X136126649Y-77886200D01*
X136126649Y-77886200D02*
X136093315Y-77952866D01*
X136093315Y-77952866D02*
X136093315Y-78019533D01*
X136093315Y-78019533D02*
X136126649Y-78119533D01*
X136126649Y-78119533D02*
X136526649Y-78519533D01*
X136526649Y-78519533D02*
X136093315Y-78519533D01*
X135459982Y-77819533D02*
X135793315Y-77819533D01*
X135793315Y-77819533D02*
X135826648Y-78152866D01*
X135826648Y-78152866D02*
X135793315Y-78119533D01*
X135793315Y-78119533D02*
X135726648Y-78086200D01*
X135726648Y-78086200D02*
X135559982Y-78086200D01*
X135559982Y-78086200D02*
X135493315Y-78119533D01*
X135493315Y-78119533D02*
X135459982Y-78152866D01*
X135459982Y-78152866D02*
X135426648Y-78219533D01*
X135426648Y-78219533D02*
X135426648Y-78386200D01*
X135426648Y-78386200D02*
X135459982Y-78452866D01*
X135459982Y-78452866D02*
X135493315Y-78486200D01*
X135493315Y-78486200D02*
X135559982Y-78519533D01*
X135559982Y-78519533D02*
X135726648Y-78519533D01*
X135726648Y-78519533D02*
X135793315Y-78486200D01*
X135793315Y-78486200D02*
X135826648Y-78452866D01*
X134993315Y-77819533D02*
X134926648Y-77819533D01*
X134926648Y-77819533D02*
X134859981Y-77852866D01*
X134859981Y-77852866D02*
X134826648Y-77886200D01*
X134826648Y-77886200D02*
X134793315Y-77952866D01*
X134793315Y-77952866D02*
X134759981Y-78086200D01*
X134759981Y-78086200D02*
X134759981Y-78252866D01*
X134759981Y-78252866D02*
X134793315Y-78386200D01*
X134793315Y-78386200D02*
X134826648Y-78452866D01*
X134826648Y-78452866D02*
X134859981Y-78486200D01*
X134859981Y-78486200D02*
X134926648Y-78519533D01*
X134926648Y-78519533D02*
X134993315Y-78519533D01*
X134993315Y-78519533D02*
X135059981Y-78486200D01*
X135059981Y-78486200D02*
X135093315Y-78452866D01*
X135093315Y-78452866D02*
X135126648Y-78386200D01*
X135126648Y-78386200D02*
X135159981Y-78252866D01*
X135159981Y-78252866D02*
X135159981Y-78086200D01*
X135159981Y-78086200D02*
X135126648Y-77952866D01*
X135126648Y-77952866D02*
X135093315Y-77886200D01*
X135093315Y-77886200D02*
X135059981Y-77852866D01*
X135059981Y-77852866D02*
X134993315Y-77819533D01*
X134459981Y-78519533D02*
X134459981Y-78052866D01*
X134459981Y-78119533D02*
X134426648Y-78086200D01*
X134426648Y-78086200D02*
X134359981Y-78052866D01*
X134359981Y-78052866D02*
X134259981Y-78052866D01*
X134259981Y-78052866D02*
X134193314Y-78086200D01*
X134193314Y-78086200D02*
X134159981Y-78152866D01*
X134159981Y-78152866D02*
X134159981Y-78519533D01*
X134159981Y-78152866D02*
X134126648Y-78086200D01*
X134126648Y-78086200D02*
X134059981Y-78052866D01*
X134059981Y-78052866D02*
X133959981Y-78052866D01*
X133959981Y-78052866D02*
X133893314Y-78086200D01*
X133893314Y-78086200D02*
X133859981Y-78152866D01*
X133859981Y-78152866D02*
X133859981Y-78519533D01*
X133559981Y-78319533D02*
X133226648Y-78319533D01*
X133626648Y-78519533D02*
X133393315Y-77819533D01*
X133393315Y-77819533D02*
X133159981Y-78519533D01*
D10*
X143643472Y-78486000D02*
X144907000Y-78486000D01*
X144907000Y-79209957D01*
X143643472Y-79209957D01*
X143643472Y-78486000D01*
G36*
X143643472Y-78486000D02*
G01*
X144907000Y-78486000D01*
X144907000Y-79209957D01*
X143643472Y-79209957D01*
X143643472Y-78486000D01*
G37*
X143764000Y-77914500D02*
X144780000Y-77914500D01*
X144780000Y-78549500D01*
X143764000Y-78549500D01*
X143764000Y-77914500D01*
G36*
X143764000Y-77914500D02*
G01*
X144780000Y-77914500D01*
X144780000Y-78549500D01*
X143764000Y-78549500D01*
X143764000Y-77914500D01*
G37*
X143643472Y-77235021D02*
X144907000Y-77235021D01*
X144907000Y-77958978D01*
X143643472Y-77958978D01*
X143643472Y-77235021D01*
G36*
X143643472Y-77235021D02*
G01*
X144907000Y-77235021D01*
X144907000Y-77958978D01*
X143643472Y-77958978D01*
X143643472Y-77235021D01*
G37*
D11*
X142482649Y-81681866D02*
X141949316Y-81681866D01*
X142215982Y-81948533D02*
X142215982Y-81415200D01*
X141115982Y-81215200D02*
X141715982Y-82115200D01*
X140882649Y-81681866D02*
X140349316Y-81681866D01*
X140049315Y-81315200D02*
X140015982Y-81281866D01*
X140015982Y-81281866D02*
X139949315Y-81248533D01*
X139949315Y-81248533D02*
X139782649Y-81248533D01*
X139782649Y-81248533D02*
X139715982Y-81281866D01*
X139715982Y-81281866D02*
X139682649Y-81315200D01*
X139682649Y-81315200D02*
X139649315Y-81381866D01*
X139649315Y-81381866D02*
X139649315Y-81448533D01*
X139649315Y-81448533D02*
X139682649Y-81548533D01*
X139682649Y-81548533D02*
X140082649Y-81948533D01*
X140082649Y-81948533D02*
X139649315Y-81948533D01*
X139349315Y-81881866D02*
X139315982Y-81915200D01*
X139315982Y-81915200D02*
X139349315Y-81948533D01*
X139349315Y-81948533D02*
X139382648Y-81915200D01*
X139382648Y-81915200D02*
X139349315Y-81881866D01*
X139349315Y-81881866D02*
X139349315Y-81948533D01*
X138682649Y-81248533D02*
X139015982Y-81248533D01*
X139015982Y-81248533D02*
X139049315Y-81581866D01*
X139049315Y-81581866D02*
X139015982Y-81548533D01*
X139015982Y-81548533D02*
X138949315Y-81515200D01*
X138949315Y-81515200D02*
X138782649Y-81515200D01*
X138782649Y-81515200D02*
X138715982Y-81548533D01*
X138715982Y-81548533D02*
X138682649Y-81581866D01*
X138682649Y-81581866D02*
X138649315Y-81648533D01*
X138649315Y-81648533D02*
X138649315Y-81815200D01*
X138649315Y-81815200D02*
X138682649Y-81881866D01*
X138682649Y-81881866D02*
X138715982Y-81915200D01*
X138715982Y-81915200D02*
X138782649Y-81948533D01*
X138782649Y-81948533D02*
X138949315Y-81948533D01*
X138949315Y-81948533D02*
X139015982Y-81915200D01*
X139015982Y-81915200D02*
X139049315Y-81881866D01*
X138382648Y-81748533D02*
X138049315Y-81748533D01*
X138449315Y-81948533D02*
X138215982Y-81248533D01*
X138215982Y-81248533D02*
X137982648Y-81948533D01*
X124977316Y-76755866D02*
X124877316Y-76789200D01*
X124877316Y-76789200D02*
X124843982Y-76822533D01*
X124843982Y-76822533D02*
X124810649Y-76889200D01*
X124810649Y-76889200D02*
X124810649Y-76989200D01*
X124810649Y-76989200D02*
X124843982Y-77055866D01*
X124843982Y-77055866D02*
X124877316Y-77089200D01*
X124877316Y-77089200D02*
X124943982Y-77122533D01*
X124943982Y-77122533D02*
X125210649Y-77122533D01*
X125210649Y-77122533D02*
X125210649Y-76422533D01*
X125210649Y-76422533D02*
X124977316Y-76422533D01*
X124977316Y-76422533D02*
X124910649Y-76455866D01*
X124910649Y-76455866D02*
X124877316Y-76489200D01*
X124877316Y-76489200D02*
X124843982Y-76555866D01*
X124843982Y-76555866D02*
X124843982Y-76622533D01*
X124843982Y-76622533D02*
X124877316Y-76689200D01*
X124877316Y-76689200D02*
X124910649Y-76722533D01*
X124910649Y-76722533D02*
X124977316Y-76755866D01*
X124977316Y-76755866D02*
X125210649Y-76755866D01*
X124510649Y-77122533D02*
X124510649Y-76655866D01*
X124510649Y-76422533D02*
X124543982Y-76455866D01*
X124543982Y-76455866D02*
X124510649Y-76489200D01*
X124510649Y-76489200D02*
X124477316Y-76455866D01*
X124477316Y-76455866D02*
X124510649Y-76422533D01*
X124510649Y-76422533D02*
X124510649Y-76489200D01*
X124177316Y-76855866D02*
X123643983Y-76855866D01*
X123010649Y-77122533D02*
X123010649Y-76422533D01*
X123010649Y-77089200D02*
X123077316Y-77122533D01*
X123077316Y-77122533D02*
X123210649Y-77122533D01*
X123210649Y-77122533D02*
X123277316Y-77089200D01*
X123277316Y-77089200D02*
X123310649Y-77055866D01*
X123310649Y-77055866D02*
X123343982Y-76989200D01*
X123343982Y-76989200D02*
X123343982Y-76789200D01*
X123343982Y-76789200D02*
X123310649Y-76722533D01*
X123310649Y-76722533D02*
X123277316Y-76689200D01*
X123277316Y-76689200D02*
X123210649Y-76655866D01*
X123210649Y-76655866D02*
X123077316Y-76655866D01*
X123077316Y-76655866D02*
X123010649Y-76689200D01*
X122677316Y-77122533D02*
X122677316Y-76655866D01*
X122677316Y-76422533D02*
X122710649Y-76455866D01*
X122710649Y-76455866D02*
X122677316Y-76489200D01*
X122677316Y-76489200D02*
X122643983Y-76455866D01*
X122643983Y-76455866D02*
X122677316Y-76422533D01*
X122677316Y-76422533D02*
X122677316Y-76489200D01*
X122343983Y-77122533D02*
X122343983Y-76655866D01*
X122343983Y-76789200D02*
X122310650Y-76722533D01*
X122310650Y-76722533D02*
X122277316Y-76689200D01*
X122277316Y-76689200D02*
X122210650Y-76655866D01*
X122210650Y-76655866D02*
X122143983Y-76655866D01*
X121643983Y-77089200D02*
X121710650Y-77122533D01*
X121710650Y-77122533D02*
X121843983Y-77122533D01*
X121843983Y-77122533D02*
X121910650Y-77089200D01*
X121910650Y-77089200D02*
X121943983Y-77022533D01*
X121943983Y-77022533D02*
X121943983Y-76755866D01*
X121943983Y-76755866D02*
X121910650Y-76689200D01*
X121910650Y-76689200D02*
X121843983Y-76655866D01*
X121843983Y-76655866D02*
X121710650Y-76655866D01*
X121710650Y-76655866D02*
X121643983Y-76689200D01*
X121643983Y-76689200D02*
X121610650Y-76755866D01*
X121610650Y-76755866D02*
X121610650Y-76822533D01*
X121610650Y-76822533D02*
X121943983Y-76889200D01*
X121010650Y-77089200D02*
X121077317Y-77122533D01*
X121077317Y-77122533D02*
X121210650Y-77122533D01*
X121210650Y-77122533D02*
X121277317Y-77089200D01*
X121277317Y-77089200D02*
X121310650Y-77055866D01*
X121310650Y-77055866D02*
X121343983Y-76989200D01*
X121343983Y-76989200D02*
X121343983Y-76789200D01*
X121343983Y-76789200D02*
X121310650Y-76722533D01*
X121310650Y-76722533D02*
X121277317Y-76689200D01*
X121277317Y-76689200D02*
X121210650Y-76655866D01*
X121210650Y-76655866D02*
X121077317Y-76655866D01*
X121077317Y-76655866D02*
X121010650Y-76689200D01*
X120810650Y-76655866D02*
X120543983Y-76655866D01*
X120710650Y-76422533D02*
X120710650Y-77022533D01*
X120710650Y-77022533D02*
X120677317Y-77089200D01*
X120677317Y-77089200D02*
X120610650Y-77122533D01*
X120610650Y-77122533D02*
X120543983Y-77122533D01*
X120310650Y-77122533D02*
X120310650Y-76655866D01*
X120310650Y-76422533D02*
X120343983Y-76455866D01*
X120343983Y-76455866D02*
X120310650Y-76489200D01*
X120310650Y-76489200D02*
X120277317Y-76455866D01*
X120277317Y-76455866D02*
X120310650Y-76422533D01*
X120310650Y-76422533D02*
X120310650Y-76489200D01*
X119877317Y-77122533D02*
X119943984Y-77089200D01*
X119943984Y-77089200D02*
X119977317Y-77055866D01*
X119977317Y-77055866D02*
X120010650Y-76989200D01*
X120010650Y-76989200D02*
X120010650Y-76789200D01*
X120010650Y-76789200D02*
X119977317Y-76722533D01*
X119977317Y-76722533D02*
X119943984Y-76689200D01*
X119943984Y-76689200D02*
X119877317Y-76655866D01*
X119877317Y-76655866D02*
X119777317Y-76655866D01*
X119777317Y-76655866D02*
X119710650Y-76689200D01*
X119710650Y-76689200D02*
X119677317Y-76722533D01*
X119677317Y-76722533D02*
X119643984Y-76789200D01*
X119643984Y-76789200D02*
X119643984Y-76989200D01*
X119643984Y-76989200D02*
X119677317Y-77055866D01*
X119677317Y-77055866D02*
X119710650Y-77089200D01*
X119710650Y-77089200D02*
X119777317Y-77122533D01*
X119777317Y-77122533D02*
X119877317Y-77122533D01*
X119343984Y-76655866D02*
X119343984Y-77122533D01*
X119343984Y-76722533D02*
X119310651Y-76689200D01*
X119310651Y-76689200D02*
X119243984Y-76655866D01*
X119243984Y-76655866D02*
X119143984Y-76655866D01*
X119143984Y-76655866D02*
X119077317Y-76689200D01*
X119077317Y-76689200D02*
X119043984Y-76755866D01*
X119043984Y-76755866D02*
X119043984Y-77122533D01*
X118410651Y-77122533D02*
X118410651Y-76755866D01*
X118410651Y-76755866D02*
X118443984Y-76689200D01*
X118443984Y-76689200D02*
X118510651Y-76655866D01*
X118510651Y-76655866D02*
X118643984Y-76655866D01*
X118643984Y-76655866D02*
X118710651Y-76689200D01*
X118410651Y-77089200D02*
X118477318Y-77122533D01*
X118477318Y-77122533D02*
X118643984Y-77122533D01*
X118643984Y-77122533D02*
X118710651Y-77089200D01*
X118710651Y-77089200D02*
X118743984Y-77022533D01*
X118743984Y-77022533D02*
X118743984Y-76955866D01*
X118743984Y-76955866D02*
X118710651Y-76889200D01*
X118710651Y-76889200D02*
X118643984Y-76855866D01*
X118643984Y-76855866D02*
X118477318Y-76855866D01*
X118477318Y-76855866D02*
X118410651Y-76822533D01*
X117977318Y-77122533D02*
X118043985Y-77089200D01*
X118043985Y-77089200D02*
X118077318Y-77022533D01*
X118077318Y-77022533D02*
X118077318Y-76422533D01*
D10*
X116604258Y-75522514D02*
X117112258Y-75522514D01*
X117112258Y-76157514D01*
X116604258Y-76157514D01*
X116604258Y-75522514D01*
G36*
X116604258Y-75522514D02*
G01*
X117112258Y-75522514D01*
X117112258Y-76157514D01*
X116604258Y-76157514D01*
X116604258Y-75522514D01*
G37*
X116413758Y-76919514D02*
X117302758Y-76919514D01*
X117302758Y-77554514D01*
X116413758Y-77554514D01*
X116413758Y-76919514D01*
X116413758Y-75903514D02*
X117302758Y-75903514D01*
X117302758Y-76538514D01*
X116413758Y-76538514D01*
X116413758Y-75903514D01*
G36*
X116413758Y-75903514D02*
G01*
X117302758Y-75903514D01*
X117302758Y-76538514D01*
X116413758Y-76538514D01*
X116413758Y-75903514D01*
G37*
X116413758Y-74887514D02*
X117302758Y-74887514D01*
X117302758Y-75522514D01*
X116413758Y-75522514D01*
X116413758Y-74887514D01*
G36*
X116413758Y-74887514D02*
G01*
X117302758Y-74887514D01*
X117302758Y-75522514D01*
X116413758Y-75522514D01*
X116413758Y-74887514D01*
G37*
D14*
X129650000Y-87884000D03*
X129650000Y-64516000D03*
X134476000Y-86868000D03*
X139476000Y-84368000D03*
X105026000Y-73406000D03*
X105026000Y-79186000D03*
D15*
X105526000Y-71976000D03*
D16*
X101346000Y-71976000D03*
D15*
X105526000Y-80616000D03*
D16*
X101346000Y-80616000D03*
D14*
X129650000Y-67056000D03*
X113309000Y-72400000D03*
X113309000Y-74940000D03*
X113309000Y-77480000D03*
X113309000Y-80020000D03*
X129650000Y-85344000D03*
X109499000Y-72380000D03*
X109499000Y-74920000D03*
X109499000Y-77460000D03*
X109499000Y-80000000D03*
X134476000Y-66368000D03*
X139476000Y-63868000D03*
M02*
