%TF.GenerationSoftware,KiCad,Pcbnew,8.0.6*%
%TF.CreationDate,2025-01-03T23:58:44+00:00*%
%TF.ProjectId,Mini_Ammete,4d696e69-5f41-46d6-9d65-74652e6b6963,rev?*%
%TF.SameCoordinates,Original*%
%TF.FileFunction,Soldermask,Bot*%
%TF.FilePolarity,Negative*%
%FSLAX46Y46*%
G04 Gerber Fmt 4.6, Leading zero omitted, Abs format (unit mm)*
G04 Created by KiCad (PCBNEW 8.0.6) date 2025-01-03 23:58:44*
%MOMM*%
%LPD*%
G01*
G04 APERTURE LIST*
G04 Aperture macros list*
%AMRoundRect*
0 Rectangle with rounded corners*
0 $1 Rounding radius*
0 $2 $3 $4 $5 $6 $7 $8 $9 X,Y pos of 4 corners*
0 Add a 4 corners polygon primitive as box body*
4,1,4,$2,$3,$4,$5,$6,$7,$8,$9,$2,$3,0*
0 Add four circle primitives for the rounded corners*
1,1,$1+$1,$2,$3*
1,1,$1+$1,$4,$5*
1,1,$1+$1,$6,$7*
1,1,$1+$1,$8,$9*
0 Add four rect primitives between the rounded corners*
20,1,$1+$1,$2,$3,$4,$5,0*
20,1,$1+$1,$4,$5,$6,$7,0*
20,1,$1+$1,$6,$7,$8,$9,0*
20,1,$1+$1,$8,$9,$2,$3,0*%
G04 Aperture macros list end*
%ADD10C,0.000000*%
%ADD11R,1.700000X1.700000*%
%ADD12C,1.712000*%
%ADD13RoundRect,0.102000X0.754000X-0.754000X0.754000X0.754000X-0.754000X0.754000X-0.754000X-0.754000X0*%
%ADD14C,0.650000*%
%ADD15O,2.100000X1.000000*%
%ADD16O,1.600000X1.000000*%
%ADD17O,1.700000X1.700000*%
G04 APERTURE END LIST*
D10*
G36*
X153111683Y-83573167D02*
G01*
X153436249Y-83615897D01*
X153752461Y-83700626D01*
X154054908Y-83825904D01*
X154338416Y-83989587D01*
X154598133Y-84188875D01*
X154829616Y-84420358D01*
X155028904Y-84680075D01*
X155192587Y-84963583D01*
X155317865Y-85266030D01*
X155402594Y-85582242D01*
X155445324Y-85906808D01*
X155448000Y-86070491D01*
X155448000Y-87420491D01*
X155445324Y-87584174D01*
X155402594Y-87908740D01*
X155317865Y-88224952D01*
X155192587Y-88527399D01*
X155028904Y-88810907D01*
X154829616Y-89070624D01*
X154598133Y-89302107D01*
X154338416Y-89501395D01*
X154054908Y-89665078D01*
X153752461Y-89790356D01*
X153436249Y-89875085D01*
X153111683Y-89917815D01*
X152948000Y-89920491D01*
X151130000Y-89920491D01*
X151130000Y-83570491D01*
X152948000Y-83570491D01*
X153111683Y-83573167D01*
G37*
G36*
X153111683Y-62468960D02*
G01*
X153436249Y-62511690D01*
X153752461Y-62596419D01*
X154054908Y-62721697D01*
X154338416Y-62885380D01*
X154598133Y-63084668D01*
X154829616Y-63316151D01*
X155028904Y-63575868D01*
X155192587Y-63859376D01*
X155317865Y-64161823D01*
X155402594Y-64478035D01*
X155445324Y-64802601D01*
X155448000Y-64966284D01*
X155448000Y-66316284D01*
X155445324Y-66479967D01*
X155402594Y-66804533D01*
X155317865Y-67120745D01*
X155192587Y-67423192D01*
X155028904Y-67706700D01*
X154829616Y-67966417D01*
X154598133Y-68197900D01*
X154338416Y-68397188D01*
X154054908Y-68560871D01*
X153752461Y-68686149D01*
X153436249Y-68770878D01*
X153111683Y-68813608D01*
X152948000Y-68816284D01*
X151130000Y-68816284D01*
X151130000Y-62466284D01*
X152948000Y-62466284D01*
X153111683Y-62468960D01*
G37*
D11*
%TO.C,J9*%
X129650000Y-87884000D03*
%TD*%
%TO.C,J8*%
X129650000Y-64516000D03*
%TD*%
D12*
%TO.C,J7*%
X134476000Y-86868000D03*
D13*
X139476000Y-84368000D03*
%TD*%
D14*
%TO.C,J1*%
X105026000Y-73406000D03*
X105026000Y-79186000D03*
D15*
X105526000Y-71976000D03*
D16*
X101346000Y-71976000D03*
D15*
X105526000Y-80616000D03*
D16*
X101346000Y-80616000D03*
%TD*%
D11*
%TO.C,J5*%
X129650000Y-67056000D03*
%TD*%
%TO.C,J2*%
X113309000Y-72400000D03*
D17*
X113309000Y-74940000D03*
X113309000Y-77480000D03*
X113309000Y-80020000D03*
%TD*%
D11*
%TO.C,J4*%
X129650000Y-85344000D03*
%TD*%
%TO.C,J3*%
X109499000Y-72380000D03*
D17*
X109499000Y-74920000D03*
X109499000Y-77460000D03*
X109499000Y-80000000D03*
%TD*%
D12*
%TO.C,J6*%
X134476000Y-66368000D03*
D13*
X139476000Y-63868000D03*
%TD*%
M02*
