%TF.GenerationSoftware,KiCad,Pcbnew,8.0.6*%
%TF.CreationDate,2025-01-03T23:58:44+00:00*%
%TF.ProjectId,Mini_Ammete,4d696e69-5f41-46d6-9d65-74652e6b6963,rev?*%
%TF.SameCoordinates,Original*%
%TF.FileFunction,Copper,L2,Bot*%
%TF.FilePolarity,Positive*%
%FSLAX46Y46*%
G04 Gerber Fmt 4.6, Leading zero omitted, Abs format (unit mm)*
G04 Created by KiCad (PCBNEW 8.0.6) date 2025-01-03 23:58:44*
%MOMM*%
%LPD*%
G01*
G04 APERTURE LIST*
%TA.AperFunction,ComponentPad*%
%ADD10R,1.700000X1.700000*%
%TD*%
%TA.AperFunction,ComponentPad*%
%ADD11C,1.508000*%
%TD*%
%TA.AperFunction,ComponentPad*%
%ADD12R,1.508000X1.508000*%
%TD*%
%TA.AperFunction,ComponentPad*%
%ADD13O,2.100000X1.000000*%
%TD*%
%TA.AperFunction,ComponentPad*%
%ADD14O,1.600000X1.000000*%
%TD*%
%TA.AperFunction,ComponentPad*%
%ADD15O,1.700000X1.700000*%
%TD*%
%TA.AperFunction,ViaPad*%
%ADD16C,0.600000*%
%TD*%
%TA.AperFunction,Conductor*%
%ADD17C,0.400000*%
%TD*%
%TA.AperFunction,Conductor*%
%ADD18C,0.200000*%
%TD*%
%TA.AperFunction,Conductor*%
%ADD19C,0.500000*%
%TD*%
%ADD20C,0.300000*%
%ADD21C,0.350000*%
%ADD22O,1.700000X0.600000*%
%ADD23O,1.200000X0.600000*%
G04 APERTURE END LIST*
D10*
%TO.P,J9,1,Pin_1*%
%TO.N,/+I*%
X129650000Y-87884000D03*
%TD*%
%TO.P,J8,1,Pin_1*%
%TO.N,/COM*%
X129650000Y-64516000D03*
%TD*%
D11*
%TO.P,J7,2,2*%
%TO.N,/+I*%
X134476000Y-86868000D03*
D12*
%TO.P,J7,1,1*%
X139476000Y-84368000D03*
%TD*%
D13*
%TO.P,J1,S1,SHIELD*%
%TO.N,GND*%
X105526000Y-71976000D03*
D14*
X101346000Y-71976000D03*
D13*
X105526000Y-80616000D03*
D14*
X101346000Y-80616000D03*
%TD*%
D10*
%TO.P,J5,1,Pin_1*%
%TO.N,/COM*%
X129650000Y-67056000D03*
%TD*%
%TO.P,J2,1,Pin_1*%
%TO.N,/SDA*%
X113309000Y-72400000D03*
D15*
%TO.P,J2,2,Pin_2*%
%TO.N,/SCK*%
X113309000Y-74940000D03*
%TO.P,J2,3,Pin_3*%
%TO.N,VCC*%
X113309000Y-77480000D03*
%TO.P,J2,4,Pin_4*%
%TO.N,GND*%
X113309000Y-80020000D03*
%TD*%
D10*
%TO.P,J4,1,Pin_1*%
%TO.N,/+I*%
X129650000Y-85344000D03*
%TD*%
%TO.P,J3,1,Pin_1*%
%TO.N,/SDA*%
X109499000Y-72380000D03*
D15*
%TO.P,J3,2,Pin_2*%
%TO.N,/SCK*%
X109499000Y-74920000D03*
%TO.P,J3,3,Pin_3*%
%TO.N,/RST*%
X109499000Y-77460000D03*
%TO.P,J3,4,Pin_4*%
%TO.N,GND*%
X109499000Y-80000000D03*
%TD*%
D11*
%TO.P,J6,2,2*%
%TO.N,/COM*%
X134476000Y-66368000D03*
D12*
%TO.P,J6,1,1*%
X139476000Y-63868000D03*
%TD*%
D16*
%TO.N,GND*%
X137922000Y-80391000D03*
%TO.N,VCC*%
X134493000Y-76454000D03*
X133604000Y-75819000D03*
X133604000Y-77089000D03*
X135509000Y-77089000D03*
X136398000Y-76454000D03*
%TO.N,Net-(U3B--)*%
X118364002Y-72237600D03*
%TO.N,/+I*%
X153162000Y-87630000D03*
X153162000Y-86106000D03*
%TO.N,/COM*%
X153162000Y-66548000D03*
X153162000Y-65786000D03*
%TO.N,/+I*%
X153162002Y-86868000D03*
%TO.N,/COM*%
X153162000Y-65024000D03*
%TO.N,GND*%
X125704000Y-73294514D03*
%TO.N,VCC*%
X107696000Y-73914000D03*
X107696000Y-78740000D03*
X122300994Y-78105000D03*
X135509000Y-75819000D03*
%TO.N,Net-(U3B--)*%
X122936008Y-74017463D03*
%TO.N,AIN*%
X140645000Y-80137000D03*
X126542911Y-82473911D03*
%TO.N,VREF*%
X122936000Y-75564980D03*
X116840000Y-73279006D03*
%TO.N,/SCK*%
X138684000Y-71628000D03*
%TO.N,/SDA*%
X142748000Y-71628038D03*
%TO.N,/RST*%
X111252005Y-81534005D03*
X144272000Y-72389984D03*
%TD*%
D17*
%TO.N,AIN*%
X140645000Y-80264000D02*
X140645000Y-80137000D01*
X138435090Y-82473910D02*
X140645000Y-80264000D01*
X126542910Y-82473910D02*
X138435090Y-82473910D01*
D18*
%TO.N,/RST*%
X114935000Y-81280000D02*
X114681000Y-81534000D01*
X138226800Y-81280000D02*
X114935000Y-81280000D01*
X111252010Y-81534000D02*
X111252005Y-81534005D01*
X144272000Y-75234800D02*
X138226800Y-81280000D01*
X144272000Y-72389984D02*
X144272000Y-75234800D01*
X114681000Y-81534000D02*
X111252010Y-81534000D01*
%TO.N,/SCK*%
X115316000Y-73355200D02*
X115316000Y-71628000D01*
X115925600Y-71018400D02*
X138074400Y-71018400D01*
X113731200Y-74940000D02*
X115316000Y-73355200D01*
X113309000Y-74940000D02*
X113731200Y-74940000D01*
X138074400Y-71018400D02*
X138684000Y-71628000D01*
%TO.N,/SDA*%
X140817562Y-69697600D02*
X142748000Y-71628038D01*
X113309000Y-72400000D02*
X113309000Y-70714000D01*
X114325400Y-69697600D02*
X140817562Y-69697600D01*
%TO.N,Net-(U3B--)*%
X120143865Y-74017463D02*
X118364002Y-72237600D01*
X122936008Y-74017463D02*
X120143865Y-74017463D01*
D19*
%TO.N,VREF*%
X122936000Y-75564980D02*
X119125974Y-75564980D01*
X119125974Y-75564980D02*
X116840000Y-73279006D01*
D18*
%TO.N,/SDA*%
X113309000Y-70714000D02*
X114325400Y-69697600D01*
%TO.N,/SCK*%
X115316000Y-71628000D02*
X115925600Y-71018400D01*
%TD*%
%TA.AperFunction,Conductor*%
%TO.N,GND*%
G36*
X127021644Y-66845552D02*
G01*
X127059386Y-66887782D01*
X127062114Y-66897772D01*
X127062627Y-66900349D01*
X127062627Y-66900350D01*
X127064777Y-66911158D01*
X127087005Y-67022906D01*
X127090806Y-67039210D01*
X127095000Y-67054861D01*
X127099859Y-67070879D01*
X127199745Y-67365134D01*
X127205632Y-67380776D01*
X127211846Y-67395780D01*
X127218732Y-67410977D01*
X127345739Y-67668523D01*
X127345742Y-67668528D01*
X127356195Y-67689726D01*
X127364063Y-67704447D01*
X127364071Y-67704460D01*
X127372181Y-67718507D01*
X127381010Y-67732705D01*
X127509385Y-67924832D01*
X127544495Y-67977378D01*
X127544501Y-67977386D01*
X127553653Y-67991083D01*
X127553662Y-67991096D01*
X127553663Y-67991097D01*
X127563399Y-68004685D01*
X127573273Y-68017553D01*
X127573283Y-68017565D01*
X127583876Y-68030473D01*
X127788778Y-68264118D01*
X127800209Y-68276323D01*
X127811675Y-68287789D01*
X127823880Y-68299220D01*
X128057525Y-68504122D01*
X128063984Y-68509422D01*
X128070446Y-68514726D01*
X128083314Y-68524600D01*
X128096905Y-68534338D01*
X128355294Y-68706988D01*
X128369492Y-68715818D01*
X128369494Y-68715819D01*
X128383535Y-68723926D01*
X128383539Y-68723928D01*
X128398284Y-68731809D01*
X128676996Y-68869255D01*
X128677005Y-68869259D01*
X128677013Y-68869263D01*
X128692219Y-68876152D01*
X128692230Y-68876156D01*
X128692231Y-68876157D01*
X128707217Y-68882364D01*
X128722860Y-68888252D01*
X129017131Y-68988143D01*
X129033129Y-68992996D01*
X129040962Y-68995095D01*
X129048788Y-68997192D01*
X129048792Y-68997192D01*
X129048796Y-68997194D01*
X129065079Y-69000991D01*
X129065092Y-69000994D01*
X129274699Y-69042687D01*
X129369861Y-69061616D01*
X129369866Y-69061616D01*
X129369872Y-69061618D01*
X129374099Y-69062315D01*
X129386359Y-69064339D01*
X129402440Y-69066456D01*
X129419077Y-69068095D01*
X129733246Y-69088687D01*
X129741581Y-69089097D01*
X129749691Y-69089363D01*
X129757398Y-69089489D01*
X129758062Y-69089500D01*
X129758067Y-69089500D01*
X146430378Y-69089500D01*
X146482704Y-69111174D01*
X146504378Y-69163500D01*
X146482704Y-69215826D01*
X146478837Y-69219426D01*
X146309058Y-69366537D01*
X146309054Y-69366541D01*
X146145079Y-69555775D01*
X146009701Y-69766427D01*
X145905681Y-69994195D01*
X145905679Y-69994200D01*
X145835137Y-70234443D01*
X145835135Y-70234455D01*
X145799500Y-70482302D01*
X145799500Y-71684877D01*
X145799502Y-71684898D01*
X145799502Y-71753204D01*
X145799503Y-71753210D01*
X145821424Y-71905661D01*
X145835146Y-72001084D01*
X145835147Y-72001088D01*
X145905703Y-72241355D01*
X145905704Y-72241360D01*
X145991838Y-72429945D01*
X146009739Y-72469138D01*
X146048341Y-72529197D01*
X146145136Y-72679796D01*
X146145141Y-72679802D01*
X146309135Y-72869036D01*
X146309146Y-72869047D01*
X146498399Y-73033010D01*
X146498404Y-73033014D01*
X146558459Y-73071600D01*
X146709085Y-73168382D01*
X146936885Y-73272386D01*
X147177169Y-73342909D01*
X147425044Y-73378515D01*
X147493576Y-73378505D01*
X147503614Y-73379400D01*
X147509403Y-73379293D01*
X147551944Y-73378507D01*
X147553100Y-73378496D01*
X147594423Y-73378491D01*
X147594425Y-73378490D01*
X147595134Y-73378490D01*
X147605060Y-73377528D01*
X148530230Y-73360468D01*
X148532000Y-73360588D01*
X148537396Y-73360471D01*
X148537398Y-73360472D01*
X148579290Y-73359569D01*
X148583772Y-73359609D01*
X148852184Y-73370273D01*
X148861167Y-73371183D01*
X149102057Y-73410600D01*
X149123972Y-73414186D01*
X149132805Y-73416193D01*
X149155093Y-73422715D01*
X149388385Y-73490983D01*
X149396895Y-73494050D01*
X149641419Y-73599507D01*
X149649493Y-73603592D01*
X149879302Y-73738136D01*
X149886824Y-73743182D01*
X150098465Y-73904788D01*
X150105314Y-73910716D01*
X150295620Y-74096967D01*
X150301694Y-74103687D01*
X150467824Y-74311803D01*
X150473024Y-74319203D01*
X150502999Y-74367963D01*
X150612488Y-74546068D01*
X150616750Y-74554060D01*
X150714785Y-74768553D01*
X150727439Y-74796237D01*
X150730694Y-74804692D01*
X150810969Y-75058599D01*
X150813165Y-75067386D01*
X150861817Y-75329199D01*
X150862924Y-75338190D01*
X150879361Y-75606233D01*
X150879500Y-75610762D01*
X150879500Y-76789263D01*
X150879365Y-76793731D01*
X150863369Y-77058173D01*
X150862292Y-77067043D01*
X150814943Y-77325427D01*
X150812804Y-77334104D01*
X150734658Y-77584887D01*
X150731490Y-77593242D01*
X150623680Y-77832794D01*
X150619527Y-77840706D01*
X150483636Y-78065504D01*
X150478560Y-78072858D01*
X150316564Y-78279637D01*
X150310639Y-78286326D01*
X150124893Y-78472080D01*
X150118204Y-78478006D01*
X149911428Y-78640011D01*
X149904075Y-78645087D01*
X149679275Y-78780991D01*
X149671362Y-78785144D01*
X149431827Y-78892958D01*
X149423472Y-78896127D01*
X149172677Y-78974286D01*
X149164001Y-78976424D01*
X148905632Y-79023781D01*
X148896761Y-79024859D01*
X148632579Y-79040848D01*
X148629471Y-79040970D01*
X148628490Y-79040988D01*
X148627185Y-79041000D01*
X148585084Y-79041001D01*
X148575400Y-79041935D01*
X147565430Y-79059951D01*
X147563958Y-79059851D01*
X147514335Y-79060863D01*
X147514147Y-79060866D01*
X147458986Y-79061850D01*
X147457134Y-79062068D01*
X147390728Y-79063468D01*
X147146819Y-79103170D01*
X147146816Y-79103171D01*
X146910919Y-79176738D01*
X146910904Y-79176743D01*
X146687669Y-79282726D01*
X146481533Y-79419018D01*
X146296580Y-79582921D01*
X146136496Y-79771171D01*
X146004443Y-79980043D01*
X146004442Y-79980044D01*
X145903034Y-80205409D01*
X145903031Y-80205416D01*
X145834296Y-80442763D01*
X145834293Y-80442778D01*
X145799581Y-80687432D01*
X145799581Y-80687438D01*
X145799536Y-80753891D01*
X145799500Y-80754270D01*
X145799500Y-81956701D01*
X145819981Y-82099147D01*
X145835135Y-82204543D01*
X145892160Y-82398756D01*
X145905679Y-82444797D01*
X146009691Y-82672554D01*
X146009698Y-82672567D01*
X146060447Y-82751534D01*
X146145067Y-82883207D01*
X146194020Y-82939702D01*
X146309033Y-83072437D01*
X146309038Y-83072442D01*
X146309039Y-83072443D01*
X146410735Y-83160565D01*
X146433828Y-83180575D01*
X146459180Y-83231222D01*
X146441293Y-83284960D01*
X146390646Y-83310312D01*
X146385368Y-83310500D01*
X140603998Y-83310500D01*
X140549687Y-83316339D01*
X140498177Y-83327544D01*
X140476969Y-83333363D01*
X140471802Y-83334781D01*
X140471801Y-83334781D01*
X140471799Y-83334782D01*
X140398639Y-83376442D01*
X140342444Y-83383500D01*
X140333705Y-83380505D01*
X140327739Y-83378033D01*
X140278917Y-83368322D01*
X140254674Y-83363500D01*
X138697326Y-83363500D01*
X138660793Y-83370767D01*
X138624258Y-83378034D01*
X138619638Y-83379948D01*
X138563001Y-83379946D01*
X138557022Y-83377151D01*
X138487023Y-83340534D01*
X138419989Y-83320850D01*
X138419981Y-83320849D01*
X138348004Y-83310500D01*
X138348000Y-83310500D01*
X129758067Y-83310500D01*
X129758060Y-83310500D01*
X129749750Y-83310635D01*
X129741613Y-83310901D01*
X129733247Y-83311312D01*
X129547685Y-83323474D01*
X129419044Y-83331905D01*
X129402404Y-83333545D01*
X129386337Y-83335662D01*
X129369881Y-83338379D01*
X129065099Y-83399003D01*
X129048780Y-83402808D01*
X129033136Y-83407001D01*
X129017120Y-83411859D01*
X128927737Y-83442198D01*
X128927684Y-83442218D01*
X128722845Y-83511752D01*
X128707209Y-83517637D01*
X128692247Y-83523834D01*
X128677014Y-83530735D01*
X128398278Y-83668192D01*
X128383528Y-83676077D01*
X128369493Y-83684180D01*
X128355306Y-83693001D01*
X128096886Y-83865673D01*
X128083298Y-83875410D01*
X128070469Y-83885253D01*
X128057529Y-83895873D01*
X127823874Y-84100783D01*
X127811669Y-84112214D01*
X127800214Y-84123669D01*
X127788783Y-84135874D01*
X127644053Y-84300908D01*
X127583872Y-84369529D01*
X127573253Y-84382469D01*
X127563410Y-84395298D01*
X127563188Y-84395608D01*
X127553668Y-84408893D01*
X127548315Y-84416905D01*
X127381001Y-84667306D01*
X127372180Y-84681493D01*
X127364077Y-84695528D01*
X127356192Y-84710278D01*
X127231318Y-84963500D01*
X127231317Y-84963501D01*
X127218740Y-84989002D01*
X127211831Y-85004252D01*
X127205640Y-85019201D01*
X127199752Y-85034848D01*
X127199751Y-85034851D01*
X127164936Y-85137412D01*
X127164935Y-85137413D01*
X127162623Y-85144225D01*
X127099854Y-85329135D01*
X127095006Y-85345118D01*
X127090806Y-85360787D01*
X127087006Y-85377084D01*
X127062117Y-85502211D01*
X127030651Y-85549303D01*
X126975102Y-85560352D01*
X126928010Y-85528886D01*
X126922867Y-85519880D01*
X126911099Y-85495442D01*
X126836726Y-85377078D01*
X126746735Y-85233857D01*
X126554120Y-84992326D01*
X126335674Y-84773880D01*
X126237431Y-84695534D01*
X126094143Y-84581265D01*
X125832563Y-84416904D01*
X125554225Y-84282863D01*
X125262643Y-84180834D01*
X125262627Y-84180829D01*
X124961456Y-84112089D01*
X124807958Y-84094794D01*
X124654465Y-84077500D01*
X124654461Y-84077500D01*
X100800236Y-84077500D01*
X100795768Y-84077365D01*
X100531322Y-84061369D01*
X100522451Y-84060292D01*
X100264057Y-84012940D01*
X100255381Y-84010801D01*
X100004597Y-83932653D01*
X99996241Y-83929485D01*
X99756683Y-83821668D01*
X99748771Y-83817515D01*
X99523969Y-83681617D01*
X99516615Y-83676541D01*
X99309829Y-83514535D01*
X99303140Y-83508609D01*
X99117390Y-83322859D01*
X99111464Y-83316170D01*
X98949458Y-83109384D01*
X98944382Y-83102030D01*
X98818447Y-82893708D01*
X98808483Y-82877226D01*
X98804331Y-82869316D01*
X98803078Y-82866531D01*
X98696510Y-82629750D01*
X98693349Y-82621411D01*
X98615195Y-82370606D01*
X98613062Y-82361955D01*
X98565705Y-82103539D01*
X98564631Y-82094687D01*
X98548635Y-81830231D01*
X98548500Y-81825763D01*
X98548500Y-81534005D01*
X110696755Y-81534005D01*
X110715674Y-81677713D01*
X110761079Y-81787330D01*
X110771144Y-81811630D01*
X110859384Y-81926626D01*
X110974380Y-82014866D01*
X111108296Y-82070335D01*
X111252005Y-82089255D01*
X111395714Y-82070335D01*
X111529630Y-82014866D01*
X111644626Y-81926626D01*
X111650738Y-81918661D01*
X111654737Y-81913450D01*
X111703787Y-81885133D01*
X111713444Y-81884500D01*
X114727146Y-81884500D01*
X114727146Y-81884499D01*
X114816288Y-81860614D01*
X114896212Y-81814470D01*
X115058507Y-81652173D01*
X115110833Y-81630500D01*
X138272946Y-81630500D01*
X138272946Y-81630499D01*
X138362088Y-81606614D01*
X138442012Y-81560470D01*
X139969605Y-80032875D01*
X140021930Y-80011202D01*
X140074256Y-80032876D01*
X140095930Y-80085202D01*
X140095297Y-80094860D01*
X140089750Y-80136999D01*
X140089750Y-80137001D01*
X140090239Y-80140719D01*
X140075575Y-80195425D01*
X140069197Y-80202697D01*
X138270161Y-82001736D01*
X138217835Y-82023410D01*
X126885221Y-82023410D01*
X126840173Y-82008118D01*
X126820536Y-81993050D01*
X126820534Y-81993049D01*
X126686619Y-81937580D01*
X126542911Y-81918661D01*
X126399202Y-81937580D01*
X126265287Y-81993049D01*
X126150290Y-82081290D01*
X126062049Y-82196287D01*
X126006580Y-82330202D01*
X125987661Y-82473911D01*
X126006580Y-82617619D01*
X126029335Y-82672554D01*
X126062050Y-82751536D01*
X126150290Y-82866532D01*
X126265286Y-82954772D01*
X126399202Y-83010241D01*
X126542911Y-83029161D01*
X126686620Y-83010241D01*
X126820536Y-82954772D01*
X126820539Y-82954769D01*
X126820542Y-82954768D01*
X126840177Y-82939702D01*
X126885225Y-82924410D01*
X138494399Y-82924410D01*
X138584763Y-82900196D01*
X138584764Y-82900196D01*
X138595440Y-82897335D01*
X138608977Y-82893709D01*
X138711704Y-82834399D01*
X140943350Y-80602752D01*
X140950603Y-80596391D01*
X141037621Y-80529621D01*
X141125861Y-80414625D01*
X141181330Y-80280709D01*
X141200250Y-80137000D01*
X141181330Y-79993291D01*
X141125861Y-79859375D01*
X141037621Y-79744379D01*
X140922625Y-79656139D01*
X140886904Y-79641343D01*
X140788708Y-79600669D01*
X140653894Y-79582921D01*
X140645000Y-79581750D01*
X140644999Y-79581750D01*
X140602860Y-79587297D01*
X140548153Y-79572637D01*
X140519835Y-79523588D01*
X140534495Y-79468881D01*
X140540868Y-79461612D01*
X144552470Y-75450012D01*
X144598614Y-75370088D01*
X144622499Y-75280946D01*
X144622500Y-75280946D01*
X144622500Y-72851418D01*
X144644174Y-72799092D01*
X144651453Y-72792709D01*
X144660302Y-72785919D01*
X144664621Y-72782605D01*
X144752861Y-72667609D01*
X144808330Y-72533693D01*
X144827250Y-72389984D01*
X144808330Y-72246275D01*
X144752861Y-72112359D01*
X144664621Y-71997363D01*
X144549625Y-71909123D01*
X144541180Y-71905625D01*
X144415708Y-71853653D01*
X144272000Y-71834734D01*
X144128291Y-71853653D01*
X143994376Y-71909122D01*
X143879379Y-71997363D01*
X143791138Y-72112360D01*
X143735669Y-72246275D01*
X143716750Y-72389984D01*
X143735669Y-72533692D01*
X143791138Y-72667607D01*
X143791140Y-72667611D01*
X143879377Y-72782603D01*
X143879380Y-72782606D01*
X143892547Y-72792709D01*
X143920867Y-72841757D01*
X143921500Y-72851418D01*
X143921500Y-75058966D01*
X143899826Y-75111292D01*
X138103292Y-80907826D01*
X138050966Y-80929500D01*
X114888854Y-80929500D01*
X114799715Y-80953384D01*
X114799710Y-80953386D01*
X114719789Y-80999529D01*
X114557492Y-81161826D01*
X114505166Y-81183500D01*
X111713435Y-81183500D01*
X111661109Y-81161826D01*
X111654734Y-81154557D01*
X111644626Y-81141384D01*
X111529630Y-81053144D01*
X111529628Y-81053143D01*
X111395713Y-80997674D01*
X111252005Y-80978755D01*
X111108296Y-80997674D01*
X110974381Y-81053143D01*
X110859384Y-81141384D01*
X110771143Y-81256381D01*
X110715674Y-81390296D01*
X110696755Y-81534005D01*
X98548500Y-81534005D01*
X98548500Y-80490999D01*
X100408129Y-80490999D01*
X100408130Y-80491000D01*
X100771758Y-80491000D01*
X100766444Y-80500204D01*
X100746000Y-80576504D01*
X100746000Y-80655496D01*
X100766444Y-80731796D01*
X100771758Y-80741000D01*
X100408129Y-80741000D01*
X100420977Y-80805591D01*
X100420979Y-80805598D01*
X100469978Y-80923890D01*
X100541111Y-81030350D01*
X100631649Y-81120888D01*
X100738109Y-81192021D01*
X100856401Y-81241020D01*
X100856408Y-81241022D01*
X100981982Y-81266000D01*
X101221000Y-81266000D01*
X101221000Y-80916000D01*
X101471000Y-80916000D01*
X101471000Y-81266000D01*
X101710018Y-81266000D01*
X101835591Y-81241022D01*
X101835598Y-81241020D01*
X101953890Y-81192021D01*
X102060350Y-81120888D01*
X102060352Y-81120887D01*
X102150887Y-81030352D01*
X102150888Y-81030350D01*
X102222021Y-80923890D01*
X102271020Y-80805598D01*
X102271022Y-80805591D01*
X102283870Y-80741000D01*
X101920242Y-80741000D01*
X101925556Y-80731796D01*
X101946000Y-80655496D01*
X101946000Y-80576504D01*
X101925556Y-80500204D01*
X101920242Y-80491000D01*
X102283870Y-80491000D01*
X102283870Y-80490999D01*
X102271022Y-80426408D01*
X102271020Y-80426401D01*
X102222021Y-80308109D01*
X102150888Y-80201649D01*
X102060350Y-80111111D01*
X101953890Y-80039978D01*
X101835598Y-79990979D01*
X101835591Y-79990977D01*
X101710018Y-79966000D01*
X101471000Y-79966000D01*
X101471000Y-80316000D01*
X101221000Y-80316000D01*
X101221000Y-79966000D01*
X100981982Y-79966000D01*
X100856408Y-79990977D01*
X100856401Y-79990979D01*
X100738109Y-80039978D01*
X100631649Y-80111111D01*
X100631648Y-80111113D01*
X100541113Y-80201648D01*
X100541111Y-80201649D01*
X100469978Y-80308109D01*
X100420979Y-80426401D01*
X100420977Y-80426408D01*
X100408129Y-80490999D01*
X98548500Y-80490999D01*
X98548500Y-79123396D01*
X104550500Y-79123396D01*
X104550500Y-79248603D01*
X104582904Y-79369535D01*
X104636060Y-79461604D01*
X104645505Y-79477964D01*
X104734036Y-79566495D01*
X104842464Y-79629095D01*
X104842463Y-79629095D01*
X104912286Y-79647804D01*
X104963396Y-79661499D01*
X104963397Y-79661500D01*
X104963399Y-79661500D01*
X105088603Y-79661500D01*
X105088603Y-79661499D01*
X105209536Y-79629095D01*
X105317964Y-79566495D01*
X105406495Y-79477964D01*
X105469095Y-79369536D01*
X105501499Y-79248603D01*
X105501500Y-79248603D01*
X105501500Y-79123397D01*
X105501499Y-79123396D01*
X105498833Y-79113448D01*
X105469095Y-79002464D01*
X105406495Y-78894036D01*
X105317964Y-78805505D01*
X105317963Y-78805504D01*
X105209534Y-78742904D01*
X105209536Y-78742904D01*
X105088603Y-78710500D01*
X105088601Y-78710500D01*
X104963399Y-78710500D01*
X104963397Y-78710500D01*
X104842464Y-78742904D01*
X104734036Y-78805504D01*
X104645504Y-78894036D01*
X104582904Y-79002464D01*
X104550500Y-79123396D01*
X98548500Y-79123396D01*
X98548500Y-73343396D01*
X104550500Y-73343396D01*
X104550500Y-73468603D01*
X104582904Y-73589535D01*
X104630300Y-73671627D01*
X104645505Y-73697964D01*
X104734036Y-73786495D01*
X104842464Y-73849095D01*
X104842463Y-73849095D01*
X104912286Y-73867804D01*
X104963396Y-73881499D01*
X104963397Y-73881500D01*
X104963399Y-73881500D01*
X105088603Y-73881500D01*
X105088603Y-73881499D01*
X105209536Y-73849095D01*
X105317964Y-73786495D01*
X105406495Y-73697964D01*
X105469095Y-73589536D01*
X105501499Y-73468603D01*
X105501500Y-73468603D01*
X105501500Y-73343397D01*
X105501499Y-73343396D01*
X105500593Y-73340016D01*
X105469095Y-73222464D01*
X105406495Y-73114036D01*
X105317964Y-73025505D01*
X105317963Y-73025504D01*
X105209534Y-72962904D01*
X105209536Y-72962904D01*
X105088603Y-72930500D01*
X105088601Y-72930500D01*
X104963399Y-72930500D01*
X104963397Y-72930500D01*
X104842464Y-72962904D01*
X104734036Y-73025504D01*
X104645504Y-73114036D01*
X104582904Y-73222464D01*
X104550500Y-73343396D01*
X98548500Y-73343396D01*
X98548500Y-71850999D01*
X100408129Y-71850999D01*
X100408130Y-71851000D01*
X100771758Y-71851000D01*
X100766444Y-71860204D01*
X100746000Y-71936504D01*
X100746000Y-72015496D01*
X100766444Y-72091796D01*
X100771758Y-72101000D01*
X100408129Y-72101000D01*
X100420977Y-72165591D01*
X100420979Y-72165598D01*
X100469978Y-72283890D01*
X100541111Y-72390350D01*
X100631649Y-72480888D01*
X100738109Y-72552021D01*
X100856401Y-72601020D01*
X100856408Y-72601022D01*
X100981982Y-72626000D01*
X101221000Y-72626000D01*
X101221000Y-72276000D01*
X101471000Y-72276000D01*
X101471000Y-72626000D01*
X101710018Y-72626000D01*
X101835591Y-72601022D01*
X101835598Y-72601020D01*
X101953890Y-72552021D01*
X102060350Y-72480888D01*
X102060352Y-72480887D01*
X102150887Y-72390352D01*
X102150888Y-72390350D01*
X102222021Y-72283890D01*
X102271020Y-72165598D01*
X102271022Y-72165591D01*
X102283870Y-72101000D01*
X101920242Y-72101000D01*
X101925556Y-72091796D01*
X101946000Y-72015496D01*
X101946000Y-71936504D01*
X101925556Y-71860204D01*
X101920242Y-71851000D01*
X102283870Y-71851000D01*
X102283870Y-71850999D01*
X104338129Y-71850999D01*
X104338130Y-71851000D01*
X104701758Y-71851000D01*
X104696444Y-71860204D01*
X104676000Y-71936504D01*
X104676000Y-72015496D01*
X104696444Y-72091796D01*
X104701758Y-72101000D01*
X104338129Y-72101000D01*
X104350977Y-72165591D01*
X104350979Y-72165598D01*
X104399978Y-72283890D01*
X104471111Y-72390350D01*
X104561649Y-72480888D01*
X104668109Y-72552021D01*
X104786401Y-72601020D01*
X104786408Y-72601022D01*
X104911982Y-72626000D01*
X105401000Y-72626000D01*
X105401000Y-72276000D01*
X105651000Y-72276000D01*
X105651000Y-72626000D01*
X106071205Y-72626000D01*
X106123531Y-72647674D01*
X106145205Y-72700000D01*
X106129060Y-72746139D01*
X106082595Y-72804402D01*
X106082589Y-72804410D01*
X106066008Y-72827779D01*
X106057200Y-72841796D01*
X106043337Y-72866879D01*
X105982316Y-72993589D01*
X105982301Y-72993624D01*
X105971356Y-73020045D01*
X105971351Y-73020058D01*
X105971349Y-73020064D01*
X105965881Y-73035688D01*
X105965880Y-73035691D01*
X105957941Y-73063245D01*
X105926447Y-73201231D01*
X105926445Y-73201242D01*
X105922007Y-73226445D01*
X105920176Y-73241109D01*
X105918279Y-73266654D01*
X105918279Y-73266655D01*
X105916963Y-73321612D01*
X105916592Y-73337089D01*
X105916540Y-73340016D01*
X105916518Y-73341832D01*
X105916500Y-73344962D01*
X105916500Y-79563036D01*
X105916518Y-79566166D01*
X105916540Y-79567975D01*
X105916592Y-79570910D01*
X105918279Y-79641343D01*
X105920176Y-79666887D01*
X105922008Y-79681563D01*
X105926448Y-79706779D01*
X105957942Y-79844753D01*
X105957946Y-79844766D01*
X105965652Y-79871513D01*
X105959311Y-79927794D01*
X105915031Y-79963108D01*
X105894544Y-79966000D01*
X105651000Y-79966000D01*
X105651000Y-80316000D01*
X105401000Y-80316000D01*
X105401000Y-79966000D01*
X104911982Y-79966000D01*
X104786408Y-79990977D01*
X104786401Y-79990979D01*
X104668109Y-80039978D01*
X104561649Y-80111111D01*
X104561648Y-80111113D01*
X104471113Y-80201648D01*
X104471111Y-80201649D01*
X104399978Y-80308109D01*
X104350979Y-80426401D01*
X104350977Y-80426408D01*
X104338129Y-80490999D01*
X104338130Y-80491000D01*
X104701758Y-80491000D01*
X104696444Y-80500204D01*
X104676000Y-80576504D01*
X104676000Y-80655496D01*
X104696444Y-80731796D01*
X104701758Y-80741000D01*
X104338129Y-80741000D01*
X104350977Y-80805591D01*
X104350979Y-80805598D01*
X104399978Y-80923890D01*
X104471111Y-81030350D01*
X104561649Y-81120888D01*
X104668109Y-81192021D01*
X104786401Y-81241020D01*
X104786408Y-81241022D01*
X104911982Y-81266000D01*
X105401000Y-81266000D01*
X105401000Y-80916000D01*
X105651000Y-80916000D01*
X105651000Y-81266000D01*
X106140018Y-81266000D01*
X106265591Y-81241022D01*
X106265598Y-81241020D01*
X106383890Y-81192021D01*
X106490350Y-81120888D01*
X106490352Y-81120887D01*
X106580887Y-81030352D01*
X106580888Y-81030350D01*
X106652021Y-80923890D01*
X106701020Y-80805598D01*
X106701022Y-80805591D01*
X106713870Y-80741000D01*
X106350242Y-80741000D01*
X106355556Y-80731796D01*
X106376000Y-80655496D01*
X106376000Y-80576504D01*
X106355556Y-80500204D01*
X106350242Y-80491000D01*
X106659714Y-80491000D01*
X106689465Y-80497243D01*
X106704788Y-80503972D01*
X106729227Y-80509551D01*
X106754444Y-80513992D01*
X106769129Y-80515825D01*
X106794650Y-80517719D01*
X106864999Y-80519406D01*
X106868100Y-80519461D01*
X106869874Y-80519482D01*
X106872898Y-80519500D01*
X106872962Y-80519500D01*
X107665346Y-80519500D01*
X107665348Y-80519500D01*
X107763123Y-80500051D01*
X107812116Y-80479757D01*
X107814843Y-80478782D01*
X107815449Y-80478377D01*
X107815450Y-80478377D01*
X107898340Y-80422992D01*
X108424657Y-79896673D01*
X108476982Y-79875000D01*
X109014856Y-79875000D01*
X108999000Y-79934174D01*
X108999000Y-80065826D01*
X109014856Y-80125000D01*
X108506473Y-80125000D01*
X108513469Y-80196035D01*
X108570651Y-80384539D01*
X108663504Y-80558252D01*
X108663513Y-80558266D01*
X108788471Y-80710526D01*
X108788473Y-80710528D01*
X108940733Y-80835486D01*
X108940747Y-80835495D01*
X109114460Y-80928348D01*
X109302964Y-80985530D01*
X109374000Y-80992526D01*
X109374000Y-80484144D01*
X109433174Y-80500000D01*
X109564826Y-80500000D01*
X109624000Y-80484144D01*
X109624000Y-80992526D01*
X109695035Y-80985530D01*
X109883539Y-80928348D01*
X110057252Y-80835495D01*
X110057266Y-80835486D01*
X110209526Y-80710528D01*
X110209528Y-80710526D01*
X110334486Y-80558266D01*
X110334495Y-80558252D01*
X110427348Y-80384539D01*
X110484530Y-80196035D01*
X110491527Y-80125000D01*
X109983144Y-80125000D01*
X109999000Y-80065826D01*
X109999000Y-79934174D01*
X109983144Y-79875000D01*
X110491526Y-79875000D01*
X110484530Y-79803964D01*
X110427347Y-79615460D01*
X110357821Y-79485383D01*
X110352270Y-79429019D01*
X110388200Y-79385238D01*
X110423083Y-79376500D01*
X112395608Y-79376500D01*
X112447934Y-79398174D01*
X112469608Y-79450500D01*
X112460870Y-79485383D01*
X112380651Y-79635460D01*
X112323469Y-79823964D01*
X112316473Y-79895000D01*
X112824856Y-79895000D01*
X112809000Y-79954174D01*
X112809000Y-80085826D01*
X112824856Y-80145000D01*
X112316473Y-80145000D01*
X112323469Y-80216035D01*
X112380651Y-80404539D01*
X112473504Y-80578252D01*
X112473513Y-80578266D01*
X112598471Y-80730526D01*
X112598473Y-80730528D01*
X112750733Y-80855486D01*
X112750747Y-80855495D01*
X112924460Y-80948348D01*
X113112964Y-81005530D01*
X113184000Y-81012526D01*
X113184000Y-80504144D01*
X113243174Y-80520000D01*
X113374826Y-80520000D01*
X113434000Y-80504144D01*
X113434000Y-81012526D01*
X113505035Y-81005530D01*
X113693539Y-80948348D01*
X113867252Y-80855495D01*
X113867266Y-80855486D01*
X114019526Y-80730528D01*
X114019528Y-80730526D01*
X114144486Y-80578266D01*
X114144495Y-80578252D01*
X114237348Y-80404539D01*
X114294530Y-80216035D01*
X114301527Y-80145000D01*
X113793144Y-80145000D01*
X113809000Y-80085826D01*
X113809000Y-79954174D01*
X113793144Y-79895000D01*
X114301526Y-79895000D01*
X114298587Y-79865160D01*
X114315028Y-79810962D01*
X114364977Y-79784262D01*
X114419175Y-79800703D01*
X114421730Y-79802899D01*
X114445136Y-79823964D01*
X115121728Y-80432898D01*
X115121816Y-80432974D01*
X115123265Y-80434278D01*
X115123989Y-80434930D01*
X115173587Y-80465309D01*
X115203357Y-80483544D01*
X115252860Y-80502540D01*
X115344396Y-80519500D01*
X137256349Y-80519500D01*
X137256350Y-80519500D01*
X137354126Y-80500051D01*
X137393977Y-80483544D01*
X137406447Y-80478379D01*
X137406447Y-80478378D01*
X137406451Y-80478377D01*
X137489341Y-80422990D01*
X137629964Y-80282365D01*
X137641391Y-80270166D01*
X137647772Y-80262890D01*
X137658378Y-80249966D01*
X137705672Y-80188331D01*
X137719332Y-80174672D01*
X137780966Y-80127378D01*
X137793890Y-80116772D01*
X137801166Y-80110391D01*
X137813367Y-80098963D01*
X138715992Y-79196339D01*
X138715992Y-79196338D01*
X138715992Y-79196337D01*
X138717730Y-79194600D01*
X138720037Y-79190283D01*
X138771377Y-79113448D01*
X138793051Y-79061122D01*
X138812500Y-78963347D01*
X138812500Y-75884898D01*
X138812482Y-75881874D01*
X138812461Y-75880100D01*
X138812406Y-75876998D01*
X138810719Y-75806654D01*
X138808825Y-75781134D01*
X138806991Y-75766441D01*
X138802552Y-75741232D01*
X138771056Y-75603241D01*
X138763123Y-75575705D01*
X138757650Y-75560065D01*
X138746687Y-75533599D01*
X138685664Y-75406883D01*
X138671802Y-75381803D01*
X138662988Y-75367776D01*
X138646409Y-75344410D01*
X138637831Y-75333654D01*
X138558709Y-75234439D01*
X138539621Y-75213080D01*
X138527918Y-75201377D01*
X138506559Y-75182289D01*
X138494107Y-75172359D01*
X138396587Y-75094588D01*
X138373220Y-75078008D01*
X138373197Y-75077992D01*
X138363434Y-75071859D01*
X138359193Y-75069194D01*
X138334117Y-75055336D01*
X138334112Y-75055334D01*
X138334102Y-75055328D01*
X138207386Y-74994306D01*
X138180941Y-74983352D01*
X138165296Y-74977877D01*
X138165281Y-74977872D01*
X138137793Y-74969952D01*
X138137750Y-74969941D01*
X137999783Y-74938450D01*
X137999772Y-74938448D01*
X137999763Y-74938446D01*
X137986171Y-74936053D01*
X137974563Y-74934009D01*
X137959880Y-74932176D01*
X137959877Y-74932175D01*
X137959871Y-74932175D01*
X137949443Y-74931400D01*
X137934338Y-74930279D01*
X137934349Y-74930279D01*
X137869182Y-74928718D01*
X137866334Y-74928650D01*
X137866333Y-74928650D01*
X137866331Y-74928649D01*
X137863968Y-74928593D01*
X137860972Y-74928540D01*
X137860924Y-74928539D01*
X137860901Y-74928539D01*
X137860535Y-74928534D01*
X137859170Y-74928518D01*
X137857929Y-74928510D01*
X137856102Y-74928500D01*
X125287898Y-74928500D01*
X125286035Y-74928511D01*
X125284832Y-74928518D01*
X125283797Y-74928530D01*
X125283099Y-74928539D01*
X125281082Y-74928574D01*
X125279979Y-74928594D01*
X125278136Y-74928637D01*
X125278137Y-74928638D01*
X125277938Y-74928642D01*
X125277939Y-74928643D01*
X125277850Y-74928645D01*
X125277751Y-74928647D01*
X125254562Y-74929203D01*
X125209650Y-74930279D01*
X125188592Y-74931843D01*
X125184119Y-74932175D01*
X125184115Y-74932175D01*
X125184108Y-74932176D01*
X125169445Y-74934007D01*
X125169442Y-74934007D01*
X125169438Y-74934008D01*
X125161115Y-74935473D01*
X125144242Y-74938445D01*
X125144231Y-74938447D01*
X125006245Y-74969941D01*
X124978698Y-74977878D01*
X124978688Y-74977881D01*
X124963064Y-74983349D01*
X124963058Y-74983351D01*
X124963045Y-74983356D01*
X124936624Y-74994301D01*
X124936589Y-74994316D01*
X124809879Y-75055337D01*
X124784796Y-75069200D01*
X124770779Y-75078008D01*
X124747410Y-75094589D01*
X124747402Y-75094595D01*
X124637434Y-75182293D01*
X124616075Y-75201381D01*
X124604381Y-75213075D01*
X124585293Y-75234434D01*
X124497595Y-75344402D01*
X124497589Y-75344410D01*
X124481008Y-75367779D01*
X124472200Y-75381796D01*
X124458337Y-75406879D01*
X124397316Y-75533589D01*
X124397301Y-75533624D01*
X124386356Y-75560045D01*
X124380880Y-75575691D01*
X124372941Y-75603245D01*
X124341447Y-75741231D01*
X124341445Y-75741242D01*
X124337007Y-75766444D01*
X124335173Y-75781128D01*
X124335172Y-75781141D01*
X124333280Y-75806650D01*
X124333279Y-75806678D01*
X124333060Y-75815853D01*
X124333060Y-75815855D01*
X124331592Y-75877093D01*
X124331540Y-75880019D01*
X124331518Y-75881832D01*
X124331500Y-75884962D01*
X124331500Y-76385020D01*
X124331479Y-76386796D01*
X124330480Y-76428414D01*
X124328646Y-76443105D01*
X124309273Y-76527982D01*
X124303800Y-76543622D01*
X124267758Y-76618464D01*
X124258941Y-76632496D01*
X124207152Y-76697436D01*
X124195436Y-76709152D01*
X124130496Y-76760941D01*
X124116464Y-76769758D01*
X124041622Y-76805800D01*
X124025982Y-76811273D01*
X123941105Y-76830646D01*
X123926414Y-76832480D01*
X123886358Y-76833441D01*
X123884795Y-76833479D01*
X123883021Y-76833500D01*
X117035979Y-76833500D01*
X117034204Y-76833479D01*
X117032583Y-76833440D01*
X116992584Y-76832480D01*
X116977893Y-76830646D01*
X116893016Y-76811273D01*
X116877376Y-76805800D01*
X116802534Y-76769758D01*
X116788503Y-76760942D01*
X116771371Y-76747280D01*
X116723556Y-76709148D01*
X116711850Y-76697442D01*
X116660050Y-76632487D01*
X116651239Y-76618464D01*
X116615199Y-76543624D01*
X116609727Y-76527985D01*
X116590352Y-76443103D01*
X116588517Y-76428413D01*
X116587521Y-76386789D01*
X116587500Y-76385018D01*
X116587500Y-75884962D01*
X116587500Y-75884898D01*
X116587482Y-75881874D01*
X116587461Y-75880100D01*
X116587406Y-75876998D01*
X116585719Y-75806654D01*
X116583825Y-75781134D01*
X116581991Y-75766441D01*
X116577552Y-75741232D01*
X116546056Y-75603241D01*
X116538123Y-75575705D01*
X116532650Y-75560065D01*
X116521687Y-75533599D01*
X116460664Y-75406883D01*
X116446802Y-75381803D01*
X116437988Y-75367776D01*
X116421409Y-75344410D01*
X116412831Y-75333654D01*
X116333709Y-75234439D01*
X116314621Y-75213080D01*
X116302918Y-75201377D01*
X116281559Y-75182289D01*
X116269107Y-75172359D01*
X116171587Y-75094588D01*
X116148220Y-75078008D01*
X116148197Y-75077992D01*
X116138434Y-75071859D01*
X116134193Y-75069194D01*
X116109117Y-75055336D01*
X116109112Y-75055334D01*
X116109102Y-75055328D01*
X115982386Y-74994306D01*
X115955941Y-74983352D01*
X115940296Y-74977877D01*
X115940281Y-74977872D01*
X115912793Y-74969952D01*
X115912750Y-74969941D01*
X115774783Y-74938450D01*
X115774772Y-74938448D01*
X115774763Y-74938446D01*
X115761171Y-74936053D01*
X115749563Y-74934009D01*
X115734880Y-74932176D01*
X115734877Y-74932175D01*
X115734871Y-74932175D01*
X115724443Y-74931400D01*
X115709338Y-74930279D01*
X115709349Y-74930279D01*
X115644182Y-74928718D01*
X115641334Y-74928650D01*
X115641333Y-74928650D01*
X115641331Y-74928649D01*
X115638968Y-74928593D01*
X115635972Y-74928540D01*
X115635924Y-74928539D01*
X115635901Y-74928539D01*
X115635535Y-74928534D01*
X115634170Y-74928518D01*
X115632929Y-74928510D01*
X115631102Y-74928500D01*
X114480609Y-74928500D01*
X114428283Y-74906826D01*
X114406925Y-74861328D01*
X114401533Y-74803143D01*
X114418286Y-74749041D01*
X114422880Y-74744000D01*
X115596470Y-73570412D01*
X115642614Y-73490488D01*
X115651661Y-73456725D01*
X115666500Y-73401344D01*
X115666500Y-73279006D01*
X116284750Y-73279006D01*
X116303669Y-73422714D01*
X116349441Y-73533218D01*
X116359139Y-73556631D01*
X116447379Y-73671627D01*
X116562375Y-73759867D01*
X116635276Y-73790063D01*
X116659283Y-73806103D01*
X118725474Y-75872294D01*
X118818660Y-75965480D01*
X118883688Y-76003024D01*
X118932788Y-76031372D01*
X118932789Y-76031372D01*
X118932791Y-76031373D01*
X118986787Y-76045841D01*
X119060078Y-76065479D01*
X119060079Y-76065480D01*
X119060081Y-76065480D01*
X119060082Y-76065480D01*
X122691070Y-76065480D01*
X122719387Y-76071112D01*
X122792291Y-76101310D01*
X122936000Y-76120230D01*
X123079709Y-76101310D01*
X123213625Y-76045841D01*
X123328621Y-75957601D01*
X123416861Y-75842605D01*
X123472330Y-75708689D01*
X123491250Y-75564980D01*
X123472330Y-75421271D01*
X123416861Y-75287355D01*
X123328621Y-75172359D01*
X123213625Y-75084119D01*
X123198872Y-75078008D01*
X123079708Y-75028649D01*
X122936000Y-75009730D01*
X122792291Y-75028649D01*
X122731126Y-75053984D01*
X122719987Y-75058599D01*
X122719388Y-75058847D01*
X122691070Y-75064480D01*
X119363940Y-75064480D01*
X119311614Y-75042806D01*
X117367097Y-73098289D01*
X117351056Y-73074281D01*
X117339558Y-73046522D01*
X117320861Y-73001381D01*
X117232621Y-72886385D01*
X117117625Y-72798145D01*
X117104842Y-72792850D01*
X116983708Y-72742675D01*
X116840000Y-72723756D01*
X116696291Y-72742675D01*
X116562376Y-72798144D01*
X116447379Y-72886385D01*
X116359138Y-73001382D01*
X116303669Y-73135297D01*
X116284750Y-73279006D01*
X115666500Y-73279006D01*
X115666500Y-72237600D01*
X117808752Y-72237600D01*
X117827671Y-72381308D01*
X117864051Y-72469138D01*
X117883141Y-72515225D01*
X117971381Y-72630221D01*
X118086377Y-72718461D01*
X118220293Y-72773930D01*
X118364002Y-72792850D01*
X118380455Y-72790683D01*
X118435163Y-72805338D01*
X118442444Y-72811723D01*
X119863396Y-74232675D01*
X119928653Y-74297932D01*
X119928655Y-74297933D01*
X119928656Y-74297934D01*
X120008575Y-74344076D01*
X120008577Y-74344077D01*
X120008578Y-74344077D01*
X120008580Y-74344078D01*
X120053149Y-74356020D01*
X120097718Y-74367962D01*
X120097719Y-74367963D01*
X120097721Y-74367963D01*
X122474573Y-74367963D01*
X122526899Y-74389637D01*
X122533280Y-74396913D01*
X122543385Y-74410081D01*
X122543384Y-74410081D01*
X122543385Y-74410082D01*
X122543387Y-74410084D01*
X122658383Y-74498324D01*
X122792299Y-74553793D01*
X122936008Y-74572713D01*
X123079717Y-74553793D01*
X123213633Y-74498324D01*
X123328629Y-74410084D01*
X123416869Y-74295088D01*
X123472338Y-74161172D01*
X123491258Y-74017463D01*
X123472338Y-73873754D01*
X123416869Y-73739838D01*
X123328629Y-73624842D01*
X123213633Y-73536602D01*
X123213631Y-73536601D01*
X123079716Y-73481132D01*
X122936008Y-73462213D01*
X122792299Y-73481132D01*
X122658384Y-73536601D01*
X122543384Y-73624844D01*
X122533280Y-73638013D01*
X122484230Y-73666330D01*
X122474573Y-73666963D01*
X120319698Y-73666963D01*
X120267372Y-73645289D01*
X118938125Y-72316042D01*
X118916451Y-72263716D01*
X118917084Y-72254062D01*
X118919252Y-72237600D01*
X118900332Y-72093891D01*
X118844863Y-71959975D01*
X118756623Y-71844979D01*
X118641627Y-71756739D01*
X118641625Y-71756738D01*
X118507710Y-71701269D01*
X118364002Y-71682350D01*
X118220293Y-71701269D01*
X118086378Y-71756738D01*
X117971381Y-71844979D01*
X117883140Y-71959976D01*
X117827671Y-72093891D01*
X117808752Y-72237600D01*
X115666500Y-72237600D01*
X115666500Y-71803834D01*
X115688174Y-71751508D01*
X116049108Y-71390574D01*
X116101434Y-71368900D01*
X137898566Y-71368900D01*
X137950892Y-71390574D01*
X138109875Y-71549557D01*
X138131549Y-71601883D01*
X138130916Y-71611539D01*
X138128750Y-71627996D01*
X138128750Y-71627999D01*
X138128750Y-71628000D01*
X138128755Y-71628037D01*
X138147669Y-71771708D01*
X138181612Y-71853654D01*
X138203139Y-71905625D01*
X138291379Y-72020621D01*
X138406375Y-72108861D01*
X138540291Y-72164330D01*
X138684000Y-72183250D01*
X138827709Y-72164330D01*
X138961625Y-72108861D01*
X139076621Y-72020621D01*
X139164861Y-71905625D01*
X139220330Y-71771709D01*
X139239250Y-71628000D01*
X139220330Y-71484291D01*
X139164861Y-71350375D01*
X139076621Y-71235379D01*
X138961625Y-71147139D01*
X138961623Y-71147138D01*
X138827708Y-71091669D01*
X138700452Y-71074916D01*
X138684000Y-71072750D01*
X138683999Y-71072750D01*
X138683996Y-71072750D01*
X138667539Y-71074916D01*
X138612832Y-71060255D01*
X138605557Y-71053875D01*
X138289612Y-70737930D01*
X138209689Y-70691786D01*
X138209684Y-70691784D01*
X138120546Y-70667900D01*
X138120544Y-70667900D01*
X115879456Y-70667900D01*
X115879454Y-70667900D01*
X115790315Y-70691784D01*
X115790310Y-70691786D01*
X115710387Y-70737930D01*
X115035530Y-71412787D01*
X115012741Y-71452260D01*
X114989386Y-71492710D01*
X114989384Y-71492715D01*
X114965500Y-71581853D01*
X114965500Y-73179365D01*
X114943826Y-73231691D01*
X114099525Y-74075991D01*
X114047199Y-74097665D01*
X113997346Y-74078352D01*
X113975041Y-74058019D01*
X113942740Y-74038019D01*
X113801637Y-73950652D01*
X113623134Y-73881500D01*
X113611459Y-73876977D01*
X113611458Y-73876976D01*
X113611456Y-73876976D01*
X113523407Y-73860516D01*
X113410979Y-73839500D01*
X113410976Y-73839500D01*
X113207024Y-73839500D01*
X113207020Y-73839500D01*
X113057116Y-73867522D01*
X113006544Y-73876976D01*
X113006542Y-73876976D01*
X113006540Y-73876977D01*
X112816368Y-73950650D01*
X112816363Y-73950652D01*
X112816358Y-73950654D01*
X112816358Y-73950655D01*
X112642958Y-74058019D01*
X112642957Y-74058019D01*
X112492235Y-74195420D01*
X112492234Y-74195421D01*
X112369329Y-74358174D01*
X112369328Y-74358177D01*
X112278418Y-74540750D01*
X112278416Y-74540755D01*
X112222603Y-74736914D01*
X112222601Y-74736927D01*
X112211074Y-74861328D01*
X112184665Y-74911431D01*
X112137390Y-74928500D01*
X110672463Y-74928500D01*
X110620137Y-74906826D01*
X110598779Y-74861328D01*
X110585398Y-74716923D01*
X110585397Y-74716917D01*
X110544367Y-74572713D01*
X110529582Y-74520750D01*
X110438673Y-74338179D01*
X110438670Y-74338175D01*
X110438670Y-74338174D01*
X110315765Y-74175421D01*
X110315764Y-74175420D01*
X110165041Y-74038019D01*
X110131842Y-74017463D01*
X109991637Y-73930652D01*
X109801456Y-73856976D01*
X109756411Y-73848555D01*
X109662902Y-73831075D01*
X109615450Y-73800155D01*
X109602500Y-73758335D01*
X109602500Y-73554500D01*
X109624174Y-73502174D01*
X109676500Y-73480500D01*
X110373672Y-73480500D01*
X110373674Y-73480500D01*
X110446740Y-73465966D01*
X110529601Y-73410601D01*
X110584966Y-73327740D01*
X110599500Y-73254674D01*
X110599500Y-71525326D01*
X112208500Y-71525326D01*
X112208500Y-73274674D01*
X112220915Y-73337089D01*
X112223034Y-73347740D01*
X112265035Y-73410601D01*
X112278399Y-73430601D01*
X112361260Y-73485966D01*
X112434326Y-73500500D01*
X112434328Y-73500500D01*
X114183672Y-73500500D01*
X114183674Y-73500500D01*
X114256740Y-73485966D01*
X114339601Y-73430601D01*
X114394966Y-73347740D01*
X114409500Y-73274674D01*
X114409500Y-71525326D01*
X114394966Y-71452260D01*
X114339601Y-71369399D01*
X114338854Y-71368900D01*
X114256740Y-71314034D01*
X114183674Y-71299500D01*
X114183672Y-71299500D01*
X113733500Y-71299500D01*
X113681174Y-71277826D01*
X113659500Y-71225500D01*
X113659500Y-70889834D01*
X113681174Y-70837508D01*
X114448908Y-70069774D01*
X114501234Y-70048100D01*
X140641728Y-70048100D01*
X140694054Y-70069774D01*
X142173875Y-71549595D01*
X142195549Y-71601921D01*
X142194916Y-71611577D01*
X142192750Y-71628034D01*
X142192750Y-71628037D01*
X142211669Y-71771746D01*
X142267122Y-71905623D01*
X142267139Y-71905663D01*
X142355379Y-72020659D01*
X142470375Y-72108899D01*
X142604291Y-72164368D01*
X142748000Y-72183288D01*
X142891709Y-72164368D01*
X143025625Y-72108899D01*
X143140621Y-72020659D01*
X143228861Y-71905663D01*
X143284330Y-71771747D01*
X143303250Y-71628038D01*
X143284330Y-71484329D01*
X143228861Y-71350413D01*
X143140621Y-71235417D01*
X143025625Y-71147177D01*
X143025623Y-71147176D01*
X142891708Y-71091707D01*
X142764163Y-71074916D01*
X142748000Y-71072788D01*
X142747999Y-71072788D01*
X142747996Y-71072788D01*
X142731539Y-71074954D01*
X142676832Y-71060293D01*
X142669557Y-71053913D01*
X141032774Y-69417130D01*
X140952851Y-69370986D01*
X140952846Y-69370984D01*
X140863708Y-69347100D01*
X140863706Y-69347100D01*
X114279256Y-69347100D01*
X114279254Y-69347100D01*
X114190115Y-69370984D01*
X114190110Y-69370986D01*
X114110187Y-69417130D01*
X113028530Y-70498787D01*
X113015029Y-70522172D01*
X112986261Y-70572000D01*
X112984970Y-70574236D01*
X112982386Y-70578711D01*
X112982384Y-70578716D01*
X112958500Y-70667853D01*
X112958500Y-71225500D01*
X112936826Y-71277826D01*
X112884500Y-71299500D01*
X112434326Y-71299500D01*
X112385615Y-71309189D01*
X112361259Y-71314034D01*
X112278399Y-71369398D01*
X112278398Y-71369399D01*
X112223034Y-71452259D01*
X112216655Y-71484329D01*
X112208500Y-71525326D01*
X110599500Y-71525326D01*
X110599500Y-71505326D01*
X110584966Y-71432260D01*
X110529601Y-71349399D01*
X110494581Y-71326000D01*
X110446740Y-71294034D01*
X110373674Y-71279500D01*
X108624326Y-71279500D01*
X108575615Y-71289189D01*
X108551259Y-71294034D01*
X108468399Y-71349398D01*
X108468398Y-71349399D01*
X108413034Y-71432259D01*
X108398500Y-71505327D01*
X108398500Y-72314500D01*
X108376826Y-72366826D01*
X108324500Y-72388500D01*
X106872898Y-72388500D01*
X106871035Y-72388511D01*
X106869832Y-72388518D01*
X106868797Y-72388530D01*
X106868099Y-72388539D01*
X106866082Y-72388574D01*
X106864979Y-72388594D01*
X106863136Y-72388637D01*
X106863137Y-72388638D01*
X106862938Y-72388642D01*
X106862939Y-72388643D01*
X106862850Y-72388645D01*
X106862751Y-72388647D01*
X106839562Y-72389203D01*
X106794650Y-72390279D01*
X106773333Y-72391862D01*
X106769119Y-72392175D01*
X106769115Y-72392175D01*
X106769108Y-72392176D01*
X106754445Y-72394007D01*
X106754442Y-72394007D01*
X106754438Y-72394008D01*
X106746115Y-72395473D01*
X106729242Y-72398445D01*
X106729213Y-72398451D01*
X106729097Y-72398478D01*
X106729088Y-72398476D01*
X106728335Y-72398629D01*
X106728330Y-72398606D01*
X106728326Y-72398607D01*
X106728295Y-72398431D01*
X106728276Y-72398338D01*
X106673265Y-72388963D01*
X106640513Y-72342756D01*
X106650028Y-72286924D01*
X106651144Y-72285202D01*
X106652023Y-72283886D01*
X106701020Y-72165598D01*
X106701022Y-72165591D01*
X106713870Y-72101000D01*
X106350242Y-72101000D01*
X106355556Y-72091796D01*
X106376000Y-72015496D01*
X106376000Y-71936504D01*
X106355556Y-71860204D01*
X106350242Y-71851000D01*
X106713870Y-71851000D01*
X106713870Y-71850999D01*
X106701022Y-71786408D01*
X106701020Y-71786401D01*
X106652021Y-71668109D01*
X106580888Y-71561649D01*
X106490350Y-71471111D01*
X106383890Y-71399978D01*
X106265598Y-71350979D01*
X106265591Y-71350977D01*
X106140018Y-71326000D01*
X105651000Y-71326000D01*
X105651000Y-71676000D01*
X105401000Y-71676000D01*
X105401000Y-71326000D01*
X104911982Y-71326000D01*
X104786408Y-71350977D01*
X104786401Y-71350979D01*
X104668109Y-71399978D01*
X104561649Y-71471111D01*
X104561648Y-71471113D01*
X104471113Y-71561648D01*
X104471111Y-71561649D01*
X104399978Y-71668109D01*
X104350979Y-71786401D01*
X104350977Y-71786408D01*
X104338129Y-71850999D01*
X102283870Y-71850999D01*
X102271022Y-71786408D01*
X102271020Y-71786401D01*
X102222021Y-71668109D01*
X102150888Y-71561649D01*
X102060350Y-71471111D01*
X101953890Y-71399978D01*
X101835598Y-71350979D01*
X101835591Y-71350977D01*
X101710018Y-71326000D01*
X101471000Y-71326000D01*
X101471000Y-71676000D01*
X101221000Y-71676000D01*
X101221000Y-71326000D01*
X100981982Y-71326000D01*
X100856408Y-71350977D01*
X100856401Y-71350979D01*
X100738109Y-71399978D01*
X100631649Y-71471111D01*
X100631648Y-71471113D01*
X100541113Y-71561648D01*
X100541111Y-71561649D01*
X100469978Y-71668109D01*
X100420979Y-71786401D01*
X100420977Y-71786408D01*
X100408129Y-71850999D01*
X98548500Y-71850999D01*
X98548500Y-70574236D01*
X98548635Y-70569768D01*
X98552928Y-70498787D01*
X98564631Y-70305310D01*
X98565705Y-70296462D01*
X98613063Y-70038040D01*
X98615193Y-70029397D01*
X98693351Y-69778582D01*
X98696508Y-69770255D01*
X98804335Y-69530674D01*
X98808479Y-69522780D01*
X98944382Y-69297968D01*
X98949458Y-69290615D01*
X98989555Y-69239435D01*
X99111471Y-69083820D01*
X99117382Y-69077148D01*
X99303148Y-68891382D01*
X99309820Y-68885471D01*
X99516616Y-68723457D01*
X99523969Y-68718382D01*
X99528209Y-68715819D01*
X99748780Y-68582479D01*
X99756674Y-68578335D01*
X99996255Y-68470508D01*
X100004582Y-68467351D01*
X100255397Y-68389193D01*
X100264040Y-68387063D01*
X100522462Y-68339705D01*
X100531310Y-68338631D01*
X100795768Y-68322634D01*
X100800236Y-68322500D01*
X124654461Y-68322500D01*
X124654465Y-68322500D01*
X124961452Y-68287911D01*
X125262636Y-68219168D01*
X125554229Y-68117135D01*
X125832565Y-67983095D01*
X126094143Y-67818735D01*
X126335674Y-67626120D01*
X126554120Y-67407674D01*
X126746735Y-67166143D01*
X126911095Y-66904565D01*
X126922867Y-66880118D01*
X126965096Y-66842378D01*
X127021644Y-66845552D01*
G37*
%TD.AperFunction*%
%TD*%
%TA.AperFunction,Conductor*%
%TO.N,/COM*%
G36*
X153263599Y-62484226D02*
G01*
X153302893Y-62486602D01*
X153465662Y-62496448D01*
X153480524Y-62498253D01*
X153551528Y-62511264D01*
X153732969Y-62544515D01*
X153747498Y-62548096D01*
X153992523Y-62624449D01*
X154006516Y-62629755D01*
X154240562Y-62735091D01*
X154253808Y-62742044D01*
X154473449Y-62874821D01*
X154485760Y-62883319D01*
X154655701Y-63016459D01*
X154687792Y-63041601D01*
X154699000Y-63051531D01*
X154880468Y-63232999D01*
X154890398Y-63244207D01*
X155048676Y-63446233D01*
X155057182Y-63458556D01*
X155189952Y-63678185D01*
X155196911Y-63691444D01*
X155302242Y-63925480D01*
X155307551Y-63939480D01*
X155383901Y-64184494D01*
X155387485Y-64199034D01*
X155433746Y-64451475D01*
X155435551Y-64466339D01*
X155447774Y-64668399D01*
X155448000Y-64675886D01*
X155448000Y-66642385D01*
X155447776Y-66649839D01*
X155435691Y-66850504D01*
X155433902Y-66865304D01*
X155388044Y-67116676D01*
X155384491Y-67131155D01*
X155308801Y-67375192D01*
X155303537Y-67389140D01*
X155199104Y-67622340D01*
X155192204Y-67635555D01*
X155060540Y-67854536D01*
X155052104Y-67866828D01*
X154895113Y-68068423D01*
X154885263Y-68079612D01*
X154705217Y-68260908D01*
X154694095Y-68270836D01*
X154493587Y-68429218D01*
X154481354Y-68437739D01*
X154263288Y-68570915D01*
X154250121Y-68577906D01*
X154017656Y-68683946D01*
X154003745Y-68689307D01*
X153760222Y-68766686D01*
X153745768Y-68770338D01*
X153494727Y-68817932D01*
X153479939Y-68819823D01*
X153273006Y-68833721D01*
X153264697Y-68834000D01*
X129758067Y-68834000D01*
X129749957Y-68833734D01*
X129435788Y-68813142D01*
X129419707Y-68811025D01*
X129114925Y-68750400D01*
X129099258Y-68746202D01*
X128804987Y-68646311D01*
X128790001Y-68640104D01*
X128511289Y-68502658D01*
X128497242Y-68494548D01*
X128238853Y-68321898D01*
X128225985Y-68312024D01*
X127992343Y-68107125D01*
X127980874Y-68095656D01*
X127775975Y-67862014D01*
X127766101Y-67849146D01*
X127754916Y-67832407D01*
X127593451Y-67590757D01*
X127585341Y-67576710D01*
X127578659Y-67563160D01*
X127447892Y-67297991D01*
X127441688Y-67283012D01*
X127341797Y-66988741D01*
X127337599Y-66973074D01*
X127313218Y-66850504D01*
X127276972Y-66668281D01*
X127274857Y-66652223D01*
X127254265Y-66338043D01*
X127254000Y-66329933D01*
X127254000Y-66181371D01*
X128550000Y-66181371D01*
X128550000Y-66931000D01*
X129165856Y-66931000D01*
X129150000Y-66990174D01*
X129150000Y-67121826D01*
X129165856Y-67181000D01*
X128550000Y-67181000D01*
X128550000Y-67930628D01*
X128564503Y-68003540D01*
X128564505Y-68003544D01*
X128619760Y-68086239D01*
X128702455Y-68141494D01*
X128702459Y-68141496D01*
X128775371Y-68155999D01*
X128775374Y-68156000D01*
X129525000Y-68156000D01*
X129525000Y-67540144D01*
X129584174Y-67556000D01*
X129715826Y-67556000D01*
X129775000Y-67540144D01*
X129775000Y-68156000D01*
X130524626Y-68156000D01*
X130524628Y-68155999D01*
X130597540Y-68141496D01*
X130597544Y-68141494D01*
X130680239Y-68086239D01*
X130735494Y-68003544D01*
X130735496Y-68003540D01*
X130749999Y-67930628D01*
X130750000Y-67930626D01*
X130750000Y-67181000D01*
X130134144Y-67181000D01*
X130150000Y-67121826D01*
X130150000Y-66990174D01*
X130134144Y-66931000D01*
X130750000Y-66931000D01*
X130750000Y-66368000D01*
X133467142Y-66368000D01*
X133486526Y-66564814D01*
X133543939Y-66754079D01*
X133637161Y-66928484D01*
X133637165Y-66928490D01*
X133682946Y-66984275D01*
X133682947Y-66984275D01*
X134045270Y-66621952D01*
X134075901Y-66675007D01*
X134168993Y-66768099D01*
X134222046Y-66798729D01*
X133859722Y-67161052D01*
X133915508Y-67206834D01*
X133915515Y-67206838D01*
X134089920Y-67300060D01*
X134279185Y-67357473D01*
X134476000Y-67376857D01*
X134672814Y-67357473D01*
X134862079Y-67300060D01*
X135036485Y-67206838D01*
X135036492Y-67206834D01*
X135092275Y-67161053D01*
X135092276Y-67161052D01*
X134729953Y-66798729D01*
X134783007Y-66768099D01*
X134876099Y-66675007D01*
X134906729Y-66621953D01*
X135269052Y-66984276D01*
X135269053Y-66984275D01*
X135314834Y-66928492D01*
X135314838Y-66928485D01*
X135408060Y-66754079D01*
X135465473Y-66564814D01*
X135484857Y-66368000D01*
X135465473Y-66171185D01*
X135408060Y-65981920D01*
X135314838Y-65807515D01*
X135314834Y-65807508D01*
X135269052Y-65751722D01*
X134906729Y-66114046D01*
X134876099Y-66060993D01*
X134783007Y-65967901D01*
X134729952Y-65937270D01*
X135092275Y-65574947D01*
X135092275Y-65574946D01*
X135036490Y-65529165D01*
X135036484Y-65529161D01*
X134862079Y-65435939D01*
X134672814Y-65378526D01*
X134476000Y-65359142D01*
X134279185Y-65378526D01*
X134089920Y-65435939D01*
X133915508Y-65529164D01*
X133859723Y-65574945D01*
X133859723Y-65574946D01*
X134222047Y-65937270D01*
X134168993Y-65967901D01*
X134075901Y-66060993D01*
X134045270Y-66114047D01*
X133682946Y-65751723D01*
X133682945Y-65751723D01*
X133637164Y-65807508D01*
X133543939Y-65981920D01*
X133486526Y-66171185D01*
X133467142Y-66368000D01*
X130750000Y-66368000D01*
X130750000Y-66181373D01*
X130749999Y-66181371D01*
X130735496Y-66108459D01*
X130735494Y-66108455D01*
X130680239Y-66025760D01*
X130597544Y-65970505D01*
X130597540Y-65970503D01*
X130524627Y-65956000D01*
X129775000Y-65956000D01*
X129775000Y-66571855D01*
X129715826Y-66556000D01*
X129584174Y-66556000D01*
X129525000Y-66571855D01*
X129525000Y-65956000D01*
X128775373Y-65956000D01*
X128702459Y-65970503D01*
X128702455Y-65970505D01*
X128619760Y-66025760D01*
X128564505Y-66108455D01*
X128564503Y-66108459D01*
X128550000Y-66181371D01*
X127254000Y-66181371D01*
X127254000Y-64675886D01*
X127254226Y-64668399D01*
X127266448Y-64466339D01*
X127268253Y-64451475D01*
X127289795Y-64333925D01*
X127314515Y-64199026D01*
X127318095Y-64184505D01*
X127394451Y-63939471D01*
X127399753Y-63925489D01*
X127505095Y-63691430D01*
X127512040Y-63678197D01*
X127534302Y-63641371D01*
X128550000Y-63641371D01*
X128550000Y-64391000D01*
X129165856Y-64391000D01*
X129150000Y-64450174D01*
X129150000Y-64581826D01*
X129165856Y-64641000D01*
X128550000Y-64641000D01*
X128550000Y-65390628D01*
X128564503Y-65463540D01*
X128564505Y-65463544D01*
X128619760Y-65546239D01*
X128702455Y-65601494D01*
X128702459Y-65601496D01*
X128775371Y-65615999D01*
X128775374Y-65616000D01*
X129525000Y-65616000D01*
X129525000Y-65000144D01*
X129584174Y-65016000D01*
X129715826Y-65016000D01*
X129775000Y-65000144D01*
X129775000Y-65616000D01*
X130524626Y-65616000D01*
X130524628Y-65615999D01*
X130597540Y-65601496D01*
X130597544Y-65601494D01*
X130680239Y-65546239D01*
X130735494Y-65463544D01*
X130735496Y-65463540D01*
X130749999Y-65390628D01*
X130750000Y-65390626D01*
X130750000Y-64641000D01*
X130134144Y-64641000D01*
X130150000Y-64581826D01*
X130150000Y-64450174D01*
X130134144Y-64391000D01*
X130750000Y-64391000D01*
X130750000Y-63641373D01*
X130749999Y-63641371D01*
X130735496Y-63568459D01*
X130735494Y-63568455D01*
X130680239Y-63485760D01*
X130597544Y-63430505D01*
X130597540Y-63430503D01*
X130524627Y-63416000D01*
X129775000Y-63416000D01*
X129775000Y-64031855D01*
X129715826Y-64016000D01*
X129584174Y-64016000D01*
X129525000Y-64031855D01*
X129525000Y-63416000D01*
X128775373Y-63416000D01*
X128702459Y-63430503D01*
X128702455Y-63430505D01*
X128619760Y-63485760D01*
X128564505Y-63568455D01*
X128564503Y-63568459D01*
X128550000Y-63641371D01*
X127534302Y-63641371D01*
X127644826Y-63458542D01*
X127653313Y-63446246D01*
X127811608Y-63244198D01*
X127821523Y-63233007D01*
X127965159Y-63089371D01*
X138472000Y-63089371D01*
X138472000Y-63743000D01*
X138991856Y-63743000D01*
X138976000Y-63802174D01*
X138976000Y-63933826D01*
X138991856Y-63993000D01*
X138472000Y-63993000D01*
X138472000Y-64646628D01*
X138486503Y-64719540D01*
X138486505Y-64719544D01*
X138541760Y-64802239D01*
X138624455Y-64857494D01*
X138624459Y-64857496D01*
X138697371Y-64871999D01*
X138697374Y-64872000D01*
X139351000Y-64872000D01*
X139351000Y-64352144D01*
X139410174Y-64368000D01*
X139541826Y-64368000D01*
X139601000Y-64352144D01*
X139601000Y-64872000D01*
X140254626Y-64872000D01*
X140254628Y-64871999D01*
X140327540Y-64857496D01*
X140327544Y-64857494D01*
X140410239Y-64802239D01*
X140465494Y-64719544D01*
X140465496Y-64719540D01*
X140479999Y-64646628D01*
X140480000Y-64646626D01*
X140480000Y-63993000D01*
X139960144Y-63993000D01*
X139976000Y-63933826D01*
X139976000Y-63802174D01*
X139960144Y-63743000D01*
X140480000Y-63743000D01*
X140480000Y-63089373D01*
X140479999Y-63089371D01*
X140465496Y-63016459D01*
X140465494Y-63016455D01*
X140410239Y-62933760D01*
X140327544Y-62878505D01*
X140327540Y-62878503D01*
X140254627Y-62864000D01*
X139601000Y-62864000D01*
X139601000Y-63383855D01*
X139541826Y-63368000D01*
X139410174Y-63368000D01*
X139351000Y-63383855D01*
X139351000Y-62864000D01*
X138697373Y-62864000D01*
X138624459Y-62878503D01*
X138624455Y-62878505D01*
X138541760Y-62933760D01*
X138486505Y-63016455D01*
X138486503Y-63016459D01*
X138472000Y-63089371D01*
X127965159Y-63089371D01*
X128003007Y-63051523D01*
X128014198Y-63041608D01*
X128216246Y-62883313D01*
X128228542Y-62874826D01*
X128448197Y-62742040D01*
X128461430Y-62735095D01*
X128695489Y-62629753D01*
X128709471Y-62624451D01*
X128954505Y-62548095D01*
X128969026Y-62544515D01*
X129221476Y-62498252D01*
X129236335Y-62496448D01*
X129409806Y-62485955D01*
X129438401Y-62484226D01*
X129445888Y-62484000D01*
X153256112Y-62484000D01*
X153263599Y-62484226D01*
G37*
%TD.AperFunction*%
%TD*%
%TA.AperFunction,Conductor*%
%TO.N,/+I*%
G36*
X138415039Y-83585685D02*
G01*
X138460794Y-83638489D01*
X138472000Y-83690000D01*
X138472000Y-84243000D01*
X138991856Y-84243000D01*
X138976000Y-84302174D01*
X138976000Y-84433826D01*
X138991856Y-84493000D01*
X138472000Y-84493000D01*
X138472000Y-85146628D01*
X138486503Y-85219540D01*
X138486505Y-85219544D01*
X138541760Y-85302239D01*
X138624455Y-85357494D01*
X138624459Y-85357496D01*
X138697371Y-85371999D01*
X138697374Y-85372000D01*
X139351000Y-85372000D01*
X139351000Y-84852144D01*
X139410174Y-84868000D01*
X139541826Y-84868000D01*
X139601000Y-84852144D01*
X139601000Y-85372000D01*
X140254626Y-85372000D01*
X140254628Y-85371999D01*
X140327540Y-85357496D01*
X140327544Y-85357494D01*
X140410239Y-85302239D01*
X140465494Y-85219544D01*
X140465496Y-85219540D01*
X140479999Y-85146628D01*
X140480000Y-85146626D01*
X140480000Y-84493000D01*
X139960144Y-84493000D01*
X139976000Y-84433826D01*
X139976000Y-84302174D01*
X139960144Y-84243000D01*
X140480000Y-84243000D01*
X140480000Y-83690000D01*
X140499685Y-83622961D01*
X140552489Y-83577206D01*
X140604000Y-83566000D01*
X147304648Y-83566000D01*
X147322296Y-83567262D01*
X147424778Y-83581998D01*
X147488155Y-83581998D01*
X147490299Y-83582206D01*
X147501014Y-83582169D01*
X147501016Y-83582170D01*
X147550002Y-83582000D01*
X147550430Y-83582000D01*
X147603548Y-83582000D01*
X147605677Y-83581808D01*
X152187514Y-83566000D01*
X152187942Y-83566000D01*
X153256461Y-83566000D01*
X153263976Y-83566228D01*
X153281005Y-83567262D01*
X153466160Y-83578504D01*
X153481006Y-83580311D01*
X153733414Y-83626621D01*
X153747930Y-83630202D01*
X153992915Y-83706594D01*
X154006891Y-83711897D01*
X154113476Y-83759889D01*
X154240887Y-83817259D01*
X154254142Y-83824219D01*
X154473725Y-83957008D01*
X154486031Y-83965505D01*
X154688002Y-84123783D01*
X154699205Y-84133709D01*
X154783541Y-84218065D01*
X154880639Y-84315187D01*
X154890565Y-84326394D01*
X155048797Y-84528403D01*
X155057301Y-84540726D01*
X155190031Y-84760329D01*
X155196988Y-84773586D01*
X155302288Y-85007593D01*
X155307596Y-85021593D01*
X155383924Y-85266582D01*
X155387506Y-85281117D01*
X155433753Y-85533511D01*
X155435558Y-85548374D01*
X155447774Y-85750356D01*
X155448000Y-85757842D01*
X155448000Y-87724112D01*
X155447774Y-87731599D01*
X155435551Y-87933660D01*
X155433746Y-87948524D01*
X155387485Y-88200965D01*
X155383901Y-88215505D01*
X155307551Y-88460519D01*
X155302242Y-88474519D01*
X155196911Y-88708555D01*
X155189952Y-88721814D01*
X155057182Y-88941443D01*
X155048676Y-88953766D01*
X154890398Y-89155792D01*
X154880468Y-89167000D01*
X154699000Y-89348468D01*
X154687792Y-89358398D01*
X154485766Y-89516676D01*
X154473443Y-89525182D01*
X154253814Y-89657952D01*
X154240555Y-89664911D01*
X154006519Y-89770242D01*
X153992519Y-89775551D01*
X153747505Y-89851901D01*
X153732965Y-89855485D01*
X153480524Y-89901746D01*
X153465660Y-89903551D01*
X153263599Y-89915774D01*
X153256112Y-89916000D01*
X129445888Y-89916000D01*
X129438401Y-89915774D01*
X129236339Y-89903551D01*
X129221475Y-89901746D01*
X128969034Y-89855485D01*
X128954494Y-89851901D01*
X128709480Y-89775551D01*
X128695480Y-89770242D01*
X128461444Y-89664911D01*
X128448185Y-89657952D01*
X128228556Y-89525182D01*
X128216233Y-89516676D01*
X128014207Y-89358398D01*
X128002999Y-89348468D01*
X127821531Y-89167000D01*
X127811601Y-89155792D01*
X127677010Y-88984000D01*
X127653319Y-88953760D01*
X127644821Y-88941449D01*
X127512044Y-88721808D01*
X127505091Y-88708562D01*
X127399755Y-88474516D01*
X127394448Y-88460519D01*
X127318096Y-88215498D01*
X127314514Y-88200965D01*
X127301775Y-88131452D01*
X127281264Y-88019528D01*
X127268253Y-87948524D01*
X127266448Y-87933660D01*
X127254226Y-87731599D01*
X127254000Y-87724112D01*
X127254000Y-87009371D01*
X128550000Y-87009371D01*
X128550000Y-87759000D01*
X129165856Y-87759000D01*
X129150000Y-87818174D01*
X129150000Y-87949826D01*
X129165856Y-88009000D01*
X128550000Y-88009000D01*
X128550000Y-88758628D01*
X128564503Y-88831540D01*
X128564505Y-88831544D01*
X128619760Y-88914239D01*
X128702455Y-88969494D01*
X128702459Y-88969496D01*
X128775371Y-88983999D01*
X128775374Y-88984000D01*
X129525000Y-88984000D01*
X129525000Y-88368144D01*
X129584174Y-88384000D01*
X129715826Y-88384000D01*
X129775000Y-88368144D01*
X129775000Y-88984000D01*
X130524626Y-88984000D01*
X130524628Y-88983999D01*
X130597540Y-88969496D01*
X130597544Y-88969494D01*
X130680239Y-88914239D01*
X130735494Y-88831544D01*
X130735496Y-88831540D01*
X130749999Y-88758628D01*
X130750000Y-88758626D01*
X130750000Y-88009000D01*
X130134144Y-88009000D01*
X130150000Y-87949826D01*
X130150000Y-87818174D01*
X130134144Y-87759000D01*
X130750000Y-87759000D01*
X130750000Y-87009373D01*
X130749999Y-87009371D01*
X130735496Y-86936459D01*
X130735494Y-86936455D01*
X130689754Y-86868000D01*
X133467142Y-86868000D01*
X133486526Y-87064814D01*
X133543939Y-87254079D01*
X133637161Y-87428484D01*
X133637165Y-87428490D01*
X133682946Y-87484275D01*
X133682947Y-87484275D01*
X134045270Y-87121952D01*
X134075901Y-87175007D01*
X134168993Y-87268099D01*
X134222046Y-87298729D01*
X133859722Y-87661052D01*
X133915508Y-87706834D01*
X133915515Y-87706838D01*
X134089920Y-87800060D01*
X134279185Y-87857473D01*
X134476000Y-87876857D01*
X134672814Y-87857473D01*
X134862079Y-87800060D01*
X135036485Y-87706838D01*
X135036492Y-87706834D01*
X135092275Y-87661053D01*
X135092276Y-87661052D01*
X134729953Y-87298729D01*
X134783007Y-87268099D01*
X134876099Y-87175007D01*
X134906729Y-87121953D01*
X135269052Y-87484276D01*
X135269053Y-87484275D01*
X135314834Y-87428492D01*
X135314838Y-87428485D01*
X135408060Y-87254079D01*
X135465473Y-87064814D01*
X135484857Y-86868000D01*
X135465473Y-86671185D01*
X135408060Y-86481920D01*
X135314838Y-86307515D01*
X135314834Y-86307508D01*
X135269052Y-86251722D01*
X134906729Y-86614046D01*
X134876099Y-86560993D01*
X134783007Y-86467901D01*
X134729952Y-86437270D01*
X135092275Y-86074947D01*
X135092275Y-86074946D01*
X135036490Y-86029165D01*
X135036484Y-86029161D01*
X134862079Y-85935939D01*
X134672814Y-85878526D01*
X134476000Y-85859142D01*
X134279185Y-85878526D01*
X134089920Y-85935939D01*
X133915508Y-86029164D01*
X133859723Y-86074945D01*
X133859723Y-86074946D01*
X134222047Y-86437270D01*
X134168993Y-86467901D01*
X134075901Y-86560993D01*
X134045270Y-86614046D01*
X133682946Y-86251723D01*
X133682945Y-86251723D01*
X133637164Y-86307508D01*
X133543939Y-86481920D01*
X133486526Y-86671185D01*
X133467142Y-86868000D01*
X130689754Y-86868000D01*
X130680239Y-86853760D01*
X130597544Y-86798505D01*
X130597540Y-86798503D01*
X130524627Y-86784000D01*
X129775000Y-86784000D01*
X129775000Y-87399855D01*
X129715826Y-87384000D01*
X129584174Y-87384000D01*
X129525000Y-87399855D01*
X129525000Y-86784000D01*
X128775373Y-86784000D01*
X128702459Y-86798503D01*
X128702455Y-86798505D01*
X128619760Y-86853760D01*
X128564505Y-86936455D01*
X128564503Y-86936459D01*
X128550000Y-87009371D01*
X127254000Y-87009371D01*
X127254000Y-86070066D01*
X127254265Y-86061956D01*
X127256414Y-86029164D01*
X127274857Y-85747774D01*
X127276972Y-85731720D01*
X127337599Y-85426923D01*
X127341797Y-85411258D01*
X127406876Y-85219540D01*
X127441691Y-85116979D01*
X127447889Y-85102014D01*
X127585344Y-84823283D01*
X127593447Y-84809248D01*
X127766109Y-84550841D01*
X127775966Y-84537995D01*
X127836148Y-84469371D01*
X128550000Y-84469371D01*
X128550000Y-85219000D01*
X129165856Y-85219000D01*
X129150000Y-85278174D01*
X129150000Y-85409826D01*
X129165856Y-85469000D01*
X128550000Y-85469000D01*
X128550000Y-86218628D01*
X128564503Y-86291540D01*
X128564505Y-86291544D01*
X128619760Y-86374239D01*
X128702455Y-86429494D01*
X128702459Y-86429496D01*
X128775371Y-86443999D01*
X128775374Y-86444000D01*
X129525000Y-86444000D01*
X129525000Y-85828144D01*
X129584174Y-85844000D01*
X129715826Y-85844000D01*
X129775000Y-85828144D01*
X129775000Y-86444000D01*
X130524626Y-86444000D01*
X130524628Y-86443999D01*
X130597540Y-86429496D01*
X130597544Y-86429494D01*
X130680239Y-86374239D01*
X130735494Y-86291544D01*
X130735496Y-86291540D01*
X130749999Y-86218628D01*
X130750000Y-86218626D01*
X130750000Y-85469000D01*
X130134144Y-85469000D01*
X130150000Y-85409826D01*
X130150000Y-85278174D01*
X130134144Y-85219000D01*
X130750000Y-85219000D01*
X130750000Y-84469373D01*
X130749999Y-84469371D01*
X130735496Y-84396459D01*
X130735494Y-84396455D01*
X130680239Y-84313760D01*
X130597544Y-84258505D01*
X130597540Y-84258503D01*
X130524627Y-84244000D01*
X129775000Y-84244000D01*
X129775000Y-84859855D01*
X129715826Y-84844000D01*
X129584174Y-84844000D01*
X129525000Y-84859855D01*
X129525000Y-84244000D01*
X128775373Y-84244000D01*
X128702459Y-84258503D01*
X128702455Y-84258505D01*
X128619760Y-84313760D01*
X128564505Y-84396455D01*
X128564503Y-84396459D01*
X128550000Y-84469371D01*
X127836148Y-84469371D01*
X127980879Y-84304337D01*
X127992337Y-84292879D01*
X128225995Y-84087966D01*
X128238841Y-84078109D01*
X128497248Y-83905447D01*
X128511283Y-83897344D01*
X128790014Y-83759889D01*
X128804979Y-83753691D01*
X129012206Y-83683346D01*
X129099258Y-83653797D01*
X129114925Y-83649599D01*
X129419720Y-83588972D01*
X129435774Y-83586857D01*
X129749957Y-83566265D01*
X129758067Y-83566000D01*
X138348000Y-83566000D01*
X138415039Y-83585685D01*
G37*
%TD.AperFunction*%
%TD*%
%TA.AperFunction,Conductor*%
%TO.N,VCC*%
G36*
X108376826Y-72665674D02*
G01*
X108398500Y-72718000D01*
X108398500Y-73254674D01*
X108403340Y-73279006D01*
X108413034Y-73327740D01*
X108462213Y-73401344D01*
X108468399Y-73410601D01*
X108551260Y-73465966D01*
X108624326Y-73480500D01*
X108624328Y-73480500D01*
X109273000Y-73480500D01*
X109325326Y-73502174D01*
X109347000Y-73554500D01*
X109347000Y-73767402D01*
X109325326Y-73819728D01*
X109286597Y-73840142D01*
X109196544Y-73856976D01*
X109196542Y-73856976D01*
X109196540Y-73856977D01*
X109006368Y-73930650D01*
X109006363Y-73930652D01*
X109006358Y-73930654D01*
X109006358Y-73930655D01*
X108832958Y-74038019D01*
X108832957Y-74038019D01*
X108682235Y-74175420D01*
X108682234Y-74175421D01*
X108559329Y-74338174D01*
X108559328Y-74338177D01*
X108468418Y-74520750D01*
X108468416Y-74520755D01*
X108412602Y-74716917D01*
X108412601Y-74716923D01*
X108393785Y-74919996D01*
X108393785Y-74920003D01*
X108412601Y-75123076D01*
X108412602Y-75123082D01*
X108468416Y-75319244D01*
X108468418Y-75319250D01*
X108559327Y-75501821D01*
X108559328Y-75501822D01*
X108559329Y-75501825D01*
X108682234Y-75664578D01*
X108682235Y-75664579D01*
X108730622Y-75708689D01*
X108832959Y-75801981D01*
X109006363Y-75909348D01*
X109196544Y-75983024D01*
X109397024Y-76020500D01*
X109397026Y-76020500D01*
X109600974Y-76020500D01*
X109600976Y-76020500D01*
X109801456Y-75983024D01*
X109991637Y-75909348D01*
X110165041Y-75801981D01*
X110315764Y-75664579D01*
X110319150Y-75660096D01*
X110438670Y-75501825D01*
X110438670Y-75501824D01*
X110438673Y-75501821D01*
X110529582Y-75319250D01*
X110552771Y-75237748D01*
X110587937Y-75193352D01*
X110623946Y-75184000D01*
X112178363Y-75184000D01*
X112230689Y-75205674D01*
X112249538Y-75237749D01*
X112272725Y-75319244D01*
X112278418Y-75339250D01*
X112369327Y-75521821D01*
X112369328Y-75521822D01*
X112369329Y-75521825D01*
X112492234Y-75684578D01*
X112492235Y-75684579D01*
X112518683Y-75708689D01*
X112642959Y-75821981D01*
X112816363Y-75929348D01*
X113006544Y-76003024D01*
X113207024Y-76040500D01*
X113207026Y-76040500D01*
X113410974Y-76040500D01*
X113410976Y-76040500D01*
X113611456Y-76003024D01*
X113801637Y-75929348D01*
X113975041Y-75821981D01*
X114125764Y-75684579D01*
X114144260Y-75660087D01*
X114248670Y-75521825D01*
X114248670Y-75521824D01*
X114248673Y-75521821D01*
X114339582Y-75339250D01*
X114368462Y-75237749D01*
X114403628Y-75193352D01*
X114439637Y-75184000D01*
X115631102Y-75184000D01*
X115632875Y-75184021D01*
X115635212Y-75184077D01*
X115703223Y-75185707D01*
X115717907Y-75187540D01*
X115855909Y-75219039D01*
X115871538Y-75224508D01*
X115998261Y-75285534D01*
X116012284Y-75294345D01*
X116122251Y-75382042D01*
X116133957Y-75393748D01*
X116221652Y-75503713D01*
X116230466Y-75517740D01*
X116291489Y-75644456D01*
X116296962Y-75660096D01*
X116328458Y-75798087D01*
X116330292Y-75812780D01*
X116331979Y-75883124D01*
X116332000Y-75884898D01*
X116332000Y-76388988D01*
X116333885Y-76467655D01*
X116368893Y-76621031D01*
X116368894Y-76621033D01*
X116437149Y-76762768D01*
X116437150Y-76762769D01*
X116535236Y-76885764D01*
X116658231Y-76983850D01*
X116799969Y-77052107D01*
X116953341Y-77087114D01*
X117032000Y-77089000D01*
X123886989Y-77089000D01*
X123887000Y-77089000D01*
X123965659Y-77087114D01*
X124119031Y-77052107D01*
X124260769Y-76983850D01*
X124383764Y-76885764D01*
X124481850Y-76762769D01*
X124550107Y-76621031D01*
X124585114Y-76467659D01*
X124587000Y-76389000D01*
X124587000Y-75884898D01*
X124587021Y-75883125D01*
X124588487Y-75821980D01*
X124588707Y-75812774D01*
X124590540Y-75798093D01*
X124622039Y-75660087D01*
X124627507Y-75644463D01*
X124688536Y-75517734D01*
X124697342Y-75503719D01*
X124785046Y-75393743D01*
X124796743Y-75382046D01*
X124906719Y-75294342D01*
X124920734Y-75285536D01*
X125047463Y-75224507D01*
X125063087Y-75219039D01*
X125201093Y-75187540D01*
X125215774Y-75185707D01*
X125283876Y-75184074D01*
X125286125Y-75184021D01*
X125287898Y-75184000D01*
X137856102Y-75184000D01*
X137857875Y-75184021D01*
X137860212Y-75184077D01*
X137928223Y-75185707D01*
X137942907Y-75187540D01*
X138080909Y-75219039D01*
X138096538Y-75224508D01*
X138223261Y-75285534D01*
X138237284Y-75294345D01*
X138347251Y-75382042D01*
X138358957Y-75393748D01*
X138446652Y-75503713D01*
X138455466Y-75517740D01*
X138516489Y-75644456D01*
X138521962Y-75660096D01*
X138553458Y-75798087D01*
X138555292Y-75812780D01*
X138556979Y-75883124D01*
X138557000Y-75884898D01*
X138557000Y-78963347D01*
X138535326Y-79015673D01*
X137632701Y-79918297D01*
X137625425Y-79924678D01*
X137529380Y-79998378D01*
X137529378Y-79998380D01*
X137455678Y-80094425D01*
X137449297Y-80101701D01*
X137308674Y-80242326D01*
X137256349Y-80264000D01*
X115344396Y-80264000D01*
X115294893Y-80245004D01*
X115291917Y-80242326D01*
X114046000Y-79121000D01*
X113968609Y-79121000D01*
X113929653Y-79109916D01*
X113801637Y-79030652D01*
X113611456Y-78956976D01*
X113523407Y-78940516D01*
X113410979Y-78919500D01*
X113410976Y-78919500D01*
X113207024Y-78919500D01*
X113207020Y-78919500D01*
X113057116Y-78947522D01*
X113006544Y-78956976D01*
X113006542Y-78956976D01*
X113006540Y-78956977D01*
X112816368Y-79030650D01*
X112816363Y-79030652D01*
X112816358Y-79030654D01*
X112816358Y-79030655D01*
X112688347Y-79109916D01*
X112649391Y-79121000D01*
X110190910Y-79121000D01*
X110151954Y-79109916D01*
X109991637Y-79010652D01*
X109801456Y-78936976D01*
X109707967Y-78919500D01*
X109600979Y-78899500D01*
X109600976Y-78899500D01*
X109397024Y-78899500D01*
X109397020Y-78899500D01*
X109247116Y-78927522D01*
X109196544Y-78936976D01*
X109196542Y-78936976D01*
X109196540Y-78936977D01*
X109006368Y-79010650D01*
X109006363Y-79010652D01*
X109006358Y-79010654D01*
X109006358Y-79010655D01*
X108832958Y-79118019D01*
X108832957Y-79118019D01*
X108682240Y-79255416D01*
X108616417Y-79342578D01*
X108609690Y-79350308D01*
X107717674Y-80242326D01*
X107665348Y-80264000D01*
X106872898Y-80264000D01*
X106871124Y-80263979D01*
X106800775Y-80262292D01*
X106786090Y-80260459D01*
X106761651Y-80254880D01*
X106716591Y-80223849D01*
X106703789Y-80204690D01*
X106658951Y-80137584D01*
X106554416Y-80033049D01*
X106502531Y-79998380D01*
X106431494Y-79950915D01*
X106294915Y-79894342D01*
X106294905Y-79894339D01*
X106288348Y-79893035D01*
X106241258Y-79861565D01*
X106236118Y-79852565D01*
X106212511Y-79803543D01*
X106207038Y-79787903D01*
X106175541Y-79649912D01*
X106173707Y-79635223D01*
X106172021Y-79564874D01*
X106172000Y-79563101D01*
X106172000Y-77459996D01*
X108393785Y-77459996D01*
X108393785Y-77460003D01*
X108412601Y-77663076D01*
X108412602Y-77663082D01*
X108468416Y-77859244D01*
X108468418Y-77859250D01*
X108559327Y-78041821D01*
X108559328Y-78041822D01*
X108559329Y-78041825D01*
X108682234Y-78204578D01*
X108682235Y-78204579D01*
X108803895Y-78315486D01*
X108832959Y-78341981D01*
X109006363Y-78449348D01*
X109196544Y-78523024D01*
X109397024Y-78560500D01*
X109397026Y-78560500D01*
X109600974Y-78560500D01*
X109600976Y-78560500D01*
X109801456Y-78523024D01*
X109991637Y-78449348D01*
X110165041Y-78341981D01*
X110315764Y-78204579D01*
X110326377Y-78190526D01*
X110438670Y-78041825D01*
X110438670Y-78041824D01*
X110438673Y-78041821D01*
X110529582Y-77859250D01*
X110585397Y-77663083D01*
X110596263Y-77545826D01*
X110604215Y-77460003D01*
X110604215Y-77459996D01*
X110594486Y-77355000D01*
X112316473Y-77355000D01*
X112824856Y-77355000D01*
X112809000Y-77414174D01*
X112809000Y-77545826D01*
X112824856Y-77605000D01*
X112316473Y-77605000D01*
X112323469Y-77676035D01*
X112380651Y-77864539D01*
X112473504Y-78038252D01*
X112473513Y-78038266D01*
X112598471Y-78190526D01*
X112598473Y-78190528D01*
X112750733Y-78315486D01*
X112750747Y-78315495D01*
X112924460Y-78408348D01*
X113112964Y-78465530D01*
X113184000Y-78472526D01*
X113184000Y-77964144D01*
X113243174Y-77980000D01*
X113374826Y-77980000D01*
X113434000Y-77964144D01*
X113434000Y-78472526D01*
X113505035Y-78465530D01*
X113693539Y-78408348D01*
X113867252Y-78315495D01*
X113867266Y-78315486D01*
X114019526Y-78190528D01*
X114019528Y-78190526D01*
X114144486Y-78038266D01*
X114144495Y-78038252D01*
X114237348Y-77864539D01*
X114294530Y-77676035D01*
X114301527Y-77605000D01*
X113793144Y-77605000D01*
X113809000Y-77545826D01*
X113809000Y-77414174D01*
X113793144Y-77355000D01*
X114301526Y-77355000D01*
X114294530Y-77283964D01*
X114237348Y-77095460D01*
X114144495Y-76921747D01*
X114144486Y-76921733D01*
X114019528Y-76769473D01*
X114019526Y-76769471D01*
X113867266Y-76644513D01*
X113867252Y-76644504D01*
X113693539Y-76551651D01*
X113505034Y-76494469D01*
X113505036Y-76494469D01*
X113434000Y-76487472D01*
X113434000Y-76995855D01*
X113374826Y-76980000D01*
X113243174Y-76980000D01*
X113184000Y-76995855D01*
X113184000Y-76487472D01*
X113112964Y-76494469D01*
X112924460Y-76551651D01*
X112750747Y-76644504D01*
X112750733Y-76644513D01*
X112598473Y-76769471D01*
X112598471Y-76769473D01*
X112473513Y-76921733D01*
X112473504Y-76921747D01*
X112380651Y-77095460D01*
X112323469Y-77283964D01*
X112316473Y-77355000D01*
X110594486Y-77355000D01*
X110585398Y-77256923D01*
X110585397Y-77256917D01*
X110529583Y-77060755D01*
X110529582Y-77060750D01*
X110438673Y-76878179D01*
X110438670Y-76878175D01*
X110438670Y-76878174D01*
X110315765Y-76715421D01*
X110315764Y-76715420D01*
X110165041Y-76578019D01*
X110122455Y-76551651D01*
X109991637Y-76470652D01*
X109801456Y-76396976D01*
X109713407Y-76380516D01*
X109600979Y-76359500D01*
X109600976Y-76359500D01*
X109397024Y-76359500D01*
X109397020Y-76359500D01*
X109247116Y-76387522D01*
X109196544Y-76396976D01*
X109196542Y-76396976D01*
X109196540Y-76396977D01*
X109014099Y-76467655D01*
X109006363Y-76470652D01*
X109006358Y-76470654D01*
X109006358Y-76470655D01*
X108832958Y-76578019D01*
X108832957Y-76578019D01*
X108682235Y-76715420D01*
X108682234Y-76715421D01*
X108559329Y-76878174D01*
X108559328Y-76878177D01*
X108468418Y-77060750D01*
X108468416Y-77060755D01*
X108412602Y-77256917D01*
X108412601Y-77256923D01*
X108393785Y-77459996D01*
X106172000Y-77459996D01*
X106172000Y-73344898D01*
X106172021Y-73343125D01*
X106172390Y-73327740D01*
X106173707Y-73272774D01*
X106175540Y-73258093D01*
X106207039Y-73120087D01*
X106212507Y-73104463D01*
X106273536Y-72977734D01*
X106282342Y-72963719D01*
X106370046Y-72853743D01*
X106381743Y-72842046D01*
X106491719Y-72754342D01*
X106505734Y-72745536D01*
X106632463Y-72684507D01*
X106648087Y-72679039D01*
X106786093Y-72647540D01*
X106800774Y-72645707D01*
X106868876Y-72644074D01*
X106871125Y-72644021D01*
X106872898Y-72644000D01*
X108324500Y-72644000D01*
X108376826Y-72665674D01*
G37*
%TD.AperFunction*%
%TD*%
D20*
X137922000Y-80391000D03*
X134493000Y-76454000D03*
X133604000Y-75819000D03*
X133604000Y-77089000D03*
X135509000Y-77089000D03*
X136398000Y-76454000D03*
X118364002Y-72237600D03*
X153162000Y-87630000D03*
X153162000Y-86106000D03*
X153162000Y-66548000D03*
X153162000Y-65786000D03*
X153162002Y-86868000D03*
X153162000Y-65024000D03*
X125704000Y-73294514D03*
X107696000Y-73914000D03*
X107696000Y-78740000D03*
X122300994Y-78105000D03*
X135509000Y-75819000D03*
X122936008Y-74017463D03*
X140645000Y-80137000D03*
X126542911Y-82473911D03*
X122936000Y-75564980D03*
X116840000Y-73279006D03*
X138684000Y-71628000D03*
X142748000Y-71628038D03*
X111252005Y-81534005D03*
X144272000Y-72389984D03*
D21*
X129650000Y-87884000D03*
X129650000Y-64516000D03*
X134476000Y-86868000D03*
X139476000Y-84368000D03*
X105026000Y-73406000D03*
X105026000Y-79186000D03*
D22*
X105526000Y-71976000D03*
D23*
X101346000Y-71976000D03*
D22*
X105526000Y-80616000D03*
D23*
X101346000Y-80616000D03*
D21*
X129650000Y-67056000D03*
X113309000Y-72400000D03*
X113309000Y-74940000D03*
X113309000Y-77480000D03*
X113309000Y-80020000D03*
X129650000Y-85344000D03*
X109499000Y-72380000D03*
X109499000Y-74920000D03*
X109499000Y-77460000D03*
X109499000Y-80000000D03*
X134476000Y-66368000D03*
X139476000Y-63868000D03*
M02*
