M48
; DRILL file {KiCad 8.0.6} date 2025-01-03T23:58:44+0000
; FORMAT={-:-/ absolute / metric / decimal}
; #@! TF.CreationDate,2025-01-03T23:58:44+00:00
; #@! TF.GenerationSoftware,Kicad,Pcbnew,8.0.6
; #@! TF.FileFunction,MixedPlating,1,2
FMAT,2
METRIC
; #@! TA.AperFunction,Plated,PTH,ViaDrill
T1C0.300
; #@! TA.AperFunction,Plated,PTH,ComponentDrill
T2C0.600
; #@! TA.AperFunction,Plated,PTH,ComponentDrill
T3C1.000
; #@! TA.AperFunction,NonPlated,NPTH,ComponentDrill
T4C0.650
%
G90
G05
T1
X107.696Y-73.914
X107.696Y-78.74
X111.252Y-81.534
X116.84Y-73.279
X118.364Y-72.238
X122.301Y-78.105
X122.936Y-75.565
X122.936Y-74.017
X125.704Y-73.295
X126.543Y-82.474
X133.604Y-75.819
X133.604Y-77.089
X134.493Y-76.454
X135.509Y-75.819
X135.509Y-77.089
X136.398Y-76.454
X137.922Y-80.391
X138.684Y-71.628
X140.645Y-80.137
X142.748Y-71.628
X144.272Y-72.39
X153.162Y-65.024
X153.162Y-65.786
X153.162Y-66.548
X153.162Y-86.106
X153.162Y-87.63
X153.162Y-86.868
T3
X109.499Y-72.38
X109.499Y-74.92
X109.499Y-77.46
X109.499Y-80.0
X113.309Y-72.4
X113.309Y-74.94
X113.309Y-77.48
X113.309Y-80.02
X129.65Y-64.516
X129.65Y-67.056
X129.65Y-85.344
X129.65Y-87.884
X134.476Y-66.368
X134.476Y-86.868
X139.476Y-63.868
X139.476Y-84.368
T4
X105.026Y-73.406
X105.026Y-79.186
T2
G00X101.646Y-71.976
M15
G01X101.046Y-71.976
M16
G05
G00X101.646Y-80.616
M15
G01X101.046Y-80.616
M16
G05
G00X106.076Y-71.976
M15
G01X104.976Y-71.976
M16
G05
G00X106.076Y-80.616
M15
G01X104.976Y-80.616
M16
G05
M30
