%TF.GenerationSoftware,KiCad,Pcbnew,8.0.6*%
%TF.CreationDate,2025-01-03T23:58:44+00:00*%
%TF.ProjectId,Mini_Ammete,4d696e69-5f41-46d6-9d65-74652e6b6963,rev?*%
%TF.SameCoordinates,Original*%
%TF.FileFunction,Paste,Top*%
%TF.FilePolarity,Positive*%
%FSLAX46Y46*%
G04 Gerber Fmt 4.6, Leading zero omitted, Abs format (unit mm)*
G04 Created by KiCad (PCBNEW 8.0.6) date 2025-01-03 23:58:44*
%MOMM*%
%LPD*%
G01*
G04 APERTURE LIST*
G04 Aperture macros list*
%AMRoundRect*
0 Rectangle with rounded corners*
0 $1 Rounding radius*
0 $2 $3 $4 $5 $6 $7 $8 $9 X,Y pos of 4 corners*
0 Add a 4 corners polygon primitive as box body*
4,1,4,$2,$3,$4,$5,$6,$7,$8,$9,$2,$3,0*
0 Add four circle primitives for the rounded corners*
1,1,$1+$1,$2,$3*
1,1,$1+$1,$4,$5*
1,1,$1+$1,$6,$7*
1,1,$1+$1,$8,$9*
0 Add four rect primitives between the rounded corners*
20,1,$1+$1,$2,$3,$4,$5,0*
20,1,$1+$1,$4,$5,$6,$7,0*
20,1,$1+$1,$6,$7,$8,$9,0*
20,1,$1+$1,$8,$9,$2,$3,0*%
G04 Aperture macros list end*
%ADD10RoundRect,0.250000X0.450000X-0.350000X0.450000X0.350000X-0.450000X0.350000X-0.450000X-0.350000X0*%
%ADD11RoundRect,0.250000X-0.450000X0.350000X-0.450000X-0.350000X0.450000X-0.350000X0.450000X0.350000X0*%
%ADD12RoundRect,0.237500X-0.237500X0.300000X-0.237500X-0.300000X0.237500X-0.300000X0.237500X0.300000X0*%
%ADD13RoundRect,0.250000X0.350000X0.450000X-0.350000X0.450000X-0.350000X-0.450000X0.350000X-0.450000X0*%
%ADD14RoundRect,0.150000X-0.500000X0.150000X-0.500000X-0.150000X0.500000X-0.150000X0.500000X0.150000X0*%
%ADD15RoundRect,0.075000X-0.575000X0.075000X-0.575000X-0.075000X0.575000X-0.075000X0.575000X0.075000X0*%
%ADD16RoundRect,0.237500X0.237500X-0.300000X0.237500X0.300000X-0.237500X0.300000X-0.237500X-0.300000X0*%
%ADD17RoundRect,0.250000X-0.350000X-0.450000X0.350000X-0.450000X0.350000X0.450000X-0.350000X0.450000X0*%
%ADD18RoundRect,0.250000X0.475000X-0.337500X0.475000X0.337500X-0.475000X0.337500X-0.475000X-0.337500X0*%
%ADD19RoundRect,0.100000X-0.100000X0.637500X-0.100000X-0.637500X0.100000X-0.637500X0.100000X0.637500X0*%
%ADD20RoundRect,0.249999X1.425001X-0.450001X1.425001X0.450001X-1.425001X0.450001X-1.425001X-0.450001X0*%
%ADD21RoundRect,0.250000X-0.450000X0.325000X-0.450000X-0.325000X0.450000X-0.325000X0.450000X0.325000X0*%
%ADD22RoundRect,0.250000X0.625000X-0.400000X0.625000X0.400000X-0.625000X0.400000X-0.625000X-0.400000X0*%
%ADD23RoundRect,0.150000X0.825000X0.150000X-0.825000X0.150000X-0.825000X-0.150000X0.825000X-0.150000X0*%
G04 APERTURE END LIST*
D10*
%TO.C,R16*%
X116840000Y-70120000D03*
X116840000Y-72120000D03*
%TD*%
D11*
%TO.C,R13*%
X119888000Y-72120000D03*
X119888000Y-70120000D03*
%TD*%
D12*
%TO.C,C6*%
X124206000Y-70257500D03*
X124206000Y-71982500D03*
%TD*%
D13*
%TO.C,R6*%
X104467000Y-82646000D03*
X106467000Y-82646000D03*
%TD*%
%TO.C,R14*%
X144002000Y-81788000D03*
X142002000Y-81788000D03*
%TD*%
D14*
%TO.C,J1*%
X106166000Y-73096000D03*
X106166000Y-73896000D03*
D15*
X106166000Y-75046000D03*
X106166000Y-76046000D03*
X106166000Y-76546000D03*
X106166000Y-77546000D03*
D14*
X106166000Y-78696000D03*
X106166000Y-79496000D03*
X106166000Y-79496000D03*
X106166000Y-78696000D03*
D15*
X106166000Y-78046000D03*
X106166000Y-77046000D03*
X106166000Y-75546000D03*
X106166000Y-74546000D03*
D14*
X106166000Y-73896000D03*
X106166000Y-73096000D03*
%TD*%
D13*
%TO.C,R11*%
X139954000Y-81788000D03*
X137954000Y-81788000D03*
%TD*%
D16*
%TO.C,C4*%
X121158000Y-80772000D03*
X121158000Y-82497000D03*
%TD*%
D11*
%TO.C,R2*%
X124968000Y-82634500D03*
X124968000Y-80634500D03*
%TD*%
D17*
%TO.C,R8*%
X137700000Y-70612000D03*
X139700000Y-70612000D03*
%TD*%
D10*
%TO.C,R3*%
X128270000Y-81010000D03*
X128270000Y-79010000D03*
%TD*%
D16*
%TO.C,C5*%
X128270000Y-77062500D03*
X128270000Y-75337500D03*
%TD*%
D18*
%TO.C,C1*%
X137922000Y-73130500D03*
X137922000Y-75205500D03*
%TD*%
D13*
%TO.C,R7*%
X104467000Y-69946000D03*
X106467000Y-69946000D03*
%TD*%
D19*
%TO.C,U1*%
X141945000Y-79062500D03*
X141295000Y-79062500D03*
X140645000Y-79062500D03*
X139995000Y-79062500D03*
X139995000Y-73337500D03*
X140645000Y-73337500D03*
X141295000Y-73337500D03*
X141945000Y-73337500D03*
%TD*%
D11*
%TO.C,R4*%
X128270000Y-71136000D03*
X128270000Y-73136000D03*
%TD*%
D20*
%TO.C,R1*%
X134366000Y-79250000D03*
X134366000Y-73150000D03*
%TD*%
D16*
%TO.C,C3*%
X125984000Y-70257500D03*
X125984000Y-71982500D03*
%TD*%
D21*
%TO.C,D1*%
X147066000Y-77225000D03*
X147066000Y-75175000D03*
%TD*%
D10*
%TO.C,R12*%
X149352000Y-75200000D03*
X149352000Y-77200000D03*
%TD*%
D13*
%TO.C,R9*%
X143748000Y-70612000D03*
X141748000Y-70612000D03*
%TD*%
D12*
%TO.C,C2*%
X137922000Y-77623500D03*
X137922000Y-79348500D03*
%TD*%
D11*
%TO.C,R5*%
X116840000Y-80534000D03*
X116840000Y-82534000D03*
%TD*%
D10*
%TO.C,R15*%
X122174000Y-72120000D03*
X122174000Y-70120000D03*
%TD*%
D22*
%TO.C,R10*%
X130810000Y-72872000D03*
X130810000Y-75972000D03*
%TD*%
D23*
%TO.C,U3*%
X120715000Y-78105000D03*
X120715000Y-76835000D03*
X120715000Y-75565000D03*
X120715000Y-74295000D03*
X125665000Y-74295000D03*
X125665000Y-75565000D03*
X125665000Y-76835000D03*
X125665000Y-78105000D03*
%TD*%
M02*
