%TF.GenerationSoftware,KiCad,Pcbnew,8.0.6*%
%TF.CreationDate,2025-01-03T23:58:44+00:00*%
%TF.ProjectId,Mini_Ammete,4d696e69-5f41-46d6-9d65-74652e6b6963,rev?*%
%TF.SameCoordinates,Original*%
%TF.FileFunction,Soldermask,Top*%
%TF.FilePolarity,Negative*%
%FSLAX46Y46*%
G04 Gerber Fmt 4.6, Leading zero omitted, Abs format (unit mm)*
G04 Created by KiCad (PCBNEW 8.0.6) date 2025-01-03 23:58:44*
%MOMM*%
%LPD*%
G01*
G04 APERTURE LIST*
G04 Aperture macros list*
%AMRoundRect*
0 Rectangle with rounded corners*
0 $1 Rounding radius*
0 $2 $3 $4 $5 $6 $7 $8 $9 X,Y pos of 4 corners*
0 Add a 4 corners polygon primitive as box body*
4,1,4,$2,$3,$4,$5,$6,$7,$8,$9,$2,$3,0*
0 Add four circle primitives for the rounded corners*
1,1,$1+$1,$2,$3*
1,1,$1+$1,$4,$5*
1,1,$1+$1,$6,$7*
1,1,$1+$1,$8,$9*
0 Add four rect primitives between the rounded corners*
20,1,$1+$1,$2,$3,$4,$5,0*
20,1,$1+$1,$4,$5,$6,$7,0*
20,1,$1+$1,$6,$7,$8,$9,0*
20,1,$1+$1,$8,$9,$2,$3,0*%
%AMFreePoly0*
4,1,19,0.550000,-0.750000,0.000000,-0.750000,0.000000,-0.744911,-0.071157,-0.744911,-0.207708,-0.704816,-0.327430,-0.627875,-0.420627,-0.520320,-0.479746,-0.390866,-0.500000,-0.250000,-0.500000,0.250000,-0.479746,0.390866,-0.420627,0.520320,-0.327430,0.627875,-0.207708,0.704816,-0.071157,0.744911,0.000000,0.744911,0.000000,0.750000,0.550000,0.750000,0.550000,-0.750000,0.550000,-0.750000,
$1*%
%AMFreePoly1*
4,1,19,0.000000,0.744911,0.071157,0.744911,0.207708,0.704816,0.327430,0.627875,0.420627,0.520320,0.479746,0.390866,0.500000,0.250000,0.500000,-0.250000,0.479746,-0.390866,0.420627,-0.520320,0.327430,-0.627875,0.207708,-0.704816,0.071157,-0.744911,0.000000,-0.744911,0.000000,-0.750000,-0.550000,-0.750000,-0.550000,0.750000,0.000000,0.750000,0.000000,0.744911,0.000000,0.744911,
$1*%
%AMFreePoly2*
4,1,19,0.000000,0.744911,0.071157,0.744911,0.207708,0.704816,0.327430,0.627875,0.420627,0.520320,0.479746,0.390866,0.500000,0.250000,0.500000,-0.250000,0.479746,-0.390866,0.420627,-0.520320,0.327430,-0.627875,0.207708,-0.704816,0.071157,-0.744911,0.000000,-0.744911,0.000000,-0.750000,-0.500000,-0.750000,-0.500000,0.750000,0.000000,0.750000,0.000000,0.744911,0.000000,0.744911,
$1*%
%AMFreePoly3*
4,1,19,0.500000,-0.750000,0.000000,-0.750000,0.000000,-0.744911,-0.071157,-0.744911,-0.207708,-0.704816,-0.327430,-0.627875,-0.420627,-0.520320,-0.479746,-0.390866,-0.500000,-0.250000,-0.500000,0.250000,-0.479746,0.390866,-0.420627,0.520320,-0.327430,0.627875,-0.207708,0.704816,-0.071157,0.744911,0.000000,0.744911,0.000000,0.750000,0.500000,0.750000,0.500000,-0.750000,0.500000,-0.750000,
$1*%
G04 Aperture macros list end*
%ADD10C,0.000000*%
%ADD11R,1.700000X1.700000*%
%ADD12C,1.712000*%
%ADD13RoundRect,0.102000X0.754000X-0.754000X0.754000X0.754000X-0.754000X0.754000X-0.754000X-0.754000X0*%
%ADD14RoundRect,0.250000X0.450000X-0.350000X0.450000X0.350000X-0.450000X0.350000X-0.450000X-0.350000X0*%
%ADD15RoundRect,0.250000X-0.450000X0.350000X-0.450000X-0.350000X0.450000X-0.350000X0.450000X0.350000X0*%
%ADD16FreePoly0,270.000000*%
%ADD17R,1.500000X1.000000*%
%ADD18FreePoly1,270.000000*%
%ADD19RoundRect,0.237500X-0.237500X0.300000X-0.237500X-0.300000X0.237500X-0.300000X0.237500X0.300000X0*%
%ADD20RoundRect,0.250000X0.350000X0.450000X-0.350000X0.450000X-0.350000X-0.450000X0.350000X-0.450000X0*%
%ADD21FreePoly2,270.000000*%
%ADD22FreePoly3,270.000000*%
%ADD23C,0.650000*%
%ADD24RoundRect,0.150000X-0.500000X0.150000X-0.500000X-0.150000X0.500000X-0.150000X0.500000X0.150000X0*%
%ADD25RoundRect,0.075000X-0.575000X0.075000X-0.575000X-0.075000X0.575000X-0.075000X0.575000X0.075000X0*%
%ADD26O,2.100000X1.000000*%
%ADD27O,1.600000X1.000000*%
%ADD28RoundRect,0.237500X0.237500X-0.300000X0.237500X0.300000X-0.237500X0.300000X-0.237500X-0.300000X0*%
%ADD29RoundRect,0.250000X-0.350000X-0.450000X0.350000X-0.450000X0.350000X0.450000X-0.350000X0.450000X0*%
%ADD30FreePoly2,180.000000*%
%ADD31FreePoly3,180.000000*%
%ADD32O,1.700000X1.700000*%
%ADD33RoundRect,0.250000X0.475000X-0.337500X0.475000X0.337500X-0.475000X0.337500X-0.475000X-0.337500X0*%
%ADD34RoundRect,0.100000X-0.100000X0.637500X-0.100000X-0.637500X0.100000X-0.637500X0.100000X0.637500X0*%
%ADD35RoundRect,0.249999X1.425001X-0.450001X1.425001X0.450001X-1.425001X0.450001X-1.425001X-0.450001X0*%
%ADD36RoundRect,0.250000X-0.450000X0.325000X-0.450000X-0.325000X0.450000X-0.325000X0.450000X0.325000X0*%
%ADD37RoundRect,0.250000X0.625000X-0.400000X0.625000X0.400000X-0.625000X0.400000X-0.625000X-0.400000X0*%
%ADD38RoundRect,0.150000X0.825000X0.150000X-0.825000X0.150000X-0.825000X-0.150000X0.825000X-0.150000X0*%
%ADD39FreePoly3,90.000000*%
%ADD40FreePoly2,90.000000*%
G04 APERTURE END LIST*
D10*
G36*
X152948000Y-83588207D02*
G01*
X152948000Y-83588207D01*
G75*
G02*
X155448000Y-86088207I0J-2499993D01*
G01*
X155448000Y-87438207D01*
G75*
G02*
X152948000Y-89938207I-2500000J7D01*
G01*
X144272000Y-89938207D01*
X144272000Y-83588207D01*
X152948000Y-83588207D01*
G37*
G36*
X152948000Y-62484000D02*
G01*
X152948000Y-62484000D01*
G75*
G02*
X155448000Y-64984000I0J-2500000D01*
G01*
X155448000Y-66334000D01*
G75*
G02*
X152948000Y-68834000I-2500000J0D01*
G01*
X144272000Y-68834000D01*
X144272000Y-62484000D01*
X152948000Y-62484000D01*
G37*
D11*
%TO.C,J9*%
X129650000Y-87884000D03*
%TD*%
%TO.C,J8*%
X129650000Y-64516000D03*
%TD*%
D12*
%TO.C,J7*%
X134476000Y-86868000D03*
D13*
X139476000Y-84368000D03*
%TD*%
D14*
%TO.C,R16*%
X116840000Y-70120000D03*
X116840000Y-72120000D03*
%TD*%
D15*
%TO.C,R13*%
X119888000Y-72120000D03*
X119888000Y-70120000D03*
%TD*%
D16*
%TO.C,JP5*%
X116840000Y-74900000D03*
D17*
X116840000Y-76200000D03*
D18*
X116840000Y-77500000D03*
%TD*%
D19*
%TO.C,C6*%
X124206000Y-70257500D03*
X124206000Y-71982500D03*
%TD*%
D20*
%TO.C,R6*%
X104467000Y-82646000D03*
X106467000Y-82646000D03*
%TD*%
%TO.C,R14*%
X144002000Y-81788000D03*
X142002000Y-81788000D03*
%TD*%
D21*
%TO.C,JP3*%
X130810000Y-79390000D03*
D22*
X130810000Y-78090000D03*
%TD*%
D23*
%TO.C,J1*%
X105026000Y-73406000D03*
X105026000Y-79186000D03*
D24*
X106166000Y-73096000D03*
X106166000Y-73896000D03*
D25*
X106166000Y-75046000D03*
X106166000Y-76046000D03*
X106166000Y-76546000D03*
X106166000Y-77546000D03*
D24*
X106166000Y-78696000D03*
X106166000Y-79496000D03*
X106166000Y-79496000D03*
X106166000Y-78696000D03*
D25*
X106166000Y-78046000D03*
X106166000Y-77046000D03*
X106166000Y-75546000D03*
X106166000Y-74546000D03*
D24*
X106166000Y-73896000D03*
X106166000Y-73096000D03*
D26*
X105526000Y-71976000D03*
D27*
X101346000Y-71976000D03*
D26*
X105526000Y-80616000D03*
D27*
X101346000Y-80616000D03*
%TD*%
D20*
%TO.C,R11*%
X139954000Y-81788000D03*
X137954000Y-81788000D03*
%TD*%
D11*
%TO.C,J5*%
X129650000Y-67056000D03*
%TD*%
D28*
%TO.C,C4*%
X121158000Y-80772000D03*
X121158000Y-82497000D03*
%TD*%
D15*
%TO.C,R2*%
X124968000Y-82634500D03*
X124968000Y-80634500D03*
%TD*%
D29*
%TO.C,R8*%
X137700000Y-70612000D03*
X139700000Y-70612000D03*
%TD*%
D30*
%TO.C,JP2*%
X133739871Y-81534000D03*
D31*
X135039871Y-81534000D03*
%TD*%
D14*
%TO.C,R3*%
X128270000Y-81010000D03*
X128270000Y-79010000D03*
%TD*%
D11*
%TO.C,J2*%
X113309000Y-72400000D03*
D32*
X113309000Y-74940000D03*
X113309000Y-77480000D03*
X113309000Y-80020000D03*
%TD*%
D11*
%TO.C,J4*%
X129650000Y-85344000D03*
%TD*%
D28*
%TO.C,C5*%
X128270000Y-77062500D03*
X128270000Y-75337500D03*
%TD*%
D33*
%TO.C,C1*%
X137922000Y-73130500D03*
X137922000Y-75205500D03*
%TD*%
D20*
%TO.C,R7*%
X104467000Y-69946000D03*
X106467000Y-69946000D03*
%TD*%
D11*
%TO.C,J3*%
X109499000Y-72380000D03*
D32*
X109499000Y-74920000D03*
X109499000Y-77460000D03*
X109499000Y-80000000D03*
%TD*%
D21*
%TO.C,JP4*%
X144272000Y-78882000D03*
D22*
X144272000Y-77582000D03*
%TD*%
D34*
%TO.C,U1*%
X141945000Y-79062500D03*
X141295000Y-79062500D03*
X140645000Y-79062500D03*
X139995000Y-79062500D03*
X139995000Y-73337500D03*
X140645000Y-73337500D03*
X141295000Y-73337500D03*
X141945000Y-73337500D03*
%TD*%
D15*
%TO.C,R4*%
X128270000Y-71136000D03*
X128270000Y-73136000D03*
%TD*%
D35*
%TO.C,R1*%
X134366000Y-79250000D03*
X134366000Y-73150000D03*
%TD*%
D28*
%TO.C,C3*%
X125984000Y-70257500D03*
X125984000Y-71982500D03*
%TD*%
D36*
%TO.C,D1*%
X147066000Y-77225000D03*
X147066000Y-75175000D03*
%TD*%
D14*
%TO.C,R12*%
X149352000Y-75200000D03*
X149352000Y-77200000D03*
%TD*%
D20*
%TO.C,R9*%
X143748000Y-70612000D03*
X141748000Y-70612000D03*
%TD*%
D19*
%TO.C,C2*%
X137922000Y-77623500D03*
X137922000Y-79348500D03*
%TD*%
D15*
%TO.C,R5*%
X116840000Y-80534000D03*
X116840000Y-82534000D03*
%TD*%
D14*
%TO.C,R15*%
X122174000Y-72120000D03*
X122174000Y-70120000D03*
%TD*%
D37*
%TO.C,R10*%
X130810000Y-72872000D03*
X130810000Y-75972000D03*
%TD*%
D38*
%TO.C,U3*%
X120715000Y-78105000D03*
X120715000Y-76835000D03*
X120715000Y-75565000D03*
X120715000Y-74295000D03*
X125665000Y-74295000D03*
X125665000Y-75565000D03*
X125665000Y-76835000D03*
X125665000Y-78105000D03*
%TD*%
D39*
%TO.C,JP1*%
X144272000Y-74818000D03*
D40*
X144272000Y-73518000D03*
%TD*%
D12*
%TO.C,J6*%
X134476000Y-66368000D03*
D13*
X139476000Y-63868000D03*
%TD*%
M02*
