M48
METRIC,TZ
T1C0.300
T2C0.600
T3C1.000
%
G90
G05
T1
X107696Y-73914
X107696Y-78740
X111252Y-81534
X116840Y-73279
X118364Y-72238
X122301Y-78105
X122936Y-75565
X122936Y-74017
X125704Y-73295
X126543Y-82474
X133604Y-75819
X133604Y-77089
X134493Y-76454
X135509Y-75819
X135509Y-77089
X136398Y-76454
X137922Y-80391
X138684Y-71628
X140645Y-80137
X142748Y-71628
X144272Y-72390
X153162Y-65024
X153162Y-65786
X153162Y-66548
X153162Y-86106
X153162Y-87630
X153162Y-86868
T3
X109499Y-72380
X109499Y-74920
X109499Y-77460
X109499Y-80000
X113309Y-72400
X113309Y-74940
X113309Y-77480
X113309Y-80020
X129650Y-64516
X129650Y-67056
X129650Y-85344
X129650Y-87884
X134476Y-66368
X134476Y-86868
X139476Y-63868
X139476Y-84368
T2
G00X101646Y-71976
M15
G01X101046Y-71976
M16
G05
G00X101646Y-80616
M15
G01X101046Y-80616
M16
G05
G00X106076Y-71976
M15
G01X104976Y-71976
M16
G05
G00X106076Y-80616
M15
G01X104976Y-80616
M16
G05
M30
