%TF.GenerationSoftware,KiCad,Pcbnew,8.0.6*%
%TF.CreationDate,2025-01-03T23:58:44+00:00*%
%TF.ProjectId,Mini_Ammete,4d696e69-5f41-46d6-9d65-74652e6b6963,rev?*%
%TF.SameCoordinates,Original*%
%TF.FileFunction,Legend,Top*%
%TF.FilePolarity,Positive*%
%FSLAX46Y46*%
G04 Gerber Fmt 4.6, Leading zero omitted, Abs format (unit mm)*
G04 Created by KiCad (PCBNEW 8.0.6) date 2025-01-03 23:58:44*
%MOMM*%
%LPD*%
G01*
G04 APERTURE LIST*
%ADD10C,0.150000*%
%ADD11C,0.120000*%
%ADD12C,0.200000*%
%ADD13C,0.127000*%
%ADD14C,0.350000*%
%ADD15O,1.700000X0.600000*%
%ADD16O,1.200000X0.600000*%
G04 APERTURE END LIST*
D10*
X113849999Y-70293033D02*
X113616666Y-69959700D01*
X113449999Y-70293033D02*
X113449999Y-69593033D01*
X113449999Y-69593033D02*
X113716666Y-69593033D01*
X113716666Y-69593033D02*
X113783333Y-69626366D01*
X113783333Y-69626366D02*
X113816666Y-69659700D01*
X113816666Y-69659700D02*
X113849999Y-69726366D01*
X113849999Y-69726366D02*
X113849999Y-69826366D01*
X113849999Y-69826366D02*
X113816666Y-69893033D01*
X113816666Y-69893033D02*
X113783333Y-69926366D01*
X113783333Y-69926366D02*
X113716666Y-69959700D01*
X113716666Y-69959700D02*
X113449999Y-69959700D01*
X114516666Y-70293033D02*
X114116666Y-70293033D01*
X114316666Y-70293033D02*
X114316666Y-69593033D01*
X114316666Y-69593033D02*
X114249999Y-69693033D01*
X114249999Y-69693033D02*
X114183333Y-69759700D01*
X114183333Y-69759700D02*
X114116666Y-69793033D01*
X115116666Y-69593033D02*
X114983333Y-69593033D01*
X114983333Y-69593033D02*
X114916666Y-69626366D01*
X114916666Y-69626366D02*
X114883333Y-69659700D01*
X114883333Y-69659700D02*
X114816666Y-69759700D01*
X114816666Y-69759700D02*
X114783333Y-69893033D01*
X114783333Y-69893033D02*
X114783333Y-70159700D01*
X114783333Y-70159700D02*
X114816666Y-70226366D01*
X114816666Y-70226366D02*
X114850000Y-70259700D01*
X114850000Y-70259700D02*
X114916666Y-70293033D01*
X114916666Y-70293033D02*
X115050000Y-70293033D01*
X115050000Y-70293033D02*
X115116666Y-70259700D01*
X115116666Y-70259700D02*
X115150000Y-70226366D01*
X115150000Y-70226366D02*
X115183333Y-70159700D01*
X115183333Y-70159700D02*
X115183333Y-69993033D01*
X115183333Y-69993033D02*
X115150000Y-69926366D01*
X115150000Y-69926366D02*
X115116666Y-69893033D01*
X115116666Y-69893033D02*
X115050000Y-69859700D01*
X115050000Y-69859700D02*
X114916666Y-69859700D01*
X114916666Y-69859700D02*
X114850000Y-69893033D01*
X114850000Y-69893033D02*
X114816666Y-69926366D01*
X114816666Y-69926366D02*
X114783333Y-69993033D01*
X125994333Y-69083366D02*
X125961000Y-69116700D01*
X125961000Y-69116700D02*
X125861000Y-69150033D01*
X125861000Y-69150033D02*
X125794333Y-69150033D01*
X125794333Y-69150033D02*
X125694333Y-69116700D01*
X125694333Y-69116700D02*
X125627667Y-69050033D01*
X125627667Y-69050033D02*
X125594333Y-68983366D01*
X125594333Y-68983366D02*
X125561000Y-68850033D01*
X125561000Y-68850033D02*
X125561000Y-68750033D01*
X125561000Y-68750033D02*
X125594333Y-68616700D01*
X125594333Y-68616700D02*
X125627667Y-68550033D01*
X125627667Y-68550033D02*
X125694333Y-68483366D01*
X125694333Y-68483366D02*
X125794333Y-68450033D01*
X125794333Y-68450033D02*
X125861000Y-68450033D01*
X125861000Y-68450033D02*
X125961000Y-68483366D01*
X125961000Y-68483366D02*
X125994333Y-68516700D01*
X126594333Y-68450033D02*
X126461000Y-68450033D01*
X126461000Y-68450033D02*
X126394333Y-68483366D01*
X126394333Y-68483366D02*
X126361000Y-68516700D01*
X126361000Y-68516700D02*
X126294333Y-68616700D01*
X126294333Y-68616700D02*
X126261000Y-68750033D01*
X126261000Y-68750033D02*
X126261000Y-69016700D01*
X126261000Y-69016700D02*
X126294333Y-69083366D01*
X126294333Y-69083366D02*
X126327667Y-69116700D01*
X126327667Y-69116700D02*
X126394333Y-69150033D01*
X126394333Y-69150033D02*
X126527667Y-69150033D01*
X126527667Y-69150033D02*
X126594333Y-69116700D01*
X126594333Y-69116700D02*
X126627667Y-69083366D01*
X126627667Y-69083366D02*
X126661000Y-69016700D01*
X126661000Y-69016700D02*
X126661000Y-68850033D01*
X126661000Y-68850033D02*
X126627667Y-68783366D01*
X126627667Y-68783366D02*
X126594333Y-68750033D01*
X126594333Y-68750033D02*
X126527667Y-68716700D01*
X126527667Y-68716700D02*
X126394333Y-68716700D01*
X126394333Y-68716700D02*
X126327667Y-68750033D01*
X126327667Y-68750033D02*
X126294333Y-68783366D01*
X126294333Y-68783366D02*
X126261000Y-68850033D01*
X108341333Y-82993033D02*
X108108000Y-82659700D01*
X107941333Y-82993033D02*
X107941333Y-82293033D01*
X107941333Y-82293033D02*
X108208000Y-82293033D01*
X108208000Y-82293033D02*
X108274667Y-82326366D01*
X108274667Y-82326366D02*
X108308000Y-82359700D01*
X108308000Y-82359700D02*
X108341333Y-82426366D01*
X108341333Y-82426366D02*
X108341333Y-82526366D01*
X108341333Y-82526366D02*
X108308000Y-82593033D01*
X108308000Y-82593033D02*
X108274667Y-82626366D01*
X108274667Y-82626366D02*
X108208000Y-82659700D01*
X108208000Y-82659700D02*
X107941333Y-82659700D01*
X108941333Y-82293033D02*
X108808000Y-82293033D01*
X108808000Y-82293033D02*
X108741333Y-82326366D01*
X108741333Y-82326366D02*
X108708000Y-82359700D01*
X108708000Y-82359700D02*
X108641333Y-82459700D01*
X108641333Y-82459700D02*
X108608000Y-82593033D01*
X108608000Y-82593033D02*
X108608000Y-82859700D01*
X108608000Y-82859700D02*
X108641333Y-82926366D01*
X108641333Y-82926366D02*
X108674667Y-82959700D01*
X108674667Y-82959700D02*
X108741333Y-82993033D01*
X108741333Y-82993033D02*
X108874667Y-82993033D01*
X108874667Y-82993033D02*
X108941333Y-82959700D01*
X108941333Y-82959700D02*
X108974667Y-82926366D01*
X108974667Y-82926366D02*
X109008000Y-82859700D01*
X109008000Y-82859700D02*
X109008000Y-82693033D01*
X109008000Y-82693033D02*
X108974667Y-82626366D01*
X108974667Y-82626366D02*
X108941333Y-82593033D01*
X108941333Y-82593033D02*
X108874667Y-82559700D01*
X108874667Y-82559700D02*
X108741333Y-82559700D01*
X108741333Y-82559700D02*
X108674667Y-82593033D01*
X108674667Y-82593033D02*
X108641333Y-82626366D01*
X108641333Y-82626366D02*
X108608000Y-82693033D01*
X141916999Y-84390033D02*
X141683666Y-84056700D01*
X141516999Y-84390033D02*
X141516999Y-83690033D01*
X141516999Y-83690033D02*
X141783666Y-83690033D01*
X141783666Y-83690033D02*
X141850333Y-83723366D01*
X141850333Y-83723366D02*
X141883666Y-83756700D01*
X141883666Y-83756700D02*
X141916999Y-83823366D01*
X141916999Y-83823366D02*
X141916999Y-83923366D01*
X141916999Y-83923366D02*
X141883666Y-83990033D01*
X141883666Y-83990033D02*
X141850333Y-84023366D01*
X141850333Y-84023366D02*
X141783666Y-84056700D01*
X141783666Y-84056700D02*
X141516999Y-84056700D01*
X142583666Y-84390033D02*
X142183666Y-84390033D01*
X142383666Y-84390033D02*
X142383666Y-83690033D01*
X142383666Y-83690033D02*
X142316999Y-83790033D01*
X142316999Y-83790033D02*
X142250333Y-83856700D01*
X142250333Y-83856700D02*
X142183666Y-83890033D01*
X143183666Y-83923366D02*
X143183666Y-84390033D01*
X143017000Y-83656700D02*
X142850333Y-84156700D01*
X142850333Y-84156700D02*
X143283666Y-84156700D01*
X102890666Y-76070033D02*
X102890666Y-76570033D01*
X102890666Y-76570033D02*
X102857333Y-76670033D01*
X102857333Y-76670033D02*
X102790666Y-76736700D01*
X102790666Y-76736700D02*
X102690666Y-76770033D01*
X102690666Y-76770033D02*
X102624000Y-76770033D01*
X103590666Y-76770033D02*
X103190666Y-76770033D01*
X103390666Y-76770033D02*
X103390666Y-76070033D01*
X103390666Y-76070033D02*
X103323999Y-76170033D01*
X103323999Y-76170033D02*
X103257333Y-76236700D01*
X103257333Y-76236700D02*
X103190666Y-76270033D01*
X136582999Y-84390033D02*
X136349666Y-84056700D01*
X136182999Y-84390033D02*
X136182999Y-83690033D01*
X136182999Y-83690033D02*
X136449666Y-83690033D01*
X136449666Y-83690033D02*
X136516333Y-83723366D01*
X136516333Y-83723366D02*
X136549666Y-83756700D01*
X136549666Y-83756700D02*
X136582999Y-83823366D01*
X136582999Y-83823366D02*
X136582999Y-83923366D01*
X136582999Y-83923366D02*
X136549666Y-83990033D01*
X136549666Y-83990033D02*
X136516333Y-84023366D01*
X136516333Y-84023366D02*
X136449666Y-84056700D01*
X136449666Y-84056700D02*
X136182999Y-84056700D01*
X137249666Y-84390033D02*
X136849666Y-84390033D01*
X137049666Y-84390033D02*
X137049666Y-83690033D01*
X137049666Y-83690033D02*
X136982999Y-83790033D01*
X136982999Y-83790033D02*
X136916333Y-83856700D01*
X136916333Y-83856700D02*
X136849666Y-83890033D01*
X137916333Y-84390033D02*
X137516333Y-84390033D01*
X137716333Y-84390033D02*
X137716333Y-83690033D01*
X137716333Y-83690033D02*
X137649666Y-83790033D01*
X137649666Y-83790033D02*
X137583000Y-83856700D01*
X137583000Y-83856700D02*
X137516333Y-83890033D01*
X119136333Y-82926366D02*
X119103000Y-82959700D01*
X119103000Y-82959700D02*
X119003000Y-82993033D01*
X119003000Y-82993033D02*
X118936333Y-82993033D01*
X118936333Y-82993033D02*
X118836333Y-82959700D01*
X118836333Y-82959700D02*
X118769667Y-82893033D01*
X118769667Y-82893033D02*
X118736333Y-82826366D01*
X118736333Y-82826366D02*
X118703000Y-82693033D01*
X118703000Y-82693033D02*
X118703000Y-82593033D01*
X118703000Y-82593033D02*
X118736333Y-82459700D01*
X118736333Y-82459700D02*
X118769667Y-82393033D01*
X118769667Y-82393033D02*
X118836333Y-82326366D01*
X118836333Y-82326366D02*
X118936333Y-82293033D01*
X118936333Y-82293033D02*
X119003000Y-82293033D01*
X119003000Y-82293033D02*
X119103000Y-82326366D01*
X119103000Y-82326366D02*
X119136333Y-82359700D01*
X119736333Y-82526366D02*
X119736333Y-82993033D01*
X119569667Y-82259700D02*
X119403000Y-82759700D01*
X119403000Y-82759700D02*
X119836333Y-82759700D01*
X122946333Y-82993033D02*
X122713000Y-82659700D01*
X122546333Y-82993033D02*
X122546333Y-82293033D01*
X122546333Y-82293033D02*
X122813000Y-82293033D01*
X122813000Y-82293033D02*
X122879667Y-82326366D01*
X122879667Y-82326366D02*
X122913000Y-82359700D01*
X122913000Y-82359700D02*
X122946333Y-82426366D01*
X122946333Y-82426366D02*
X122946333Y-82526366D01*
X122946333Y-82526366D02*
X122913000Y-82593033D01*
X122913000Y-82593033D02*
X122879667Y-82626366D01*
X122879667Y-82626366D02*
X122813000Y-82659700D01*
X122813000Y-82659700D02*
X122546333Y-82659700D01*
X123213000Y-82359700D02*
X123246333Y-82326366D01*
X123246333Y-82326366D02*
X123313000Y-82293033D01*
X123313000Y-82293033D02*
X123479667Y-82293033D01*
X123479667Y-82293033D02*
X123546333Y-82326366D01*
X123546333Y-82326366D02*
X123579667Y-82359700D01*
X123579667Y-82359700D02*
X123613000Y-82426366D01*
X123613000Y-82426366D02*
X123613000Y-82493033D01*
X123613000Y-82493033D02*
X123579667Y-82593033D01*
X123579667Y-82593033D02*
X123179667Y-82993033D01*
X123179667Y-82993033D02*
X123613000Y-82993033D01*
X135392333Y-70928033D02*
X135159000Y-70594700D01*
X134992333Y-70928033D02*
X134992333Y-70228033D01*
X134992333Y-70228033D02*
X135259000Y-70228033D01*
X135259000Y-70228033D02*
X135325667Y-70261366D01*
X135325667Y-70261366D02*
X135359000Y-70294700D01*
X135359000Y-70294700D02*
X135392333Y-70361366D01*
X135392333Y-70361366D02*
X135392333Y-70461366D01*
X135392333Y-70461366D02*
X135359000Y-70528033D01*
X135359000Y-70528033D02*
X135325667Y-70561366D01*
X135325667Y-70561366D02*
X135259000Y-70594700D01*
X135259000Y-70594700D02*
X134992333Y-70594700D01*
X135792333Y-70528033D02*
X135725667Y-70494700D01*
X135725667Y-70494700D02*
X135692333Y-70461366D01*
X135692333Y-70461366D02*
X135659000Y-70394700D01*
X135659000Y-70394700D02*
X135659000Y-70361366D01*
X135659000Y-70361366D02*
X135692333Y-70294700D01*
X135692333Y-70294700D02*
X135725667Y-70261366D01*
X135725667Y-70261366D02*
X135792333Y-70228033D01*
X135792333Y-70228033D02*
X135925667Y-70228033D01*
X135925667Y-70228033D02*
X135992333Y-70261366D01*
X135992333Y-70261366D02*
X136025667Y-70294700D01*
X136025667Y-70294700D02*
X136059000Y-70361366D01*
X136059000Y-70361366D02*
X136059000Y-70394700D01*
X136059000Y-70394700D02*
X136025667Y-70461366D01*
X136025667Y-70461366D02*
X135992333Y-70494700D01*
X135992333Y-70494700D02*
X135925667Y-70528033D01*
X135925667Y-70528033D02*
X135792333Y-70528033D01*
X135792333Y-70528033D02*
X135725667Y-70561366D01*
X135725667Y-70561366D02*
X135692333Y-70594700D01*
X135692333Y-70594700D02*
X135659000Y-70661366D01*
X135659000Y-70661366D02*
X135659000Y-70794700D01*
X135659000Y-70794700D02*
X135692333Y-70861366D01*
X135692333Y-70861366D02*
X135725667Y-70894700D01*
X135725667Y-70894700D02*
X135792333Y-70928033D01*
X135792333Y-70928033D02*
X135925667Y-70928033D01*
X135925667Y-70928033D02*
X135992333Y-70894700D01*
X135992333Y-70894700D02*
X136025667Y-70861366D01*
X136025667Y-70861366D02*
X136059000Y-70794700D01*
X136059000Y-70794700D02*
X136059000Y-70661366D01*
X136059000Y-70661366D02*
X136025667Y-70594700D01*
X136025667Y-70594700D02*
X135992333Y-70561366D01*
X135992333Y-70561366D02*
X135925667Y-70528033D01*
X128153333Y-82993033D02*
X127920000Y-82659700D01*
X127753333Y-82993033D02*
X127753333Y-82293033D01*
X127753333Y-82293033D02*
X128020000Y-82293033D01*
X128020000Y-82293033D02*
X128086667Y-82326366D01*
X128086667Y-82326366D02*
X128120000Y-82359700D01*
X128120000Y-82359700D02*
X128153333Y-82426366D01*
X128153333Y-82426366D02*
X128153333Y-82526366D01*
X128153333Y-82526366D02*
X128120000Y-82593033D01*
X128120000Y-82593033D02*
X128086667Y-82626366D01*
X128086667Y-82626366D02*
X128020000Y-82659700D01*
X128020000Y-82659700D02*
X127753333Y-82659700D01*
X128386667Y-82293033D02*
X128820000Y-82293033D01*
X128820000Y-82293033D02*
X128586667Y-82559700D01*
X128586667Y-82559700D02*
X128686667Y-82559700D01*
X128686667Y-82559700D02*
X128753333Y-82593033D01*
X128753333Y-82593033D02*
X128786667Y-82626366D01*
X128786667Y-82626366D02*
X128820000Y-82693033D01*
X128820000Y-82693033D02*
X128820000Y-82859700D01*
X128820000Y-82859700D02*
X128786667Y-82926366D01*
X128786667Y-82926366D02*
X128753333Y-82959700D01*
X128753333Y-82959700D02*
X128686667Y-82993033D01*
X128686667Y-82993033D02*
X128486667Y-82993033D01*
X128486667Y-82993033D02*
X128420000Y-82959700D01*
X128420000Y-82959700D02*
X128386667Y-82926366D01*
X108341333Y-70293033D02*
X108108000Y-69959700D01*
X107941333Y-70293033D02*
X107941333Y-69593033D01*
X107941333Y-69593033D02*
X108208000Y-69593033D01*
X108208000Y-69593033D02*
X108274667Y-69626366D01*
X108274667Y-69626366D02*
X108308000Y-69659700D01*
X108308000Y-69659700D02*
X108341333Y-69726366D01*
X108341333Y-69726366D02*
X108341333Y-69826366D01*
X108341333Y-69826366D02*
X108308000Y-69893033D01*
X108308000Y-69893033D02*
X108274667Y-69926366D01*
X108274667Y-69926366D02*
X108208000Y-69959700D01*
X108208000Y-69959700D02*
X107941333Y-69959700D01*
X108574667Y-69593033D02*
X109041333Y-69593033D01*
X109041333Y-69593033D02*
X108741333Y-70293033D01*
X140563666Y-75816033D02*
X140563666Y-76382700D01*
X140563666Y-76382700D02*
X140597000Y-76449366D01*
X140597000Y-76449366D02*
X140630333Y-76482700D01*
X140630333Y-76482700D02*
X140697000Y-76516033D01*
X140697000Y-76516033D02*
X140830333Y-76516033D01*
X140830333Y-76516033D02*
X140897000Y-76482700D01*
X140897000Y-76482700D02*
X140930333Y-76449366D01*
X140930333Y-76449366D02*
X140963666Y-76382700D01*
X140963666Y-76382700D02*
X140963666Y-75816033D01*
X141663666Y-76516033D02*
X141263666Y-76516033D01*
X141463666Y-76516033D02*
X141463666Y-75816033D01*
X141463666Y-75816033D02*
X141396999Y-75916033D01*
X141396999Y-75916033D02*
X141330333Y-75982700D01*
X141330333Y-75982700D02*
X141263666Y-76016033D01*
X129677333Y-70293033D02*
X129444000Y-69959700D01*
X129277333Y-70293033D02*
X129277333Y-69593033D01*
X129277333Y-69593033D02*
X129544000Y-69593033D01*
X129544000Y-69593033D02*
X129610667Y-69626366D01*
X129610667Y-69626366D02*
X129644000Y-69659700D01*
X129644000Y-69659700D02*
X129677333Y-69726366D01*
X129677333Y-69726366D02*
X129677333Y-69826366D01*
X129677333Y-69826366D02*
X129644000Y-69893033D01*
X129644000Y-69893033D02*
X129610667Y-69926366D01*
X129610667Y-69926366D02*
X129544000Y-69959700D01*
X129544000Y-69959700D02*
X129277333Y-69959700D01*
X130277333Y-69826366D02*
X130277333Y-70293033D01*
X130110667Y-69559700D02*
X129944000Y-70059700D01*
X129944000Y-70059700D02*
X130377333Y-70059700D01*
X123962333Y-69083366D02*
X123929000Y-69116700D01*
X123929000Y-69116700D02*
X123829000Y-69150033D01*
X123829000Y-69150033D02*
X123762333Y-69150033D01*
X123762333Y-69150033D02*
X123662333Y-69116700D01*
X123662333Y-69116700D02*
X123595667Y-69050033D01*
X123595667Y-69050033D02*
X123562333Y-68983366D01*
X123562333Y-68983366D02*
X123529000Y-68850033D01*
X123529000Y-68850033D02*
X123529000Y-68750033D01*
X123529000Y-68750033D02*
X123562333Y-68616700D01*
X123562333Y-68616700D02*
X123595667Y-68550033D01*
X123595667Y-68550033D02*
X123662333Y-68483366D01*
X123662333Y-68483366D02*
X123762333Y-68450033D01*
X123762333Y-68450033D02*
X123829000Y-68450033D01*
X123829000Y-68450033D02*
X123929000Y-68483366D01*
X123929000Y-68483366D02*
X123962333Y-68516700D01*
X124195667Y-68450033D02*
X124629000Y-68450033D01*
X124629000Y-68450033D02*
X124395667Y-68716700D01*
X124395667Y-68716700D02*
X124495667Y-68716700D01*
X124495667Y-68716700D02*
X124562333Y-68750033D01*
X124562333Y-68750033D02*
X124595667Y-68783366D01*
X124595667Y-68783366D02*
X124629000Y-68850033D01*
X124629000Y-68850033D02*
X124629000Y-69016700D01*
X124629000Y-69016700D02*
X124595667Y-69083366D01*
X124595667Y-69083366D02*
X124562333Y-69116700D01*
X124562333Y-69116700D02*
X124495667Y-69150033D01*
X124495667Y-69150033D02*
X124295667Y-69150033D01*
X124295667Y-69150033D02*
X124229000Y-69116700D01*
X124229000Y-69116700D02*
X124195667Y-69083366D01*
X145298333Y-69023033D02*
X145065000Y-68689700D01*
X144898333Y-69023033D02*
X144898333Y-68323033D01*
X144898333Y-68323033D02*
X145165000Y-68323033D01*
X145165000Y-68323033D02*
X145231667Y-68356366D01*
X145231667Y-68356366D02*
X145265000Y-68389700D01*
X145265000Y-68389700D02*
X145298333Y-68456366D01*
X145298333Y-68456366D02*
X145298333Y-68556366D01*
X145298333Y-68556366D02*
X145265000Y-68623033D01*
X145265000Y-68623033D02*
X145231667Y-68656366D01*
X145231667Y-68656366D02*
X145165000Y-68689700D01*
X145165000Y-68689700D02*
X144898333Y-68689700D01*
X145631667Y-69023033D02*
X145765000Y-69023033D01*
X145765000Y-69023033D02*
X145831667Y-68989700D01*
X145831667Y-68989700D02*
X145865000Y-68956366D01*
X145865000Y-68956366D02*
X145931667Y-68856366D01*
X145931667Y-68856366D02*
X145965000Y-68723033D01*
X145965000Y-68723033D02*
X145965000Y-68456366D01*
X145965000Y-68456366D02*
X145931667Y-68389700D01*
X145931667Y-68389700D02*
X145898333Y-68356366D01*
X145898333Y-68356366D02*
X145831667Y-68323033D01*
X145831667Y-68323033D02*
X145698333Y-68323033D01*
X145698333Y-68323033D02*
X145631667Y-68356366D01*
X145631667Y-68356366D02*
X145598333Y-68389700D01*
X145598333Y-68389700D02*
X145565000Y-68456366D01*
X145565000Y-68456366D02*
X145565000Y-68623033D01*
X145565000Y-68623033D02*
X145598333Y-68689700D01*
X145598333Y-68689700D02*
X145631667Y-68723033D01*
X145631667Y-68723033D02*
X145698333Y-68756366D01*
X145698333Y-68756366D02*
X145831667Y-68756366D01*
X145831667Y-68756366D02*
X145898333Y-68723033D01*
X145898333Y-68723033D02*
X145931667Y-68689700D01*
X145931667Y-68689700D02*
X145965000Y-68623033D01*
X114691333Y-82993033D02*
X114458000Y-82659700D01*
X114291333Y-82993033D02*
X114291333Y-82293033D01*
X114291333Y-82293033D02*
X114558000Y-82293033D01*
X114558000Y-82293033D02*
X114624667Y-82326366D01*
X114624667Y-82326366D02*
X114658000Y-82359700D01*
X114658000Y-82359700D02*
X114691333Y-82426366D01*
X114691333Y-82426366D02*
X114691333Y-82526366D01*
X114691333Y-82526366D02*
X114658000Y-82593033D01*
X114658000Y-82593033D02*
X114624667Y-82626366D01*
X114624667Y-82626366D02*
X114558000Y-82659700D01*
X114558000Y-82659700D02*
X114291333Y-82659700D01*
X115324667Y-82293033D02*
X114991333Y-82293033D01*
X114991333Y-82293033D02*
X114958000Y-82626366D01*
X114958000Y-82626366D02*
X114991333Y-82593033D01*
X114991333Y-82593033D02*
X115058000Y-82559700D01*
X115058000Y-82559700D02*
X115224667Y-82559700D01*
X115224667Y-82559700D02*
X115291333Y-82593033D01*
X115291333Y-82593033D02*
X115324667Y-82626366D01*
X115324667Y-82626366D02*
X115358000Y-82693033D01*
X115358000Y-82693033D02*
X115358000Y-82859700D01*
X115358000Y-82859700D02*
X115324667Y-82926366D01*
X115324667Y-82926366D02*
X115291333Y-82959700D01*
X115291333Y-82959700D02*
X115224667Y-82993033D01*
X115224667Y-82993033D02*
X115058000Y-82993033D01*
X115058000Y-82993033D02*
X114991333Y-82959700D01*
X114991333Y-82959700D02*
X114958000Y-82926366D01*
X122783666Y-76451033D02*
X122783666Y-77017700D01*
X122783666Y-77017700D02*
X122817000Y-77084366D01*
X122817000Y-77084366D02*
X122850333Y-77117700D01*
X122850333Y-77117700D02*
X122917000Y-77151033D01*
X122917000Y-77151033D02*
X123050333Y-77151033D01*
X123050333Y-77151033D02*
X123117000Y-77117700D01*
X123117000Y-77117700D02*
X123150333Y-77084366D01*
X123150333Y-77084366D02*
X123183666Y-77017700D01*
X123183666Y-77017700D02*
X123183666Y-76451033D01*
X123450333Y-76451033D02*
X123883666Y-76451033D01*
X123883666Y-76451033D02*
X123650333Y-76717700D01*
X123650333Y-76717700D02*
X123750333Y-76717700D01*
X123750333Y-76717700D02*
X123816999Y-76751033D01*
X123816999Y-76751033D02*
X123850333Y-76784366D01*
X123850333Y-76784366D02*
X123883666Y-76851033D01*
X123883666Y-76851033D02*
X123883666Y-77017700D01*
X123883666Y-77017700D02*
X123850333Y-77084366D01*
X123850333Y-77084366D02*
X123816999Y-77117700D01*
X123816999Y-77117700D02*
X123750333Y-77151033D01*
X123750333Y-77151033D02*
X123550333Y-77151033D01*
X123550333Y-77151033D02*
X123483666Y-77117700D01*
X123483666Y-77117700D02*
X123450333Y-77084366D01*
D11*
%TO.C,J9*%
X128320000Y-86554000D02*
X129650000Y-86554000D01*
X128320000Y-87884000D02*
X128320000Y-86554000D01*
X128320000Y-89154000D02*
X128320000Y-89214000D01*
X128320000Y-89154000D02*
X130980000Y-89154000D01*
X128320000Y-89214000D02*
X130980000Y-89214000D01*
X130980000Y-89154000D02*
X130980000Y-89214000D01*
%TO.C,J8*%
X128320000Y-63186000D02*
X129650000Y-63186000D01*
X128320000Y-64516000D02*
X128320000Y-63186000D01*
X128320000Y-65786000D02*
X128320000Y-65846000D01*
X128320000Y-65786000D02*
X130980000Y-65786000D01*
X128320000Y-65846000D02*
X130980000Y-65846000D01*
X130980000Y-65786000D02*
X130980000Y-65846000D01*
D12*
%TO.C,J7*%
X139576000Y-82371000D02*
G75*
G02*
X139376000Y-82371000I-100000J0D01*
G01*
X139376000Y-82371000D02*
G75*
G02*
X139576000Y-82371000I100000J0D01*
G01*
D13*
X132176000Y-89618000D02*
X144176000Y-89618000D01*
X132176000Y-83118000D02*
X132176000Y-89618000D01*
X144176000Y-83118000D02*
X132176000Y-83118000D01*
X144176000Y-89618000D02*
X144176000Y-83118000D01*
D11*
%TO.C,R16*%
X117575000Y-71347064D02*
X117575000Y-70892936D01*
X116105000Y-71347064D02*
X116105000Y-70892936D01*
%TO.C,R13*%
X119153000Y-70892936D02*
X119153000Y-71347064D01*
X120623000Y-70892936D02*
X120623000Y-71347064D01*
%TO.C,JP5*%
X116540000Y-74150000D02*
X117140000Y-74150000D01*
X117840000Y-74800000D02*
X117840000Y-77600000D01*
X115840000Y-77600000D02*
X115840000Y-74800000D01*
X117140000Y-78250000D02*
X116540000Y-78250000D01*
X117140000Y-74150000D02*
G75*
G02*
X117840000Y-74850000I1J-699999D01*
G01*
X115840000Y-74850000D02*
G75*
G02*
X116540000Y-74150000I699999J1D01*
G01*
X117840000Y-77550000D02*
G75*
G02*
X117140000Y-78250000I-700000J0D01*
G01*
X116540000Y-78250000D02*
G75*
G02*
X115840000Y-77550000I0J700000D01*
G01*
%TO.C,C6*%
X124716000Y-70973733D02*
X124716000Y-71266267D01*
X123696000Y-70973733D02*
X123696000Y-71266267D01*
%TO.C,R6*%
X105694064Y-83381000D02*
X105239936Y-83381000D01*
X105694064Y-81911000D02*
X105239936Y-81911000D01*
%TO.C,R14*%
X143229064Y-82523000D02*
X142774936Y-82523000D01*
X143229064Y-81053000D02*
X142774936Y-81053000D01*
%TO.C,JP3*%
X129810000Y-78040000D02*
G75*
G02*
X130510000Y-77340000I699999J1D01*
G01*
X130510000Y-80140000D02*
G75*
G02*
X129810000Y-79440000I0J700000D01*
G01*
X131110000Y-77340000D02*
G75*
G02*
X131810000Y-78040000I1J-699999D01*
G01*
X131810000Y-79440000D02*
G75*
G02*
X131110000Y-80140000I-700000J0D01*
G01*
X129810000Y-79440000D02*
X129810000Y-78040000D01*
X130510000Y-77340000D02*
X131110000Y-77340000D01*
X131110000Y-80140000D02*
X130510000Y-80140000D01*
X131810000Y-78040000D02*
X131810000Y-79440000D01*
%TO.C,J1*%
X104201000Y-71596000D02*
X102421000Y-71596000D01*
X104201000Y-80996000D02*
X102421000Y-80996000D01*
X107121000Y-73496000D02*
X107121000Y-72696000D01*
%TO.C,R11*%
X139181064Y-81053000D02*
X138726936Y-81053000D01*
X139181064Y-82523000D02*
X138726936Y-82523000D01*
%TO.C,J5*%
X128320000Y-65846000D02*
X128320000Y-65726000D01*
X128320000Y-68386000D02*
X128320000Y-67056000D01*
X129650000Y-68386000D02*
X128320000Y-68386000D01*
X130980000Y-65726000D02*
X128320000Y-65726000D01*
X130980000Y-65846000D02*
X130980000Y-65726000D01*
%TO.C,C4*%
X121668000Y-81780767D02*
X121668000Y-81488233D01*
X120648000Y-81780767D02*
X120648000Y-81488233D01*
%TO.C,R2*%
X125703000Y-81407436D02*
X125703000Y-81861564D01*
X124233000Y-81407436D02*
X124233000Y-81861564D01*
%TO.C,R8*%
X138472936Y-71347000D02*
X138927064Y-71347000D01*
X138472936Y-69877000D02*
X138927064Y-69877000D01*
%TO.C,JP2*%
X135089871Y-80534000D02*
G75*
G02*
X135789871Y-81234000I1J-699999D01*
G01*
X132989871Y-81234000D02*
G75*
G02*
X133689871Y-80534000I700000J0D01*
G01*
X135789871Y-81834000D02*
G75*
G02*
X135089871Y-82534000I-699999J-1D01*
G01*
X133689871Y-82534000D02*
G75*
G02*
X132989871Y-81834000I0J700000D01*
G01*
X133689871Y-80534000D02*
X135089871Y-80534000D01*
X135789871Y-81234000D02*
X135789871Y-81834000D01*
X132989871Y-81834000D02*
X132989871Y-81234000D01*
X135089871Y-82534000D02*
X133689871Y-82534000D01*
%TO.C,R3*%
X127535000Y-80237064D02*
X127535000Y-79782936D01*
X129005000Y-80237064D02*
X129005000Y-79782936D01*
%TO.C,J2*%
X114639000Y-73670000D02*
X114639000Y-81350000D01*
X114639000Y-71070000D02*
X114639000Y-72400000D01*
X113309000Y-71070000D02*
X114639000Y-71070000D01*
X111979000Y-81350000D02*
X114639000Y-81350000D01*
X111979000Y-73670000D02*
X114639000Y-73670000D01*
X111979000Y-73670000D02*
X111979000Y-81350000D01*
%TO.C,J4*%
X130980000Y-84134000D02*
X130980000Y-84014000D01*
X130980000Y-84014000D02*
X128320000Y-84014000D01*
X129650000Y-86674000D02*
X128320000Y-86674000D01*
X128320000Y-86674000D02*
X128320000Y-85344000D01*
X128320000Y-84134000D02*
X128320000Y-84014000D01*
%TO.C,C5*%
X128780000Y-76346267D02*
X128780000Y-76053733D01*
X127760000Y-76346267D02*
X127760000Y-76053733D01*
%TO.C,C1*%
X137187000Y-74429252D02*
X137187000Y-73906748D01*
X138657000Y-74429252D02*
X138657000Y-73906748D01*
%TO.C,R7*%
X105694064Y-70681000D02*
X105239936Y-70681000D01*
X105694064Y-69211000D02*
X105239936Y-69211000D01*
%TO.C,J3*%
X108169000Y-73650000D02*
X108169000Y-81330000D01*
X108169000Y-73650000D02*
X110829000Y-73650000D01*
X108169000Y-81330000D02*
X110829000Y-81330000D01*
X109499000Y-71050000D02*
X110829000Y-71050000D01*
X110829000Y-71050000D02*
X110829000Y-72380000D01*
X110829000Y-73650000D02*
X110829000Y-81330000D01*
%TO.C,JP4*%
X143272000Y-77532000D02*
G75*
G02*
X143972000Y-76832000I699999J1D01*
G01*
X143972000Y-79632000D02*
G75*
G02*
X143272000Y-78932000I0J700000D01*
G01*
X144572000Y-76832000D02*
G75*
G02*
X145272000Y-77532000I1J-699999D01*
G01*
X145272000Y-78932000D02*
G75*
G02*
X144572000Y-79632000I-700000J0D01*
G01*
X143272000Y-78932000D02*
X143272000Y-77532000D01*
X143972000Y-76832000D02*
X144572000Y-76832000D01*
X144572000Y-79632000D02*
X143972000Y-79632000D01*
X145272000Y-77532000D02*
X145272000Y-78932000D01*
%TO.C,U1*%
X142735000Y-73540000D02*
X142405000Y-73300000D01*
X142735000Y-73060000D01*
X142735000Y-73540000D01*
G36*
X142735000Y-73540000D02*
G01*
X142405000Y-73300000D01*
X142735000Y-73060000D01*
X142735000Y-73540000D01*
G37*
X139360000Y-76200000D02*
X139360000Y-74000000D01*
X139360000Y-76200000D02*
X139360000Y-78400000D01*
X142580000Y-76200000D02*
X142580000Y-74000000D01*
X142580000Y-76200000D02*
X142580000Y-78400000D01*
%TO.C,R4*%
X127535000Y-71908936D02*
X127535000Y-72363064D01*
X129005000Y-71908936D02*
X129005000Y-72363064D01*
%TO.C,R1*%
X136076000Y-78377064D02*
X136076000Y-74022936D01*
X132656000Y-78377064D02*
X132656000Y-74022936D01*
%TO.C,C3*%
X125474000Y-71266267D02*
X125474000Y-70973733D01*
X126494000Y-71266267D02*
X126494000Y-70973733D01*
%TO.C,D1*%
X146106000Y-74340000D02*
X146106000Y-77200000D01*
X148026000Y-74340000D02*
X146106000Y-74340000D01*
X148026000Y-77200000D02*
X148026000Y-74340000D01*
%TO.C,R12*%
X150087000Y-76427064D02*
X150087000Y-75972936D01*
X148617000Y-76427064D02*
X148617000Y-75972936D01*
%TO.C,R9*%
X142975064Y-69877000D02*
X142520936Y-69877000D01*
X142975064Y-71347000D02*
X142520936Y-71347000D01*
%TO.C,C2*%
X137412000Y-78339733D02*
X137412000Y-78632267D01*
X138432000Y-78339733D02*
X138432000Y-78632267D01*
%TO.C,R5*%
X117575000Y-81306936D02*
X117575000Y-81761064D01*
X116105000Y-81306936D02*
X116105000Y-81761064D01*
%TO.C,R15*%
X121439000Y-71347064D02*
X121439000Y-70892936D01*
X122909000Y-71347064D02*
X122909000Y-70892936D01*
%TO.C,R10*%
X129900000Y-75149064D02*
X129900000Y-73694936D01*
X131720000Y-75149064D02*
X131720000Y-73694936D01*
%TO.C,U3*%
X126130000Y-78995000D02*
X125650000Y-78995000D01*
X125890000Y-78665000D01*
X126130000Y-78995000D01*
G36*
X126130000Y-78995000D02*
G01*
X125650000Y-78995000D01*
X125890000Y-78665000D01*
X126130000Y-78995000D01*
G37*
X123190000Y-73640000D02*
X121240000Y-73640000D01*
X123190000Y-73640000D02*
X125140000Y-73640000D01*
X123190000Y-78760000D02*
X121240000Y-78760000D01*
X123190000Y-78760000D02*
X125140000Y-78760000D01*
%TO.C,JP1*%
X143272000Y-74868000D02*
X143272000Y-73468000D01*
X143972000Y-72768000D02*
X144572000Y-72768000D01*
X144572000Y-75568000D02*
X143972000Y-75568000D01*
X145272000Y-73468000D02*
X145272000Y-74868000D01*
X143272000Y-73468000D02*
G75*
G02*
X143972000Y-72768000I700000J0D01*
G01*
X143972000Y-75568000D02*
G75*
G02*
X143272000Y-74868000I-1J699999D01*
G01*
X144572000Y-72768000D02*
G75*
G02*
X145272000Y-73468000I0J-700000D01*
G01*
X145272000Y-74868000D02*
G75*
G02*
X144572000Y-75568000I-699999J-1D01*
G01*
D12*
%TO.C,J6*%
X139576000Y-61871000D02*
G75*
G02*
X139376000Y-61871000I-100000J0D01*
G01*
X139376000Y-61871000D02*
G75*
G02*
X139576000Y-61871000I100000J0D01*
G01*
D13*
X132176000Y-69118000D02*
X144176000Y-69118000D01*
X132176000Y-62618000D02*
X132176000Y-69118000D01*
X144176000Y-62618000D02*
X132176000Y-62618000D01*
X144176000Y-69118000D02*
X144176000Y-62618000D01*
%TD*%
D14*
X129650000Y-87884000D03*
X129650000Y-64516000D03*
X134476000Y-86868000D03*
X139476000Y-84368000D03*
X105026000Y-73406000D03*
X105026000Y-79186000D03*
D15*
X105526000Y-71976000D03*
D16*
X101346000Y-71976000D03*
D15*
X105526000Y-80616000D03*
D16*
X101346000Y-80616000D03*
D14*
X129650000Y-67056000D03*
X113309000Y-72400000D03*
X113309000Y-74940000D03*
X113309000Y-77480000D03*
X113309000Y-80020000D03*
X129650000Y-85344000D03*
X109499000Y-72380000D03*
X109499000Y-74920000D03*
X109499000Y-77460000D03*
X109499000Y-80000000D03*
X134476000Y-66368000D03*
X139476000Y-63868000D03*
M02*
